<?xml version="1.0" encoding="UTF-8" standalone="no"?>
<svg xmlns="http://www.w3.org/2000/svg" version="1.2" baseProfile="tiny" viewBox="0 0 500 130">
<path fill="#484848" d="
  M 312.27 64.08
  C 300.13 67.76 288.06 59.64 285.81 47.17
  C 283.60 34.91 286.11 20.92 294.92 11.71
  C 309.56 -3.60 334.25 3.94 333.86 26.35
  A 0.64 0.64 -89.5 0 1 333.22 26.98
  L 321.00 26.98
  A 0.61 0.57 -3.8 0 1 320.40 26.49
  L 319.62 20.93
  A 1.85 1.11 -81.2 0 0 319.26 20.05
  Q 316.57 16.80 312.49 17.02
  C 300.31 17.67 297.12 34.36 298.83 43.48
  C 301.14 55.84 315.39 53.90 318.64 43.67
  A 0.40 0.38 -80.3 0 0 318.29 43.15
  L 309.57 43.04
  A 1.35 1.28 5.6 0 1 308.25 41.52
  L 310.15 31.66
  A 1.04 1.03 6.5 0 1 311.20 30.83
  C 316.84 31.03 322.71 31.28 328.37 30.77
  Q 330.47 30.58 332.43 31.41
  A 0.63 0.61 -73.6 0 1 332.80 32.11
  C 330.42 44.82 327.78 59.39 312.27 64.08
  Z"
/>
<path fill="#484848" d="
  M 383.66 27.47
  Q 383.46 27.86 383.39 28.33
  Q 380.99 45.79 378.52 63.27
  A 0.88 0.86 4.1 0 1 377.64 64.02
  L 355.41 63.88
  A 0.68 0.68 81.3 0 1 354.76 63.40
  Q 353.41 59.08 354.13 54.75
  A 1.48 1.46 -85.5 0 0 352.69 53.03
  L 340.87 53.07
  A 0.76 0.74 9.7 0 0 340.18 53.54
  L 336.44 63.18
  A 1.20 1.07 -78.0 0 1 335.39 63.95
  L 324.85 63.88
  A 1.03 0.99 -78.5 0 1 323.95 62.47
  L 345.94 7.58
  Q 346.93 5.11 349.43 5.09
  L 359.27 5.01
  A 1.15 1.11 86.5 0 1 360.38 6.02
  Q 363.01 29.75 365.80 53.49
  Q 365.99 55.13 365.96 59.99
  Q 365.95 61.55 366.75 60.87
  A 1.50 1.00 83.0 0 0 367.18 60.02
  L 375.98 6.98
  A 1.39 1.35 4.8 0 1 377.36 5.85
  L 390.34 5.97
  A 1.98 1.92 -2.0 0 1 392.30 7.74
  L 395.04 41.72
  Q 395.17 43.29 395.77 41.82
  L 410.40 6.02
  A 1.91 1.65 11.5 0 1 412.23 4.99
  L 424.23 5.78
  Q 426.34 5.92 426.01 7.85
  L 416.58 63.50
  A 0.53 0.51 -85.4 0 1 416.07 63.95
  L 405.81 63.98
  A 0.86 0.85 -84.4 0 1 404.98 62.96
  L 411.11 30.44
  Q 412.12 25.05 410.09 30.14
  L 397.12 62.70
  A 1.06 1.01 -86.5 0 1 396.46 63.31
  Q 391.93 64.71 388.46 63.98
  A 2.13 2.12 -86.2 0 1 386.79 62.06
  L 383.98 27.56
  Q 383.93 26.96 383.66 27.47
  Z
  M 350.31 25.39
  Q 347.69 32.27 345.05 39.54
  A 1.05 1.00 -79.2 0 0 345.96 40.94
  L 351.89 41.01
  A 0.53 0.50 -90.0 0 0 352.39 40.48
  Q 352.36 32.99 351.56 25.67
  C 351.46 24.76 350.71 24.33 350.31 25.39
  Z"
/>
<path fill="#484848" d="
  M 433.81 49.95
  L 450.85 49.98
  A 0.96 0.90 3.6 0 1 451.81 51.00
  L 450.06 63.16
  A 1.06 0.98 3.7 0 1 449.02 64.00
  L 420.04 64.00
  A 1.06 1.06 4.8 0 1 418.99 62.76
  L 428.40 6.42
  A 0.74 0.72 4.6 0 1 429.13 5.82
  L 458.36 5.57
  A 0.49 0.47 0.6 0 1 458.85 6.05
  Q 458.76 12.34 457.43 17.45
  A 2.00 1.98 6.7 0 1 455.54 18.93
  L 439.18 19.30
  A 0.95 0.91 2.4 0 0 438.26 20.11
  L 437.40 27.41
  A 0.48 0.46 3.8 0 0 437.87 27.92
  L 452.30 27.98
  A 1.29 1.28 3.7 0 1 453.58 29.43
  L 452.26 39.02
  A 1.11 1.11 3.9 0 1 451.16 39.98
  L 435.74 40.01
  A 0.61 0.60 -85.3 0 0 435.16 40.51
  L 433.42 49.45
  A 0.42 0.41 -84.0 0 0 433.81 49.95
  Z"
/>
<ellipse fill="#ff0000" cx="0.00" cy="0.00" transform="translate(52.14,64.91) rotate(131.7)" rx="62.31" ry="25.37"/>
<ellipse fill="#00cc99" cx="0.00" cy="0.00" transform="translate(142.84,64.90) rotate(133.0)" rx="62.85" ry="25.67"/>
<ellipse fill="#0099ff" cx="0.00" cy="0.00" transform="translate(230.38,64.90) rotate(133.0)" rx="62.89" ry="25.67"/>
<path fill="#484848" d="
  M 367.97 79.60
  C 349.93 71.67 343.95 99.15 350.82 109.79
  Q 352.38 112.21 355.24 112.54
  Q 365.09 113.69 367.99 104.99
  A 0.77 0.76 9.1 0 0 367.26 103.99
  L 358.74 103.96
  A 0.48 0.47 1.1 0 1 358.26 103.47
  Q 358.45 98.25 359.79 93.12
  A 1.44 1.42 -82.6 0 1 361.17 92.04
  L 382.09 92.09
  A 0.44 0.43 -85.4 0 1 382.51 92.60
  Q 381.12 100.73 380.47 103.47
  C 377.40 116.28 363.78 130.85 349.38 124.99
  C 321.00 113.45 336.44 54.52 370.46 66.41
  C 379.26 69.49 383.84 76.54 382.93 85.88
  A 1.45 1.41 3.0 0 1 381.47 87.16
  L 370.84 86.94
  A 0.52 0.52 89.4 0 1 370.33 86.44
  Q 370.24 83.02 368.69 80.24
  A 1.58 1.43 -0.4 0 0 367.97 79.60
  Z"
/>
<path fill="#484848" d="
  M 410.49 121.00
  L 410.59 121.00
  A 0.20 0.09 -69.7 0 0 410.72 120.87
  L 432.36 67.05
  A 0.91 0.89 6.4 0 1 433.05 66.51
  Q 439.25 65.49 445.37 66.22
  A 0.83 0.83 88.4 0 1 446.09 66.94
  Q 449.22 94.02 452.10 121.38
  C 452.14 121.75 452.25 122.20 452.73 121.98
  A 0.72 0.49 84.0 0 0 453.04 121.40
  Q 453.27 116.50 453.77 113.50
  Q 457.66 90.26 461.51 66.99
  A 1.06 1.06 -86.7 0 1 462.51 66.10
  Q 471.42 65.74 480.53 66.17
  C 488.00 66.53 493.05 68.96 495.50 75.99
  C 498.79 85.44 492.99 94.17 485.75 99.54
  A 1.42 1.40 61.0 0 0 485.29 101.19
  L 494.03 123.25
  A 0.82 0.82 -7.0 0 1 493.16 124.36
  Q 487.86 123.71 481.23 124.08
  A 1.58 1.58 78.1 0 1 479.67 123.06
  Q 476.45 114.51 473.23 105.55
  Q 472.55 103.63 470.50 102.74
  Q 468.30 101.78 467.91 104.10
  L 464.70 123.42
  A 0.61 0.57 -84.6 0 1 464.13 123.92
  L 440.57 123.96
  A 0.55 0.52 88.2 0 1 440.05 123.44
  L 439.49 113.98
  A 0.62 0.61 1.7 0 0 438.94 113.41
  Q 432.82 112.63 426.65 113.11
  A 0.78 0.76 -82.2 0 0 425.99 113.62
  L 422.37 123.43
  A 0.99 0.98 10.4 0 1 421.43 124.07
  L 379.88 123.94
  A 0.89 0.89 -85.3 0 1 379.01 122.91
  C 381.90 104.21 385.38 85.46 388.21 66.67
  A 0.75 0.75 -86.0 0 1 388.95 66.02
  L 417.22 66.04
  A 1.64 1.60 4.2 0 1 418.85 67.88
  L 417.21 78.61
  A 1.73 1.63 4.0 0 1 415.51 80.00
  L 399.85 80.07
  A 1.68 1.58 3.3 0 0 398.21 81.44
  L 397.40 87.42
  A 0.47 0.44 3.7 0 0 397.87 87.92
  L 412.75 87.98
  A 0.91 0.90 -85.4 0 1 413.64 89.03
  L 411.89 100.20
  A 0.99 0.98 4.4 0 1 410.91 101.03
  L 395.65 101.11
  A 0.61 0.61 5.1 0 0 395.05 101.61
  L 393.49 110.39
  A 0.44 0.43 5.0 0 0 393.92 110.90
  L 410.66 110.97
  A 1.47 1.43 -83.6 0 1 412.04 112.75
  L 410.34 120.75
  A 0.21 0.16 -83.0 0 0 410.49 121.00
  Z
  M 472.07 79.92
  L 470.02 90.26
  A 0.85 0.83 6.4 0 0 470.83 91.25
  Q 474.78 91.38 478.76 90.48
  C 483.35 89.45 484.43 84.15 482.50 80.46
  A 1.43 1.31 -0.1 0 0 481.81 79.83
  Q 477.25 77.94 472.66 79.29
  A 0.84 0.82 -2.5 0 0 472.07 79.92
  Z
  M 436.54 84.90
  C 434.39 90.28 432.32 95.80 430.29 101.30
  A 0.39 0.36 -78.2 0 0 430.61 101.83
  L 437.55 101.88
  A 0.57 0.54 87.6 0 0 438.09 101.26
  L 436.78 84.94
  Q 436.74 84.40 436.54 84.90
  Z"
/>
</svg>
