<?xml version="1.0" encoding="UTF-8" standalone="no"?>
<!DOCTYPE svg PUBLIC "-//W3C//DTD SVG 1.1//EN" "http://www.w3.org/Graphics/SVG/1.1/DTD/svg11.dtd">
<svg xmlns="http://www.w3.org/2000/svg" version="1.1" viewBox="0 0 500 130">
<path fill="#000000" d="
  M 306.73 64.21
  C 271.15 62.99 284.72 -4.37 318.32 5.54
  C 327.86 8.35 333.24 14.84 332.63 25.36
  A 0.55 0.54 -88.3 0 1 332.09 25.88
  L 321.90 25.91
  A 0.62 0.58 84.7 0 1 321.32 25.40
  C 320.97 23.39 320.82 21.06 319.62 19.50
  C 316.64 15.62 309.56 16.11 306.15 18.33
  C 296.82 24.38 291.82 53.88 308.66 52.49
  Q 316.30 51.86 319.30 43.87
  A 1.39 1.33 9.3 0 0 317.95 42.07
  L 310.38 42.23
  A 1.25 1.15 -85.4 0 1 309.24 40.77
  L 310.66 32.16
  A 0.73 0.68 -85.0 0 1 311.34 31.55
  L 331.34 31.60
  A 0.48 0.46 -87.7 0 1 331.80 32.12
  Q 330.92 42.58 327.41 49.90
  C 323.96 57.08 315.40 64.51 306.73 64.21
  Z"
/>
<path fill="#000000" d="
  M 324.77 62.40
  C 332.20 43.98 339.79 25.57 347.09 7.06
  A 1.24 1.21 -78.9 0 1 348.22 6.28
  L 358.87 6.28
  A 0.85 0.82 86.1 0 1 359.70 7.03
  L 365.99 62.27
  A 0.65 0.59 -2.8 0 1 365.34 62.92
  L 356.23 62.99
  A 0.90 0.80 -2.8 0 1 355.33 62.27
  L 354.39 52.36
  A 0.56 0.53 87.7 0 0 353.86 51.84
  L 340.39 51.83
  A 0.75 0.74 -79.9 0 0 339.69 52.32
  L 336.02 62.26
  A 1.04 1.00 -76.5 0 1 334.97 62.93
  Q 330.22 62.45 325.23 63.01
  A 0.45 0.44 -82.0 0 1 324.77 62.40
  Z
  M 350.79 21.99
  L 343.56 41.62
  A 0.46 0.45 -80.2 0 0 343.99 42.24
  L 352.81 42.23
  A 0.74 0.71 87.4 0 0 353.52 41.43
  L 351.93 22.16
  Q 351.70 19.51 350.79 21.99
  Z"
/>
<path fill="#000000" d="
  M 394.79 45.27
  C 395.35 45.15 409.24 10.43 410.70 6.85
  A 0.80 0.75 -78.5 0 1 411.39 6.36
  L 424.94 6.30
  A 0.54 0.51 -85.2 0 1 425.44 6.92
  L 416.29 61.34
  A 2.01 2.00 -84.6 0 1 414.28 63.01
  L 406.41 62.85
  A 0.49 0.49 -84.5 0 1 405.94 62.27
  Q 409.54 41.90 413.73 21.60
  C 414.17 19.45 412.98 21.07 412.82 21.46
  Q 404.74 41.76 396.48 62.01
  A 1.78 1.40 8.2 0 1 394.93 62.90
  L 388.33 62.98
  A 0.59 0.50 -2.1 0 1 387.75 62.52
  C 387.40 58.83 384.06 20.17 384.03 20.15
  A 0.42 0.33 -74.6 0 0 383.53 20.52
  L 377.85 62.21
  A 0.59 0.57 -86.0 0 1 377.28 62.72
  L 368.04 62.72
  A 0.50 0.50 -85.5 0 1 367.55 62.14
  L 376.79 7.04
  A 0.59 0.59 4.1 0 1 377.36 6.55
  L 390.94 6.33
  A 0.38 0.37 -3.2 0 1 391.33 6.67
  L 394.29 44.70
  A 0.59 0.41 83.4 0 0 394.79 45.27
  Z"
/>
<path fill="#000000" d="
  M 419.86 61.92
  C 422.87 43.87 426.16 25.67 428.81 7.46
  A 1.40 1.37 -85.6 0 1 430.17 6.27
  L 457.34 6.34
  A 0.94 0.92 4.8 0 1 458.26 7.41
  L 456.70 17.43
  A 0.60 0.58 4.5 0 1 456.11 17.92
  L 439.25 17.98
  A 1.31 1.29 -84.6 0 0 437.98 19.05
  L 436.48 27.26
  A 0.86 0.86 -84.7 0 0 437.32 28.28
  L 452.37 28.34
  A 0.45 0.43 4.8 0 1 452.82 28.85
  L 451.20 38.43
  A 1.05 0.99 4.5 0 1 450.17 39.26
  L 435.47 39.25
  A 1.27 0.88 14.2 0 0 434.61 39.57
  Q 434.03 40.23 434.18 41.26
  Q 434.25 41.75 434.16 42.24
  L 432.67 50.66
  A 0.45 0.42 4.8 0 0 433.12 51.16
  L 450.62 51.24
  A 0.64 0.64 -85.1 0 1 451.25 51.99
  L 449.52 62.20
  A 0.74 0.71 -84.6 0 1 448.82 62.81
  L 420.74 62.97
  A 0.90 0.89 -85.1 0 1 419.86 61.92
  Z"
/>
<ellipse fill="#ff0000" cx="0.00" cy="0.00" transform="translate(52.14,64.91) rotate(131.7)" rx="62.31" ry="25.37"/>
<ellipse fill="#00cc99" cx="0.00" cy="0.00" transform="translate(142.84,64.90) rotate(133.0)" rx="62.85" ry="25.67"/>
<ellipse fill="#0099ff" cx="0.00" cy="0.00" transform="translate(230.38,64.90) rotate(133.0)" rx="62.89" ry="25.67"/>
<path fill="#000000" d="
  M 348.46 69.95
  C 361.86 59.89 383.63 67.34 382.41 86.13
  A 0.56 0.54 -87.7 0 1 381.87 86.65
  L 371.73 86.71
  A 0.98 0.94 -89.7 0 1 370.78 85.71
  Q 370.91 78.45 363.99 77.57
  C 345.17 75.17 340.84 114.58 358.11 113.24
  Q 366.92 112.56 369.47 103.19
  A 0.31 0.30 -81.8 0 0 369.19 102.80
  L 359.55 102.93
  A 0.70 0.67 4.7 0 1 358.85 102.14
  L 360.56 92.84
  A 0.62 0.60 -84.8 0 1 361.15 92.33
  L 381.11 92.35
  A 0.47 0.45 -86.6 0 1 381.56 92.87
  C 380.01 105.75 376.84 117.50 364.08 123.28
  Q 359.23 125.48 354.21 124.91
  C 328.19 121.93 332.47 81.94 348.46 69.95
  Z"
/>
<path fill="#000000" d="
  M 393.06 111.95
  L 410.70 111.78
  A 0.47 0.46 4.1 0 1 411.17 112.31
  L 409.31 123.04
  A 0.60 0.58 4.5 0 1 408.72 123.53
  L 380.32 123.56
  A 0.61 0.60 4.8 0 1 379.72 122.86
  L 388.91 67.66
  A 0.77 0.76 -85.1 0 1 389.66 67.02
  L 417.73 67.03
  A 0.45 0.45 3.9 0 1 418.18 67.54
  L 416.66 78.16
  A 0.60 0.58 3.9 0 1 416.07 78.66
  L 398.99 78.72
  A 1.17 1.12 -84.7 0 0 397.89 79.67
  L 396.28 88.45
  A 0.54 0.52 -85.0 0 0 396.80 89.09
  L 412.01 89.03
  A 0.80 0.79 -85.4 0 1 412.79 89.96
  L 411.28 99.19
  A 1.02 1.01 4.9 0 1 410.26 100.04
  L 395.18 99.90
  A 0.65 0.61 4.8 0 0 394.55 100.40
  L 392.61 111.44
  A 0.45 0.44 4.3 0 0 393.06 111.95
  Z"
/>
<path fill="#000000" d="
  M 439.43 112.55
  L 426.13 112.52
  A 0.96 0.93 -79.6 0 0 425.25 113.15
  L 421.63 123.00
  A 0.74 0.72 -79.5 0 1 420.95 123.48
  L 410.93 123.43
  A 0.35 0.33 -78.2 0 1 410.63 122.95
  L 432.85 67.75
  A 0.82 0.69 -76.9 0 1 433.53 67.24
  L 444.55 67.06
  A 0.96 0.88 86.1 0 1 445.44 67.91
  L 451.71 123.05
  A 0.50 0.50 -3.0 0 1 451.20 123.61
  L 441.36 123.41
  A 0.55 0.53 88.2 0 1 440.84 122.90
  L 440.01 113.06
  A 0.58 0.57 -2.7 0 0 439.43 112.55
  Z
  M 436.44 82.42
  L 429.22 102.25
  A 0.52 0.50 9.7 0 0 429.72 102.92
  L 438.70 102.90
  A 0.51 0.47 -2.1 0 0 439.21 102.39
  L 437.56 82.57
  Q 437.34 79.95 436.44 82.42
  Z"
/>
<path fill="#000000" d="
  M 484.04 100.34
  L 493.06 123.19
  A 0.35 0.34 -10.3 0 1 492.73 123.65
  L 481.61 123.59
  A 1.22 1.14 -9.7 0 1 480.49 122.85
  L 472.67 102.74
  A 0.98 0.95 85.0 0 0 471.99 102.15
  Q 469.86 101.70 467.81 102.17
  A 0.77 0.74 89.0 0 0 467.24 102.78
  L 463.85 122.98
  A 0.61 0.59 3.9 0 1 463.26 123.47
  L 453.58 123.68
  A 0.59 0.57 4.1 0 1 452.99 123.02
  L 462.16 67.77
  A 0.81 0.80 2.6 0 1 462.91 67.10
  Q 473.31 66.60 483.94 67.42
  C 491.33 68.00 494.96 74.05 495.20 80.81
  C 495.47 88.62 490.99 95.61 484.29 99.57
  A 0.63 0.62 63.7 0 0 484.04 100.34
  Z
  M 471.35 78.92
  L 469.06 91.37
  A 0.37 0.37 -84.8 0 0 469.42 91.81
  C 476.26 91.89 485.08 92.09 483.89 82.24
  C 483.25 76.92 475.30 77.67 471.93 78.33
  A 0.76 0.74 -89.9 0 0 471.35 78.92
  Z"
/>
</svg>
