<?xml version="1.0" encoding="UTF-8" standalone="no"?>
<!DOCTYPE svg PUBLIC "-//W3C//DTD SVG 1.1//EN" "http://www.w3.org/Graphics/SVG/1.1/DTD/svg11.dtd">
<svg xmlns="http://www.w3.org/2000/svg" version="1.1" viewBox="0 0 472 81">
<g stroke-width="2.00" fill="none" stroke-linecap="butt">
<path stroke="#706b6e" vector-effect="non-scaling-stroke" d="
  M 25.75 3.71
  L 18.00 3.71"
/>
<path stroke="#dbd5d4" vector-effect="non-scaling-stroke" d="
  M 61.71 3.50
  L 61.97 5.56
  A 0.72 0.72 0.0 0 0 62.68 6.19
  L 65.02 6.19
  A 0.81 0.81 0.0 0 0 65.80 5.59
  L 66.29 3.75"
/>
<path stroke="#beb7b6" vector-effect="non-scaling-stroke" d="
  M 68.21 3.25
  Q 70.51 4.91 72.21 3.00"
/>
<path stroke="#beb7b6" vector-effect="non-scaling-stroke" d="
  M 90.00 3.46
  Q 97.40 4.34 104.79 3.50"
/>
<path stroke="#beb7b6" vector-effect="non-scaling-stroke" d="
  M 112.09 14.28
  Q 111.27 18.12 112.00 22.04"
/>
<path stroke="#716765" vector-effect="non-scaling-stroke" d="
  M 111.96 25.17
  L 82.18 25.60"
/>
<path stroke="#dbd5d4" vector-effect="non-scaling-stroke" d="
  M 82.18 25.60
  Q 76.58 21.22 69.93 18.60"
/>
<path stroke="#635a5b" vector-effect="non-scaling-stroke" d="
  M 69.93 18.60
  Q 73.07 17.97 77.36 18.39
  Q 79.28 18.58 79.27 16.65
  L 79.23 7.92
  A 0.61 0.61 0.0 0 0 78.62 7.31
  L 54.75 7.34
  A 0.63 0.63 0.0 0 0 54.12 7.92
  L 53.89 10.46
  A 0.56 0.56 0.0 0 1 53.37 10.97
  L 51.03 11.09
  A 0.56 0.56 0.0 0 0 50.50 11.65
  L 50.50 13.67
  A 0.79 0.79 0.0 0 1 49.83 14.45
  L 47.51 14.78
  A 0.66 0.65 -7.5 0 0 46.94 15.51
  L 47.21 17.65
  A 0.69 0.69 0.0 0 0 47.89 18.25
  L 59.48 18.23"
/>
<path stroke="#dbd5d4" vector-effect="non-scaling-stroke" d="
  M 59.48 18.23
  Q 50.90 19.86 44.21 25.50"
/>
<path stroke="#716765" vector-effect="non-scaling-stroke" d="
  M 44.21 25.50
  L 30.81 25.32
  A 1.01 1.01 0.0 0 0 30.00 25.70
  L 29.54 26.25"
/>
<path stroke="#cec7c5" vector-effect="non-scaling-stroke" d="
  M 29.54 26.25
  L 29.76 22.12
  Q 29.88 20.01 27.83 20.49
  Q 26.90 20.71 26.21 21.25"
/>
<path stroke="#c75d6a" vector-effect="non-scaling-stroke" d="
  M 26.21 21.25
  Q 24.72 20.24 23.04 21.00"
/>
<path stroke="#cec7c5" vector-effect="non-scaling-stroke" d="
  M 23.04 21.00
  Q 20.84 19.84 18.71 21.00"
/>
<path stroke="#c75d6a" vector-effect="non-scaling-stroke" d="
  M 18.71 21.00
  L 15.50 20.79"
/>
<path stroke="#cec7c5" vector-effect="non-scaling-stroke" d="
  M 15.50 20.79
  Q 14.02 20.46 12.70 20.96
  A 0.88 0.86 85.3 0 0 12.15 21.62
  L 11.50 25.21"
/>
<path stroke="#716765" vector-effect="non-scaling-stroke" d="
  M 11.50 25.21
  L 7.29 25.50"
/>
<path stroke="#beb7b6" vector-effect="non-scaling-stroke" d="
  M 6.25 21.96
  L 6.71 21.78
  A 0.74 0.73 -10.0 0 0 7.17 21.13
  L 7.29 18.25"
/>
<path stroke="#aca19f" vector-effect="non-scaling-stroke" d="
  M 7.29 18.25
  Q 22.14 18.03 37.01 18.24
  Q 40.21 18.28 39.81 15.07
  A 0.45 0.44 88.9 0 1 40.29 14.57
  Q 43.62 14.89 42.95 11.50
  A 0.48 0.48 0.0 0 1 43.52 10.94
  Q 47.17 11.65 46.99 8.11
  A 0.54 0.54 0.0 0 1 47.42 7.56
  L 49.79 7.12
  A 0.67 0.66 86.7 0 0 50.34 6.50
  L 50.50 3.79"
/>
<path stroke="#635a5b" vector-effect="non-scaling-stroke" d="
  M 104.5111 8.2488
  A 0.80 0.80 0.0 0 0 103.7125 7.4474
  L 83.7325 7.4126
  A 0.80 0.80 0.0 0 0 82.9311 8.2112
  L 82.9089 20.9312
  A 0.80 0.80 0.0 0 0 83.7075 21.7326
  L 103.6875 21.7674
  A 0.80 0.80 0.0 0 0 104.4889 20.9688
  L 104.5111 8.2488"
/>
<path stroke="#de7986" vector-effect="non-scaling-stroke" d="
  M 440.25 58.29
  L 440.50 62.21"
/>
<path stroke="#de7986" vector-effect="non-scaling-stroke" d="
  M 444.50 58.29
  L 444.50 62.21"
/>
<path stroke="#de7986" vector-effect="non-scaling-stroke" d="
  M 440.50 63.79
  Q 439.92 65.79 440.75 67.71"
/>
<path stroke="#de7986" vector-effect="non-scaling-stroke" d="
  M 444.25 63.54
  L 444.00 67.71"
/>
<path stroke="#aca19f" vector-effect="non-scaling-stroke" d="
  M 47.25 3.79
  Q 47.36 5.44 46.54 6.82
  A 0.92 0.90 -74.9 0 1 45.78 7.27
  Q 42.57 7.36 43.31 10.47
  A 0.49 0.49 0.0 0 1 42.77 11.07
  Q 39.57 10.67 39.75 13.69
  A 0.63 0.63 0.0 0 1 39.28 14.35
  C 36.05 15.22 32.37 14.44 29.91 14.51
  Q 18.48 14.82 7.04 14.50"
/>
<path stroke="#beb7b6" vector-effect="non-scaling-stroke" d="
  M 7.04 14.50
  L 6.96 14.25"
/>
<path stroke="#beb7b6" vector-effect="non-scaling-stroke" d="
  M 14.00 7.21
  Q 21.50 7.78 29.00 7.21"
/>
<path stroke="#b3adac" vector-effect="non-scaling-stroke" d="
  M 7.29 18.25
  L 7.04 14.50"
/>
<path stroke="#878486" vector-effect="non-scaling-stroke" d="
  M 69.93 18.60
  L 59.48 18.23"
/>
<path stroke="#878486" vector-effect="non-scaling-stroke" d="
  M 93.6630 12.5277
  A 1.47 1.47 0.0 0 0 92.1879 11.0628
  L 88.0479 11.0772
  A 1.47 1.47 0.0 0 0 86.5831 12.5524
  L 86.5970 16.5323
  A 1.47 1.47 0.0 0 0 88.0721 17.9972
  L 92.2121 17.9828
  A 1.47 1.47 0.0 0 0 93.6769 16.5076
  L 93.6630 12.5277"
/>
<path stroke="#959190" vector-effect="non-scaling-stroke" d="
  M 82.18 25.60
  Q 89.08 33.45 90.29 43.50"
/>
<path stroke="#e2e1e1" vector-effect="non-scaling-stroke" d="
  M 90.29 43.50
  L 90.50 46.96"
/>
<path stroke="#959190" vector-effect="non-scaling-stroke" d="
  M 90.50 46.96
  Q 88.83 57.22 82.00 64.96"
/>
<path stroke="#dbd5d4" vector-effect="non-scaling-stroke" d="
  M 82.00 64.96
  Q 75.43 70.01 67.50 72.46"
/>
<path stroke="#dbd5d4" vector-effect="non-scaling-stroke" d="
  M 59.98 72.37
  Q 51.20 70.57 44.25 64.96"
/>
<path stroke="#959190" vector-effect="non-scaling-stroke" d="
  M 44.25 64.96
  Q 27.66 45.25 44.21 25.50"
/>
<path stroke="#8d898c" vector-effect="non-scaling-stroke" d="
  M 86.53 45.19
  A 23.41 23.41 0.0 0 0 63.12 21.78
  A 23.41 23.41 0.0 0 0 39.71 45.19
  A 23.41 23.41 0.0 0 0 63.12 68.60
  A 23.41 23.41 0.0 0 0 86.53 45.19"
/>
<path stroke="#de7986" vector-effect="non-scaling-stroke" d="
  M 23.04 21.00
  L 22.85 23.36
  A 0.51 0.51 0.0 0 0 23.33 23.91
  L 25.48 24.03
  A 0.67 0.67 0.0 0 0 26.19 23.36
  L 26.21 21.25"
/>
<path stroke="#888381" vector-effect="non-scaling-stroke" d="
  M 29.54 26.25
  Q 29.55 28.09 27.18 27.94
  Q 23.57 27.72 12.84 27.73
  A 0.67 0.66 -9.1 0 1 12.21 27.28
  L 11.50 25.21"
/>
<path stroke="#de7986" vector-effect="non-scaling-stroke" d="
  M 15.50 20.79
  Q 15.08 22.02 15.25 23.41
  A 0.68 0.68 0.0 0 0 15.92 24.00
  L 18.12 24.00
  A 0.63 0.63 0.0 0 0 18.75 23.37
  L 18.71 21.00"
/>
<path stroke="#2c222d" vector-effect="non-scaling-stroke" d="
  M 79.27 45.21
  A 16.16 16.16 0.0 0 0 63.11 29.05
  A 16.16 16.16 0.0 0 0 46.95 45.21
  A 16.16 16.16 0.0 0 0 63.11 61.37
  A 16.16 16.16 0.0 0 0 79.27 45.21"
/>
<path stroke="#716765" vector-effect="non-scaling-stroke" d="
  M 111.96 65.00
  L 82.00 64.96"
/>
<path stroke="#787372" vector-effect="non-scaling-stroke" d="
  M 90.50 46.96
  Q 92.07 47.29 93.39 46.65
  A 0.76 0.74 71.5 0 0 93.79 45.82
  L 93.44 44.14
  A 0.80 0.79 83.6 0 0 92.67 43.52
  L 90.29 43.50"
/>
<path stroke="#716765" vector-effect="non-scaling-stroke" d="
  M 44.25 64.96
  L 7.04 65.00"
/>
<path stroke="#2c222d" vector-effect="non-scaling-stroke" d="
  M 75.59 45.23
  A 12.48 12.48 0.0 0 0 63.11 32.75
  A 12.48 12.48 0.0 0 0 50.63 45.23
  A 12.48 12.48 0.0 0 0 63.11 57.71
  A 12.48 12.48 0.0 0 0 75.59 45.23"
/>
</g>
<g fill="#2b2321">
<path d="
  M 111.96 25.17
  L 111.96 65.00
  L 82.00 64.96
  Q 88.83 57.22 90.50 46.96
  Q 92.07 47.29 93.39 46.65
  A 0.76 0.74 71.5 0 0 93.79 45.82
  L 93.44 44.14
  A 0.80 0.79 83.6 0 0 92.67 43.52
  L 90.29 43.50
  Q 89.08 33.45 82.18 25.60
  L 111.96 25.17
  Z"
/>
<path d="
  M 11.50 25.21
  L 12.21 27.28
  A 0.67 0.66 -9.1 0 0 12.84 27.73
  Q 23.57 27.72 27.18 27.94
  Q 29.55 28.09 29.54 26.25
  L 30.00 25.70
  A 1.01 1.01 0.0 0 1 30.81 25.32
  L 44.21 25.50
  Q 27.66 45.25 44.25 64.96
  L 7.04 65.00
  L 7.29 25.50
  L 11.50 25.21
  Z"
/>
</g>
<g fill="#ffffff">
<path d="
  M 66.29 3.75
  L 65.80 5.59
  A 0.81 0.81 0.0 0 1 65.02 6.19
  L 62.68 6.19
  A 0.72 0.72 0.0 0 1 61.97 5.56
  L 61.71 3.50
  C 61.93 1.24 65.71 1.08 66.29 3.75
  Z"
/>
<path d="
  M 381.78 7.00
  L 371.49 7.00
  A 0.49 0.49 0.0 0 1 371.00 6.51
  L 371.00 2.49
  A 0.49 0.49 0.0 0 1 371.49 2.00
  L 400.51 2.00
  A 0.49 0.49 0.0 0 1 401.00 2.49
  L 401.00 6.51
  A 0.49 0.49 0.0 0 1 400.51 7.00
  L 390.49 7.00
  A 0.49 0.49 0.0 0 0 390.00 7.49
  L 390.00 35.42
  A 0.49 0.49 0.0 0 1 389.52 35.91
  L 382.71 36.01
  A 0.49 0.49 0.0 0 1 382.21 35.52
  L 382.27 7.49
  A 0.49 0.49 0.0 0 0 381.78 7.00
  Z"
/>
<path d="
  M 436.58 30.98
  L 442.46 30.93
  A 0.54 0.53 0.0 0 1 443.00 31.46
  L 443.00 35.31
  A 0.56 0.56 0.0 0 1 442.44 35.87
  L 430.74 35.97
  Q 428.24 35.99 428.24 33.49
  L 428.25 3.12
  A 0.64 0.64 0.0 0 1 428.89 2.48
  L 435.35 2.46
  A 0.65 0.64 0.0 0 1 436.00 3.10
  L 436.00 30.40
  A 0.58 0.58 0.0 0 0 436.58 30.98
  Z"
/>
<rect x="-3.54" y="-3.46" transform="translate(90.13,14.53) rotate(-0.2)" width="7.08" height="6.92" rx="1.47"/>
<path d="
  M 407.25 27.00
  L 407.25 30.13
  A 0.63 0.62 0.0 0 0 407.88 30.75
  L 420.04 30.75
  A 0.80 0.80 0.0 0 1 420.84 31.55
  L 420.84 35.01
  A 0.73 0.72 -90.0 0 1 420.12 35.74
  L 404.27 35.76
  A 0.70 0.70 0.0 0 1 403.57 35.08
  L 403.47 31.60
  A 0.62 0.62 0.0 0 0 402.85 31.00
  L 400.63 31.00
  A 0.63 0.62 0.0 0 1 400.00 30.38
  L 400.00 17.88
  A 0.74 0.74 0.0 0 1 400.67 17.14
  L 402.94 16.93
  A 0.63 0.62 -3.5 0 0 403.50 16.30
  L 403.49 13.54
  A 1.27 1.27 0.0 0 1 404.76 12.26
  L 419.50 12.27
  A 1.32 1.31 0.8 0 1 420.82 13.62
  L 420.73 16.48
  A 0.58 0.58 0.0 0 0 421.46 17.06
  Q 422.76 16.71 423.83 17.23
  A 0.82 0.80 -77.2 0 1 424.28 17.96
  L 424.20 25.93
  A 0.57 0.57 0.0 0 1 423.63 26.50
  L 407.75 26.50
  A 0.50 0.50 0.0 0 0 407.25 27.00
  Z
  M 416.9927 17.9285
  A 0.43 0.43 0.0 0 0 416.5635 17.4978
  L 407.6835 17.4823
  A 0.43 0.43 0.0 0 0 407.2527 17.9115
  L 407.2473 21.0515
  A 0.43 0.43 0.0 0 0 407.6765 21.4822
  L 416.5565 21.4977
  A 0.43 0.43 0.0 0 0 416.9873 21.0685
  L 416.9927 17.9285
  Z"
/>
<path d="
  M 449.27 30.99
  L 446.75 31.00
  A 0.50 0.50 0.0 0 1 446.25 30.50
  L 446.25 27.50
  A 0.50 0.50 0.0 0 1 446.75 27.00
  L 449.25 27.00
  A 0.50 0.50 0.0 0 0 449.75 26.46
  L 449.50 23.54
  A 0.50 0.50 0.0 0 1 450.00 23.00
  L 462.51 23.00
  A 0.50 0.50 0.0 0 0 463.01 22.50
  L 463.00 19.50
  A 0.50 0.50 0.0 0 0 462.50 19.00
  L 450.21 19.00
  A 0.50 0.50 0.0 0 1 449.71 18.52
  L 449.60 15.50
  A 0.50 0.50 0.0 0 1 450.10 14.98
  L 466.25 15.01
  A 0.50 0.50 0.0 0 1 466.75 15.51
  L 466.74 18.34
  A 0.50 0.50 0.0 0 0 467.20 18.84
  L 469.55 19.06
  A 0.50 0.50 0.0 0 1 470.00 19.56
  L 470.00 34.50
  A 0.50 0.50 0.0 0 1 469.50 35.00
  L 450.03 35.00
  A 0.50 0.50 0.0 0 1 449.53 34.46
  L 449.77 31.53
  A 0.50 0.50 0.0 0 0 449.27 30.99
  Z
  M 463.0846 27.4329
  A 0.45 0.45 0.0 0 0 462.6330 26.9844
  L 453.7130 27.0156
  A 0.45 0.45 0.0 0 0 453.2646 27.4671
  L 453.2754 30.5671
  A 0.45 0.45 0.0 0 0 453.7270 31.0156
  L 462.6470 30.9844
  A 0.45 0.45 0.0 0 0 463.0954 30.5329
  L 463.0846 27.4329
  Z"
/>
<path d="
  M 59.48 18.23
  L 69.93 18.60
  Q 76.58 21.22 82.18 25.60
  Q 89.08 33.45 90.29 43.50
  L 90.50 46.96
  Q 88.83 57.22 82.00 64.96
  Q 75.43 70.01 67.50 72.46
  L 64.91 72.89
  A 1.38 1.36 55.0 0 1 63.97 72.72
  Q 62.11 71.64 59.98 72.37
  Q 51.20 70.57 44.25 64.96
  Q 27.66 45.25 44.21 25.50
  Q 50.90 19.86 59.48 18.23
  Z
  M 86.53 45.19
  A 23.41 23.41 0.0 0 0 63.12 21.78
  A 23.41 23.41 0.0 0 0 39.71 45.19
  A 23.41 23.41 0.0 0 0 63.12 68.60
  A 23.41 23.41 0.0 0 0 86.53 45.19
  Z"
/>
</g>
<g fill="#626262">
<path d="
  M 136.19 7.38
  L 136.38 4.31
  A 0.60 0.60 0.0 0 1 136.98 3.75
  L 152.13 3.75
  A 0.63 0.62 -90.0 0 1 152.75 4.38
  L 152.74 7.00
  A 0.94 0.93 -2.3 0 0 153.75 7.93
  L 156.01 7.75
  A 0.64 0.63 -4.0 0 1 156.70 8.34
  L 156.89 11.22
  A 0.54 0.53 -5.1 0 1 156.41 11.78
  Q 152.80 12.22 149.23 11.91
  Q 147.73 11.78 148.41 9.56
  A 1.21 1.20 -81.4 0 0 147.26 8.00
  L 141.25 8.00
  A 0.50 0.50 0.0 0 0 140.75 8.50
  L 140.75 11.36
  A 0.56 0.56 0.0 0 1 140.21 11.92
  L 137.23 12.03
  A 0.50 0.49 -1.2 0 0 136.75 12.52
  L 136.75 27.37
  A 0.63 0.63 0.0 0 0 137.38 28.00
  L 140.25 28.00
  A 0.50 0.50 0.0 0 1 140.75 28.50
  L 140.75 31.37
  A 0.63 0.63 0.0 0 0 141.38 32.00
  L 147.49 32.00
  A 0.89 0.88 -1.8 0 0 148.38 31.06
  L 148.22 28.66
  A 0.62 0.62 0.0 0 1 148.84 28.00
  L 156.22 28.00
  A 0.49 0.49 0.0 0 1 156.71 28.47
  L 156.87 31.28
  A 0.66 0.66 0.0 0 1 156.22 31.97
  L 153.21 32.01
  A 0.50 0.50 0.0 0 0 152.72 32.54
  L 152.89 35.45
  A 0.53 0.52 -1.5 0 1 152.36 36.00
  L 136.88 36.00
  A 0.63 0.62 0.0 0 1 136.25 35.38
  L 136.24 32.62
  A 0.62 0.61 89.5 0 0 135.62 32.00
  L 132.88 32.00
  A 0.63 0.62 0.0 0 1 132.25 31.38
  L 132.25 28.50
  A 0.50 0.50 0.0 0 0 131.75 28.00
  L 128.88 28.00
  A 0.63 0.63 0.0 0 1 128.25 27.37
  L 128.25 12.65
  A 0.63 0.63 0.0 0 1 128.85 12.02
  L 131.71 11.92
  A 0.56 0.56 0.0 0 0 132.25 11.36
  L 132.25 8.58
  A 0.68 0.67 89.6 0 1 132.91 7.90
  L 135.68 7.87
  A 0.52 0.52 0.0 0 0 136.19 7.38
  Z"
/>
<path d="
  M 229.75 20.53
  L 229.75 31.47
  A 0.53 0.53 0.0 0 0 230.28 32.00
  L 235.95 32.00
  A 0.53 0.53 0.0 0 1 236.48 32.52
  L 236.51 35.46
  A 0.53 0.53 0.0 0 1 235.98 36.00
  L 226.53 36.00
  A 0.53 0.53 0.0 0 1 226.00 35.47
  L 226.00 32.53
  A 0.53 0.53 0.0 0 0 225.47 32.00
  L 223.28 32.00
  A 0.53 0.53 0.0 0 1 222.75 31.47
  L 222.75 20.53
  A 0.53 0.53 0.0 0 0 222.22 20.00
  L 219.78 20.00
  A 0.53 0.53 0.0 0 1 219.25 19.47
  L 219.25 16.53
  A 0.53 0.53 0.0 0 1 219.78 16.00
  L 222.22 16.00
  A 0.53 0.53 0.0 0 0 222.75 15.47
  L 222.75 4.28
  A 0.53 0.53 0.0 0 1 223.28 3.75
  L 229.22 3.75
  A 0.53 0.53 0.0 0 1 229.75 4.28
  L 229.75 15.47
  A 0.53 0.53 0.0 0 0 230.28 16.00
  L 235.98 16.00
  A 0.53 0.53 0.0 0 1 236.51 16.53
  L 236.50 19.47
  A 0.53 0.53 0.0 0 1 235.97 20.00
  L 230.28 20.00
  A 0.53 0.53 0.0 0 0 229.75 20.53
  Z"
/>
<path d="
  M 212.00 28.50
  L 212.00 31.50
  A 0.50 0.50 0.0 0 1 211.50 32.00
  L 196.50 32.00
  A 0.50 0.50 0.0 0 0 196.00 32.50
  L 196.00 40.50
  A 0.50 0.50 0.0 0 1 195.50 41.00
  L 188.00 41.00
  A 0.50 0.50 0.0 0 1 187.50 40.50
  L 187.50 9.50
  A 0.50 0.50 0.0 0 1 188.00 9.00
  L 195.50 9.00
  A 0.50 0.50 0.0 0 1 196.00 9.50
  L 196.00 11.50
  A 0.50 0.50 0.0 0 0 196.50 12.00
  L 211.50 12.00
  A 0.50 0.50 0.0 0 1 212.00 12.50
  L 212.00 15.50
  A 0.50 0.50 0.0 0 0 212.50 16.00
  L 215.50 16.00
  A 0.50 0.50 0.0 0 1 216.00 16.50
  L 216.00 27.50
  A 0.50 0.50 0.0 0 1 215.50 28.00
  L 212.50 28.00
  A 0.50 0.50 0.0 0 0 212.00 28.50
  Z
  M 207.5299 16.3101
  A 0.29 0.29 0.0 0 0 207.2404 16.0196
  L 196.2805 16.0004
  A 0.29 0.29 0.0 0 0 195.9900 16.2899
  L 195.9701 27.6899
  A 0.29 0.29 0.0 0 0 196.2596 27.9804
  L 207.2195 27.9996
  A 0.29 0.29 0.0 0 0 207.5100 27.7101
  L 207.5299 16.3101
  Z"
/>
<path d="
  M 274.60 16.63
  L 276.90 16.73
  A 0.63 0.63 0.0 0 0 277.56 16.05
  L 277.32 12.67
  A 0.63 0.63 0.0 0 1 277.95 12.00
  L 288.37 12.00
  A 0.63 0.63 0.0 0 1 289.00 12.63
  L 289.01 16.37
  A 0.63 0.63 0.0 0 1 288.38 17.00
  L 278.38 17.00
  A 0.63 0.63 0.0 0 0 277.75 17.63
  L 277.75 21.12
  A 0.63 0.63 0.0 0 1 277.12 21.75
  L 274.63 21.75
  A 0.63 0.63 0.0 0 0 274.00 22.38
  L 274.00 35.27
  A 0.63 0.63 0.0 0 1 273.38 35.90
  L 266.90 36.02
  A 0.63 0.63 0.0 0 1 266.26 35.39
  L 266.25 12.63
  A 0.63 0.63 0.0 0 1 266.88 12.00
  L 273.36 12.00
  A 0.63 0.63 0.0 0 1 273.99 12.63
  L 274.00 16.00
  A 0.63 0.63 0.0 0 0 274.60 16.63
  Z"
/>
<path d="
  M 351.87 31.00
  L 349.59 31.00
  A 0.59 0.59 0.0 0 1 349.00 30.41
  L 349.00 16.95
  A 0.59 0.59 0.0 0 1 349.63 16.36
  L 351.87 16.52
  A 0.59 0.59 0.0 0 0 352.50 15.93
  L 352.50 12.59
  A 0.59 0.59 0.0 0 1 353.09 12.00
  L 367.41 12.00
  A 0.59 0.59 0.0 0 1 368.00 12.59
  L 368.00 15.78
  A 0.59 0.59 0.0 0 0 368.58 16.37
  L 371.17 16.41
  A 0.59 0.59 0.0 0 1 371.75 17.00
  L 371.75 25.91
  A 0.59 0.59 0.0 0 1 371.16 26.50
  L 357.59 26.50
  A 0.59 0.59 0.0 0 0 357.00 27.09
  L 357.00 30.16
  A 0.59 0.59 0.0 0 0 357.59 30.75
  L 371.16 30.75
  A 0.59 0.59 0.0 0 1 371.75 31.34
  L 371.75 35.41
  A 0.59 0.59 0.0 0 1 371.16 36.00
  L 353.21 36.00
  A 0.59 0.59 0.0 0 1 352.62 35.43
  L 352.46 31.57
  A 0.59 0.59 0.0 0 0 351.87 31.00
  Z
  M 363.9682 17.3057
  A 0.33 0.33 0.0 0 0 363.6359 16.9780
  L 357.3160 17.0221
  A 0.33 0.33 0.0 0 0 356.9884 17.3544
  L 357.0118 20.7143
  A 0.33 0.33 0.0 0 0 357.3441 21.0420
  L 363.6640 20.9979
  A 0.33 0.33 0.0 0 0 363.9916 20.6656
  L 363.9682 17.3057
  Z"
/>
<path d="
  M 177.00 23.52
  L 177.00 20.48
  A 0.48 0.48 0.0 0 0 176.52 20.00
  L 164.20 20.00
  A 0.48 0.48 0.0 0 1 163.72 19.54
  L 163.57 16.50
  A 0.48 0.48 0.0 0 1 164.05 16.00
  L 180.39 16.00
  A 0.48 0.48 0.0 0 1 180.87 16.50
  L 180.73 19.50
  A 0.48 0.48 0.0 0 0 181.21 20.00
  L 183.52 20.00
  A 0.48 0.48 0.0 0 1 184.00 20.48
  L 184.00 35.52
  A 0.48 0.48 0.0 0 1 183.52 36.00
  L 164.02 36.00
  A 0.48 0.48 0.0 0 1 163.54 35.49
  L 163.73 32.51
  A 0.48 0.48 0.0 0 0 163.25 32.00
  L 160.62 32.00
  A 0.48 0.48 0.0 0 1 160.14 31.50
  L 160.28 28.47
  A 0.48 0.48 0.0 0 1 160.76 28.01
  L 163.31 28.00
  A 0.48 0.48 0.0 0 0 163.78 27.48
  L 163.53 24.52
  A 0.48 0.48 0.0 0 1 164.00 24.00
  L 176.52 24.00
  A 0.48 0.48 0.0 0 0 177.00 23.52
  Z
  M 177.0029 28.3285
  A 0.32 0.32 0.0 0 0 176.6835 28.0079
  L 167.5835 27.9921
  A 0.32 0.32 0.0 0 0 167.2629 28.3115
  L 167.2571 31.6715
  A 0.32 0.32 0.0 0 0 167.5765 31.9921
  L 176.6765 32.0079
  A 0.32 0.32 0.0 0 0 176.9971 31.6885
  L 177.0029 28.3285
  Z"
/>
<path d="
  M 241.55 32.00
  L 239.28 32.01
  A 0.53 0.53 0.0 0 1 238.75 31.48
  L 238.75 16.53
  A 0.53 0.53 0.0 0 1 239.28 16.00
  L 245.30 16.00
  A 0.53 0.53 0.0 0 1 245.83 16.53
  L 245.71 31.47
  A 0.53 0.53 0.0 0 0 246.24 32.00
  L 255.00 32.00
  A 0.53 0.53 0.0 0 0 255.53 31.47
  L 255.48 16.53
  A 0.53 0.53 0.0 0 1 256.01 16.00
  L 262.22 16.00
  A 0.53 0.53 0.0 0 1 262.75 16.53
  L 262.75 31.47
  A 0.53 0.53 0.0 0 1 262.22 32.00
  L 259.58 32.00
  A 0.53 0.53 0.0 0 0 259.05 32.58
  L 259.30 35.42
  A 0.53 0.53 0.0 0 1 258.77 36.00
  L 242.51 36.00
  A 0.53 0.53 0.0 0 1 241.98 35.45
  L 242.08 32.55
  A 0.53 0.53 0.0 0 0 241.55 32.00
  Z"
/>
<path d="
  M 305.00 23.52
  L 305.00 20.48
  A 0.48 0.48 0.0 0 0 304.52 20.00
  L 292.20 20.00
  A 0.48 0.48 0.0 0 1 291.72 19.54
  L 291.57 16.50
  A 0.48 0.48 0.0 0 1 292.05 16.00
  L 308.27 16.00
  A 0.48 0.48 0.0 0 1 308.75 16.48
  L 308.75 19.52
  A 0.48 0.48 0.0 0 0 309.23 20.00
  L 311.52 20.00
  A 0.48 0.48 0.0 0 1 312.00 20.48
  L 312.00 35.52
  A 0.48 0.48 0.0 0 1 311.52 36.00
  L 292.02 36.00
  A 0.48 0.48 0.0 0 1 291.54 35.49
  L 291.73 32.51
  A 0.48 0.48 0.0 0 0 291.25 32.00
  L 288.62 32.00
  A 0.48 0.48 0.0 0 1 288.14 31.50
  L 288.28 28.46
  A 0.48 0.48 0.0 0 1 288.76 28.00
  L 291.31 28.00
  A 0.48 0.48 0.0 0 0 291.78 27.48
  L 291.53 24.52
  A 0.48 0.48 0.0 0 1 292.00 24.00
  L 304.52 24.00
  A 0.48 0.48 0.0 0 0 305.00 23.52
  Z
  M 305.0029 28.3285
  A 0.32 0.32 0.0 0 0 304.6835 28.0079
  L 295.5835 27.9921
  A 0.32 0.32 0.0 0 0 295.2629 28.3115
  L 295.2571 31.6715
  A 0.32 0.32 0.0 0 0 295.5765 31.9921
  L 304.6765 32.0079
  A 0.32 0.32 0.0 0 0 304.9971 31.6885
  L 305.0029 28.3285
  Z"
/>
<path d="
  M 339.00 23.49
  L 339.00 16.51
  A 0.51 0.51 0.0 0 1 339.51 16.00
  L 345.49 16.00
  A 0.51 0.51 0.0 0 1 346.00 16.51
  L 346.00 35.49
  A 0.51 0.51 0.0 0 1 345.49 36.00
  L 326.05 36.00
  A 0.51 0.51 0.0 0 1 325.54 35.46
  L 325.73 32.54
  A 0.51 0.51 0.0 0 0 325.22 32.00
  L 322.65 32.00
  A 0.51 0.51 0.0 0 1 322.14 31.47
  L 322.28 28.49
  A 0.51 0.51 0.0 0 1 322.79 28.00
  L 325.26 28.00
  A 0.51 0.51 0.0 0 0 325.77 27.45
  L 325.57 24.55
  A 0.51 0.51 0.0 0 1 326.08 24.00
  L 338.49 24.00
  A 0.51 0.51 0.0 0 0 339.00 23.49
  Z
  M 339.0639 28.2429
  A 0.26 0.26 0.0 0 0 338.8030 27.9838
  L 329.5030 28.0162
  A 0.26 0.26 0.0 0 0 329.2440 28.2771
  L 329.2561 31.7571
  A 0.26 0.26 0.0 0 0 329.5170 32.0162
  L 338.8170 31.9838
  A 0.26 0.26 0.0 0 0 339.0760 31.7229
  L 339.0639 28.2429
  Z"
/>
</g>
<g fill="#d60f2a">
<path d="
  M 15.50 20.79
  L 18.71 21.00
  L 18.75 23.37
  A 0.63 0.63 0.0 0 1 18.12 24.00
  L 15.92 24.00
  A 0.68 0.68 0.0 0 1 15.25 23.41
  Q 15.08 22.02 15.50 20.79
  Z"
/>
<path d="
  M 26.21 21.25
  L 26.19 23.36
  A 0.67 0.67 0.0 0 1 25.48 24.03
  L 23.33 23.91
  A 0.51 0.51 0.0 0 1 22.85 23.36
  L 23.04 21.00
  Q 24.72 20.24 26.21 21.25
  Z"
/>
<path d="
  M 440.70 49.00
  L 447.80 49.00
  A 0.70 0.70 0.0 0 1 448.50 49.70
  L 448.51 52.29
  A 0.70 0.70 0.0 0 1 447.81 52.99
  L 445.26 53.00
  A 0.70 0.70 0.0 0 0 444.56 53.71
  L 444.62 56.17
  A 0.70 0.70 0.0 0 1 443.95 56.89
  L 440.88 57.05
  A 0.70 0.70 0.0 0 1 440.14 56.37
  L 440.00 49.72
  A 0.70 0.70 0.0 0 1 440.70 49.00
  Z"
/>
<rect x="-2.16" y="-1.99" transform="translate(451.59,51.00) rotate(0.7)" width="4.32" height="3.98" rx="0.33"/>
<rect x="-2.03" y="-1.99" transform="translate(457.03,51.00) rotate(-1.5)" width="4.06" height="3.98" rx="0.58"/>
<path d="
  M 468.33 49.48
  C 468.92 51.62 468.05 53.63 468.35 56.30
  A 0.61 0.60 86.5 0 1 467.76 56.97
  L 464.63 57.01
  A 0.63 0.62 89.6 0 1 464.00 56.38
  L 464.00 53.62
  A 0.63 0.62 -0.0 0 0 463.37 53.00
  L 460.63 53.00
  A 0.63 0.62 0.0 0 1 460.00 52.38
  L 460.00 49.62
  A 0.63 0.62 -0.0 0 1 460.63 49.00
  L 467.71 49.00
  A 0.65 0.64 82.3 0 1 468.33 49.48
  Z"
/>
<path d="
  M 440.25 58.29
  L 440.50 62.21
  L 132.92 62.26
  A 1.30 1.28 67.1 0 1 132.01 61.88
  L 129.18 59.06
  A 0.65 0.65 0.0 0 1 129.64 57.94
  L 440.25 58.29
  Z"
/>
<rect x="-2.11" y="-2.16" transform="translate(466.14,60.33) rotate(-0.9)" width="4.22" height="4.32" rx="0.66"/>
<path d="
  M 444.50 58.29
  C 449.35 58.20 453.26 56.94 456.31 61.65
  Q 456.60 62.10 456.07 62.11
  L 444.50 62.21
  L 444.50 58.29
  Z"
/>
<path d="
  M 444.25 63.54
  L 444.00 67.71
  L 440.75 67.71
  Q 439.92 65.79 440.50 63.79
  L 444.25 63.54
  Z"
/>
<rect x="-2.13" y="-2.10" transform="translate(466.13,65.85) rotate(1.4)" width="4.26" height="4.20" rx="0.58"/>
<path d="
  M 445.23 72.92
  L 447.79 73.04
  A 0.78 0.78 0.0 0 1 448.53 73.86
  L 448.38 76.51
  A 0.78 0.78 0.0 0 1 447.60 77.25
  L 440.75 77.25
  A 0.78 0.78 0.0 0 1 439.97 76.44
  L 440.19 69.79
  A 0.78 0.78 0.0 0 1 440.96 69.04
  L 443.82 68.99
  A 0.78 0.78 0.0 0 1 444.61 69.81
  L 444.48 72.10
  A 0.78 0.78 0.0 0 0 445.23 72.92
  Z"
/>
<path d="
  M 472.00 73.06
  L 472.00 76.81
  Q 470.49 77.43 468.84 77.35
  A 0.48 0.48 0.0 0 0 468.34 77.78
  L 467.94 81.00
  L 464.19 81.00
  L 463.84 77.52
  A 0.52 0.51 -4.1 0 0 463.30 77.06
  L 460.89 77.16
  A 0.73 0.72 88.1 0 1 460.14 76.45
  L 460.09 73.73
  A 0.64 0.64 0.0 0 1 460.70 73.08
  L 463.05 72.97
  A 1.02 1.02 0.0 0 0 464.02 71.94
  L 463.99 69.69
  A 0.51 0.51 0.0 0 1 464.49 69.18
  L 467.67 69.10
  A 0.57 0.57 0.0 0 1 468.25 69.67
  L 468.25 72.28
  A 0.50 0.50 0.0 0 0 468.71 72.78
  L 472.00 73.06
  Z"
/>
<rect x="-2.15" y="-1.99" transform="translate(451.61,75.00) rotate(0.6)" width="4.30" height="3.98" rx="0.31"/>
<rect x="-2.12" y="-2.01" transform="translate(457.11,75.00) rotate(-0.9)" width="4.24" height="4.02" rx="0.69"/>
</g>
<g fill="#b7aba9">
<path d="
  M 55.06 0.00
  L 56.81 0.00
  Q 58.30 1.07 57.93 2.77
  A 0.46 0.46 0.0 0 0 58.35 3.32
  L 61.71 3.50
  L 61.97 5.56
  A 0.72 0.72 0.0 0 0 62.68 6.19
  L 65.02 6.19
  A 0.81 0.81 0.0 0 0 65.80 5.59
  L 66.29 3.75
  L 68.21 3.25
  Q 70.51 4.91 72.21 3.00
  L 72.27 3.26
  A 0.23 0.22 83.6 0 0 72.49 3.44
  L 90.00 3.46
  Q 97.40 4.34 104.79 3.50
  Q 106.31 3.28 107.65 3.87
  A 0.87 0.86 -80.2 0 1 108.15 4.59
  L 108.29 6.45
  A 0.71 0.71 0.0 0 0 108.93 7.10
  L 110.60 7.27
  A 1.64 1.63 2.9 0 1 112.07 8.89
  L 112.09 14.28
  Q 111.27 18.12 112.00 22.04
  L 111.96 25.17
  L 82.18 25.60
  Q 76.58 21.22 69.93 18.60
  Q 73.07 17.97 77.36 18.39
  Q 79.28 18.58 79.27 16.65
  L 79.23 7.92
  A 0.61 0.61 0.0 0 0 78.62 7.31
  L 54.75 7.34
  A 0.63 0.63 0.0 0 0 54.12 7.92
  L 53.89 10.46
  A 0.56 0.56 0.0 0 1 53.37 10.97
  L 51.03 11.09
  A 0.56 0.56 0.0 0 0 50.50 11.65
  L 50.50 13.67
  A 0.79 0.79 0.0 0 1 49.83 14.45
  L 47.51 14.78
  A 0.66 0.65 -7.5 0 0 46.94 15.51
  L 47.21 17.65
  A 0.69 0.69 0.0 0 0 47.89 18.25
  L 59.48 18.23
  Q 50.90 19.86 44.21 25.50
  L 30.81 25.32
  A 1.01 1.01 0.0 0 0 30.00 25.70
  L 29.54 26.25
  L 29.76 22.12
  Q 29.88 20.01 27.83 20.49
  Q 26.90 20.71 26.21 21.25
  Q 24.72 20.24 23.04 21.00
  Q 20.84 19.84 18.71 21.00
  L 15.50 20.79
  Q 14.02 20.46 12.70 20.96
  A 0.88 0.86 85.3 0 0 12.15 21.62
  L 11.50 25.21
  L 7.29 25.50
  L 6.92 22.36
  A 0.44 0.42 0.1 0 0 6.54 21.99
  L 6.25 21.96
  L 6.71 21.78
  A 0.74 0.73 -10.0 0 0 7.17 21.13
  L 7.29 18.25
  Q 22.14 18.03 37.01 18.24
  Q 40.21 18.28 39.81 15.07
  A 0.45 0.44 88.9 0 1 40.29 14.57
  Q 43.62 14.89 42.95 11.50
  A 0.48 0.48 0.0 0 1 43.52 10.94
  Q 47.17 11.65 46.99 8.11
  A 0.54 0.54 0.0 0 1 47.42 7.56
  L 49.79 7.12
  A 0.67 0.66 86.7 0 0 50.34 6.50
  L 50.50 3.79
  L 53.40 3.58
  A 0.51 0.50 84.1 0 0 53.86 3.01
  Q 53.60 1.10 55.06 0.00
  Z
  M 104.5111 8.2488
  A 0.80 0.80 0.0 0 0 103.7125 7.4474
  L 83.7325 7.4126
  A 0.80 0.80 0.0 0 0 82.9311 8.2112
  L 82.9089 20.9312
  A 0.80 0.80 0.0 0 0 83.7075 21.7326
  L 103.6875 21.7674
  A 0.80 0.80 0.0 0 0 104.4889 20.9688
  L 104.5111 8.2488
  Z"
/>
<path d="
  M 47.25 3.79
  Q 47.36 5.44 46.54 6.82
  A 0.92 0.90 -74.9 0 1 45.78 7.27
  Q 42.57 7.36 43.31 10.47
  A 0.49 0.49 0.0 0 1 42.77 11.07
  Q 39.57 10.67 39.75 13.69
  A 0.63 0.63 0.0 0 1 39.28 14.35
  C 36.05 15.22 32.37 14.44 29.91 14.51
  Q 18.48 14.82 7.04 14.50
  L 6.96 14.25
  L 7.18 11.63
  A 0.69 0.68 2.2 0 1 7.87 11.00
  L 9.84 11.00
  A 0.74 0.74 0.0 0 0 10.57 10.36
  L 10.84 8.29
  A 0.94 0.93 79.2 0 1 11.31 7.59
  Q 12.50 6.91 14.00 7.21
  Q 21.50 7.78 29.00 7.21
  Q 30.44 7.52 31.85 7.01
  A 0.59 0.59 0.0 0 0 32.22 6.34
  Q 31.57 3.41 34.31 3.53
  Q 40.78 3.79 47.25 3.79
  Z"
/>
<path d="
  M 7.04 65.00
  L 44.25 64.96
  Q 51.20 70.57 59.98 72.37
  Q 36.71 72.24 13.39 72.55
  C 11.47 72.58 10.28 71.76 10.68 69.71
  A 0.57 0.56 9.5 0 0 10.20 69.04
  L 8.24 68.79
  A 1.01 0.98 78.2 0 1 7.50 68.29
  Q 6.66 66.82 7.04 65.00
  Z"
/>
<path d="
  M 82.00 64.96
  L 111.96 65.00
  Q 112.38 66.82 111.54 68.28
  A 0.93 0.90 13.5 0 1 110.78 68.73
  C 109.25 68.76 107.55 68.80 108.23 71.04
  A 1.24 1.23 81.8 0 1 107.04 72.63
  L 67.50 72.46
  Q 75.43 70.01 82.00 64.96
  Z"
/>
</g>
<g fill="#1b1318">
<path d="
  M 19.56 0.00
  L 24.06 0.00
  C 25.89 0.68 24.92 2.45 25.75 3.71
  L 18.00 3.71
  Q 17.25 1.01 19.56 0.00
  Z"
/>
<path d="
  M 86.53 45.19
  A 23.41 23.41 0.0 0 1 63.12 68.60
  A 23.41 23.41 0.0 0 1 39.71 45.19
  A 23.41 23.41 0.0 0 1 63.12 21.78
  A 23.41 23.41 0.0 0 1 86.53 45.19
  Z
  M 79.27 45.21
  A 16.16 16.16 0.0 0 0 63.11 29.05
  A 16.16 16.16 0.0 0 0 46.95 45.21
  A 16.16 16.16 0.0 0 0 63.11 61.37
  A 16.16 16.16 0.0 0 0 79.27 45.21
  Z"
/>
<circle cx="63.11" cy="45.23" r="12.48"/>
</g>
<g fill="#e5e2e1">
<path d="
  M 23.04 21.00
  L 22.85 23.36
  A 0.51 0.51 0.0 0 0 23.33 23.91
  L 25.48 24.03
  A 0.67 0.67 0.0 0 0 26.19 23.36
  L 26.21 21.25
  Q 26.90 20.71 27.83 20.49
  Q 29.88 20.01 29.76 22.12
  L 29.54 26.25
  Q 29.55 28.09 27.18 27.94
  Q 23.57 27.72 12.84 27.73
  A 0.67 0.66 -9.1 0 1 12.21 27.28
  L 11.50 25.21
  L 12.15 21.62
  A 0.88 0.86 85.3 0 1 12.70 20.96
  Q 14.02 20.46 15.50 20.79
  Q 15.08 22.02 15.25 23.41
  A 0.68 0.68 0.0 0 0 15.92 24.00
  L 18.12 24.00
  A 0.63 0.63 0.0 0 0 18.75 23.37
  L 18.71 21.00
  Q 20.84 19.84 23.04 21.00
  Z"
/>
<path d="
  M 440.25 58.29
  L 444.50 58.29
  L 444.50 62.21
  L 440.50 62.21
  L 440.25 58.29
  Z"
/>
<path d="
  M 440.50 63.79
  Q 439.92 65.79 440.75 67.71
  Q 290.39 67.69 140.02 67.88
  C 137.02 67.88 135.37 66.61 134.24 64.04
  A 0.34 0.33 -11.9 0 1 134.55 63.57
  L 440.50 63.79
  Z"
/>
<path d="
  M 444.25 63.54
  L 457.53 63.72
  A 1.52 1.49 -22.7 0 1 458.53 64.12
  L 461.60 67.01
  Q 462.32 67.68 461.33 67.68
  L 444.00 67.71
  L 444.25 63.54
  Z"
/>
</g>
<path fill="#3c3041" d="
  M 79.27 45.21
  A 16.16 16.16 0.0 0 1 63.11 61.37
  A 16.16 16.16 0.0 0 1 46.95 45.21
  A 16.16 16.16 0.0 0 1 63.11 29.05
  A 16.16 16.16 0.0 0 1 79.27 45.21
  Z
  M 75.59 45.23
  A 12.48 12.48 0.0 0 0 63.11 32.75
  A 12.48 12.48 0.0 0 0 50.63 45.23
  A 12.48 12.48 0.0 0 0 63.11 57.71
  A 12.48 12.48 0.0 0 0 75.59 45.23
  Z"
/>
<g fill="#a19795">
<path d="
  M 47.25 3.79
  L 50.50 3.79
  L 50.34 6.50
  A 0.67 0.66 86.7 0 1 49.79 7.12
  L 47.42 7.56
  A 0.54 0.54 0.0 0 0 46.99 8.11
  Q 47.17 11.65 43.52 10.94
  A 0.48 0.48 0.0 0 0 42.95 11.50
  Q 43.62 14.89 40.29 14.57
  A 0.45 0.44 88.9 0 0 39.81 15.07
  Q 40.21 18.28 37.01 18.24
  Q 22.14 18.03 7.29 18.25
  L 7.04 14.50
  Q 18.48 14.82 29.91 14.51
  C 32.37 14.44 36.05 15.22 39.28 14.35
  A 0.63 0.63 0.0 0 0 39.75 13.69
  Q 39.57 10.67 42.77 11.07
  A 0.49 0.49 0.0 0 0 43.31 10.47
  Q 42.57 7.36 45.78 7.27
  A 0.92 0.90 -74.9 0 0 46.54 6.82
  Q 47.36 5.44 47.25 3.79
  Z"
/>
<path d="
  M 138.00 52.33
  L 138.01 50.60
  A 0.81 0.81 0.0 0 0 137.28 49.79
  L 136.53 49.72
  A 0.59 0.59 0.0 0 1 136.00 49.02
  L 136.18 48.09
  A 0.73 0.72 5.2 0 1 136.90 47.50
  L 141.20 47.50
  A 0.66 0.65 -0.4 0 1 141.86 48.14
  L 141.94 54.37
  A 0.63 0.63 0.0 0 1 141.31 55.01
  L 133.50 55.00
  A 1.30 1.26 -21.3 0 1 132.62 54.63
  L 129.15 51.19
  A 1.41 1.40 23.0 0 1 128.75 50.21
  L 128.75 46.72
  A 0.69 0.68 86.2 0 1 129.34 46.04
  Q 130.47 45.88 130.52 44.81
  A 0.69 0.68 88.1 0 1 131.13 44.15
  Q 132.58 44.00 132.52 42.63
  A 0.63 0.62 -1.3 0 1 133.16 41.97
  L 141.16 42.08
  A 0.75 0.75 0.0 0 1 141.90 42.84
  L 141.90 43.59
  A 0.68 0.67 0.4 0 1 141.22 44.25
  L 134.71 44.25
  Q 134.18 44.25 134.46 44.70
  L 134.63 44.98
  A 0.35 0.34 62.1 0 1 134.48 45.48
  Q 131.70 46.74 132.84 50.49
  Q 133.03 51.10 133.70 51.24
  A 0.89 0.88 84.4 0 1 134.36 51.79
  Q 135.16 53.76 137.63 52.85
  A 0.57 0.55 -10.8 0 0 138.00 52.33
  Z"
/>
<path d="
  M 161.46 45.05
  A 0.36 0.36 0.0 0 0 161.26 44.73
  Q 160.08 44.18 159.43 43.11
  A 0.66 0.66 0.0 0 1 159.98 42.12
  L 164.78 42.02
  A 0.70 0.70 0.0 0 1 165.50 42.72
  L 165.50 54.38
  A 0.62 0.62 0.0 0 1 164.88 55.00
  L 162.10 55.01
  A 0.66 0.66 0.0 0 1 161.44 54.35
  L 161.46 45.05
  Z"
/>
<path d="
  M 146.03 53.61
  Q 144.71 53.42 145.05 51.82
  A 0.82 0.82 0.0 0 1 145.77 51.17
  Q 147.20 51.02 147.19 49.42
  A 0.54 0.53 -80.2 0 1 147.91 48.91
  Q 150.04 49.69 152.11 48.87
  Q 154.11 48.08 151.96 48.05
  L 145.48 47.97
  A 0.48 0.48 0.0 0 1 145.00 47.48
  L 145.00 46.37
  A 0.63 0.62 -0.0 0 1 145.63 45.75
  L 153.56 45.75
  A 1.23 1.21 -21.4 0 1 154.45 46.13
  L 156.10 47.83
  A 1.41 1.40 23.0 0 1 156.50 48.81
  L 156.50 54.38
  A 0.63 0.62 -0.0 0 1 155.87 55.00
  L 147.99 55.00
  A 1.01 1.00 -18.9 0 1 147.20 54.62
  L 146.73 54.01
  A 1.09 1.09 0.0 0 0 146.03 53.61
  Z
  M 149.27 51.83
  A 0.54 0.53 -42.9 0 0 149.23 52.86
  Q 150.64 53.30 151.96 52.73
  Q 152.85 52.35 151.95 52.00
  Q 150.66 51.50 149.27 51.83
  Z"
/>
<rect x="199.00" y="45.74" width="4.50" height="9.50" rx="1.07"/>
<path d="
  M 170.48 46.99
  L 170.63 46.54
  A 0.81 0.80 -80.3 0 1 171.39 46.00
  L 177.29 46.00
  A 0.76 0.75 -8.2 0 1 178.02 46.54
  Q 178.34 47.59 179.50 47.80
  A 0.64 0.64 0.0 0 1 180.02 48.45
  L 179.92 51.03
  A 0.63 0.63 0.0 0 1 179.29 51.64
  L 173.36 51.70
  A 0.62 0.62 0.0 0 0 172.75 52.33
  C 172.76 53.29 178.38 53.07 179.46 53.23
  A 0.64 0.63 -85.8 0 1 180.00 53.86
  L 180.00 54.37
  A 0.63 0.63 0.0 0 1 179.37 55.00
  L 171.78 55.00
  A 1.14 1.12 -22.3 0 1 170.98 54.67
  L 169.33 53.02
  A 1.14 1.12 -67.7 0 1 169.00 52.22
  L 169.00 48.39
  A 0.81 0.80 -9.7 0 1 169.54 47.63
  L 169.99 47.48
  A 0.82 0.82 0.0 0 0 170.48 46.99
  Z
  M 174.85 47.58
  Q 172.77 47.81 172.73 48.56
  A 1.06 1.06 0.0 0 0 173.90 49.67
  Q 175.98 49.44 176.02 48.69
  A 1.06 1.06 0.0 0 0 174.85 47.58
  Z"
/>
<path d="
  M 188.32 47.61
  L 189.05 46.41
  A 0.84 0.83 15.0 0 1 189.77 46.00
  L 193.88 46.00
  A 0.83 0.83 0.0 0 1 194.71 46.69
  L 194.78 47.10
  A 0.67 0.66 -6.1 0 1 194.15 47.87
  L 189.61 48.06
  A 0.62 0.62 0.0 0 0 189.01 48.68
  Q 189.00 49.83 187.77 49.88
  A 0.54 0.54 0.0 0 0 187.25 50.42
  L 187.25 54.38
  A 0.62 0.62 0.0 0 1 186.63 55.00
  L 183.88 55.00
  A 0.63 0.63 0.0 0 1 183.25 54.37
  L 183.25 46.50
  A 0.50 0.50 0.0 0 1 183.75 46.00
  L 186.63 46.00
  A 0.59 0.58 80.0 0 1 187.18 46.39
  L 187.59 47.54
  Q 187.87 48.35 188.32 47.61
  Z"
/>
<path d="
  M 218.42 47.69
  L 218.68 47.74
  A 0.72 0.71 6.0 0 1 219.25 48.44
  L 219.25 54.37
  A 0.63 0.63 0.0 0 1 218.62 55.00
  L 210.63 55.00
  A 0.64 0.63 -89.6 0 1 210.00 54.35
  Q 210.04 52.99 208.55 53.25
  A 0.47 0.47 0.0 0 1 208.00 52.80
  L 207.99 51.84
  A 0.59 0.58 2.6 0 1 208.64 51.25
  Q 210.18 51.43 210.22 49.95
  A 0.61 0.61 0.0 0 1 210.82 49.35
  L 214.70 49.27
  A 0.68 0.68 0.0 0 0 215.36 48.50
  C 215.27 47.73 209.72 47.98 208.82 47.97
  A 0.73 0.72 -2.2 0 1 208.11 47.32
  L 208.04 46.68
  A 0.61 0.61 0.0 0 1 208.65 46.00
  L 216.72 46.00
  A 0.87 0.86 76.5 0 1 217.49 46.48
  L 217.88 47.27
  A 0.78 0.75 81.7 0 0 218.42 47.69
  Z
  M 213.46 51.62
  Q 212.63 51.33 211.98 52.00
  A 0.57 0.57 0.0 0 0 212.41 52.96
  L 214.95 52.87
  Q 216.13 52.84 215.29 52.00
  Q 214.72 51.42 214.03 51.63
  A 0.92 0.88 -43.0 0 1 213.46 51.62
  Z"
/>
</g>
<g fill="#0e090c">
<path d="
  M 69.93 18.60
  L 59.48 18.23
  L 47.89 18.25
  A 0.69 0.69 0.0 0 1 47.21 17.65
  L 46.94 15.51
  A 0.66 0.65 -7.5 0 1 47.51 14.78
  L 49.83 14.45
  A 0.79 0.79 0.0 0 0 50.50 13.67
  L 50.50 11.65
  A 0.56 0.56 0.0 0 1 51.03 11.09
  L 53.37 10.97
  A 0.56 0.56 0.0 0 0 53.89 10.46
  L 54.12 7.92
  A 0.63 0.63 0.0 0 1 54.75 7.34
  L 78.62 7.31
  A 0.61 0.61 0.0 0 1 79.23 7.92
  L 79.27 16.65
  Q 79.28 18.58 77.36 18.39
  Q 73.07 17.97 69.93 18.60
  Z"
/>
<path d="
  M 104.4889 20.9688
  A 0.80 0.80 0.0 0 1 103.6875 21.7674
  L 83.7075 21.7326
  A 0.80 0.80 0.0 0 1 82.9089 20.9312
  L 82.9311 8.2112
  A 0.80 0.80 0.0 0 1 83.7325 7.4126
  L 103.7125 7.4474
  A 0.80 0.80 0.0 0 1 104.5111 8.2488
  L 104.4889 20.9688
  Z
  M 93.6630 12.5277
  A 1.47 1.47 0.0 0 0 92.1879 11.0628
  L 88.0479 11.0772
  A 1.47 1.47 0.0 0 0 86.5831 12.5524
  L 86.5970 16.5323
  A 1.47 1.47 0.0 0 0 88.0721 17.9972
  L 92.2121 17.9828
  A 1.47 1.47 0.0 0 0 93.6769 16.5076
  L 93.6630 12.5277
  Z"
/>
</g>
<g fill="#c4c3c3">
<path d="
  M 69.56 0.00
  L 71.56 0.00
  Q 72.55 1.33 72.21 3.00
  Q 70.51 4.91 68.21 3.25
  Q 67.82 1.09 69.56 0.00
  Z"
/>
<path d="
  M 91.56 0.00
  L 103.81 0.00
  Q 105.21 1.37 104.79 3.50
  Q 97.40 4.34 90.00 3.46
  Q 89.51 1.06 91.56 0.00
  Z"
/>
<path d="
  M 18.00 3.71
  L 25.75 3.71
  L 27.96 4.00
  A 0.93 0.93 0.0 0 1 28.68 4.54
  Q 29.23 5.77 29.00 7.21
  Q 21.50 7.78 14.00 7.21
  Q 13.94 3.15 18.00 3.71
  Z"
/>
<path d="
  M 6.96 14.25
  L 7.04 14.50
  L 7.29 18.25
  L 7.17 21.13
  A 0.74 0.73 -10.0 0 1 6.71 21.78
  L 6.25 21.96
  Q 4.89 22.32 4.06 21.58
  A 1.33 1.30 17.0 0 1 3.63 20.79
  L 3.34 18.92
  A 0.67 0.66 -7.5 0 0 2.60 18.36
  Q 1.01 18.55 0.00 17.44
  L 0.00 15.19
  Q 3.27 13.66 6.96 14.25
  Z"
/>
<path d="
  M 112.09 14.28
  L 118.11 14.40
  A 0.76 0.75 -0.4 0 1 118.85 15.12
  L 118.96 17.51
  A 0.69 0.69 0.0 0 1 118.29 18.23
  L 116.37 18.29
  A 0.73 0.73 0.0 0 0 115.67 18.93
  L 115.44 20.91
  A 1.00 1.00 0.0 0 1 114.93 21.65
  Q 113.66 22.34 112.00 22.04
  Q 111.27 18.12 112.09 14.28
  Z"
/>
<path d="
  M 90.29 43.50
  L 92.67 43.52
  A 0.80 0.79 83.6 0 1 93.44 44.14
  L 93.79 45.82
  A 0.76 0.74 71.5 0 1 93.39 46.65
  Q 92.07 47.29 90.50 46.96
  L 90.29 43.50
  Z"
/>
</g>
</svg>
