<?xml version="1.0" encoding="UTF-8" standalone="no"?>
<!DOCTYPE svg PUBLIC "-//W3C//DTD SVG 1.1//EN" "http://www.w3.org/Graphics/SVG/1.1/DTD/svg11.dtd">
<svg xmlns="http://www.w3.org/2000/svg" version="1.1" viewBox="0 0 472 81">
<g stroke-width="2.00" fill="none" stroke-linecap="butt">
<path stroke="#706b6e" vector-effect="non-scaling-stroke" d="
  M 25.75 3.71
  L 18.00 3.71"
/>
<path stroke="#dad4d2" vector-effect="non-scaling-stroke" d="
  M 61.71 3.50
  L 61.97 5.56
  A 0.72 0.72 0.0 0 0 62.68 6.19
  L 65.02 6.19
  A 0.81 0.81 0.0 0 0 65.80 5.59
  L 66.29 3.75"
/>
<path stroke="#beb7b6" vector-effect="non-scaling-stroke" d="
  M 68.21 3.25
  Q 70.51 4.91 72.21 3.00"
/>
<path stroke="#beb7b6" vector-effect="non-scaling-stroke" d="
  M 90.00 3.46
  Q 97.40 4.34 104.79 3.50"
/>
<path stroke="#beb7b6" vector-effect="non-scaling-stroke" d="
  M 112.25 14.29
  Q 110.96 18.11 112.25 21.96"
/>
<path stroke="#716765" vector-effect="non-scaling-stroke" d="
  M 111.96 25.17
  L 82.18 25.60"
/>
<path stroke="#dad4d2" vector-effect="non-scaling-stroke" d="
  M 82.18 25.60
  Q 76.58 21.22 69.93 18.60"
/>
<path stroke="#5c5655" vector-effect="non-scaling-stroke" d="
  M 69.93 18.60
  Q 73.07 17.97 77.36 18.39
  Q 79.28 18.58 79.27 16.65
  L 79.23 7.92
  A 0.61 0.61 0.0 0 0 78.62 7.31
  L 54.75 7.34
  A 0.63 0.63 0.0 0 0 54.12 7.92
  L 53.89 10.46
  A 0.56 0.56 0.0 0 1 53.37 10.97
  L 51.03 11.09
  A 0.56 0.56 0.0 0 0 50.50 11.65
  L 50.50 13.67
  A 0.79 0.79 0.0 0 1 49.83 14.45
  L 47.51 14.78
  A 0.66 0.65 -7.5 0 0 46.94 15.51
  L 47.21 17.65
  A 0.69 0.69 0.0 0 0 47.89 18.25
  L 59.48 18.23"
/>
<path stroke="#dad4d2" vector-effect="non-scaling-stroke" d="
  M 59.48 18.23
  Q 50.90 19.86 44.21 25.50"
/>
<path stroke="#716765" vector-effect="non-scaling-stroke" d="
  M 44.21 25.50
  L 30.81 25.32
  A 1.01 1.01 0.0 0 0 30.00 25.70
  L 29.54 26.25"
/>
<path stroke="#cec7c5" vector-effect="non-scaling-stroke" d="
  M 29.54 26.25
  L 29.76 22.12
  Q 29.88 20.01 27.83 20.49
  Q 26.90 20.71 26.21 21.25"
/>
<path stroke="#c75d6a" vector-effect="non-scaling-stroke" d="
  M 26.21 21.25
  Q 24.72 20.24 23.04 21.00"
/>
<path stroke="#cec7c5" vector-effect="non-scaling-stroke" d="
  M 23.04 21.00
  Q 20.84 19.84 18.71 21.00"
/>
<path stroke="#c75d6a" vector-effect="non-scaling-stroke" d="
  M 18.71 21.00
  L 15.50 20.79"
/>
<path stroke="#cec7c5" vector-effect="non-scaling-stroke" d="
  M 15.50 20.79
  Q 14.02 20.46 12.70 20.96
  A 0.88 0.86 85.3 0 0 12.15 21.62
  L 11.50 25.21"
/>
<path stroke="#716765" vector-effect="non-scaling-stroke" d="
  M 11.50 25.21
  L 7.29 25.50"
/>
<path stroke="#beb7b6" vector-effect="non-scaling-stroke" d="
  M 6.25 21.96
  L 6.71 21.78
  A 0.74 0.73 -10.0 0 0 7.17 21.13
  L 7.29 18.25"
/>
<path stroke="#aca19f" vector-effect="non-scaling-stroke" d="
  M 7.29 18.25
  Q 22.14 18.03 37.01 18.24
  Q 40.21 18.28 39.81 15.07
  A 0.45 0.44 88.9 0 1 40.29 14.57
  Q 43.62 14.89 42.95 11.50
  A 0.48 0.48 0.0 0 1 43.52 10.94
  Q 47.17 11.65 46.99 8.11
  A 0.54 0.54 0.0 0 1 47.42 7.56
  L 49.79 7.12
  A 0.67 0.66 86.7 0 0 50.34 6.50
  L 50.50 3.79"
/>
<path stroke="#5c5655" vector-effect="non-scaling-stroke" d="
  M 104.5111 8.2488
  A 0.80 0.80 0.0 0 0 103.7125 7.4474
  L 83.7325 7.4126
  A 0.80 0.80 0.0 0 0 82.9311 8.2112
  L 82.9089 20.9312
  A 0.80 0.80 0.0 0 0 83.7075 21.7326
  L 103.6875 21.7674
  A 0.80 0.80 0.0 0 0 104.4889 20.9688
  L 104.5111 8.2488"
/>
<path stroke="#de7986" vector-effect="non-scaling-stroke" d="
  M 440.25 58.29
  L 440.50 62.21"
/>
<path stroke="#de7986" vector-effect="non-scaling-stroke" d="
  M 444.50 58.29
  L 444.50 62.21"
/>
<path stroke="#de7986" vector-effect="non-scaling-stroke" d="
  M 440.25 63.71
  Q 440.08 65.77 440.75 67.71"
/>
<path stroke="#de7986" vector-effect="non-scaling-stroke" d="
  M 444.25 63.54
  Q 444.55 65.67 444.00 67.71"
/>
<path stroke="#aca19f" vector-effect="non-scaling-stroke" d="
  M 47.25 3.79
  Q 47.36 5.44 46.54 6.82
  A 0.92 0.90 -74.9 0 1 45.78 7.27
  Q 42.57 7.36 43.31 10.47
  A 0.49 0.49 0.0 0 1 42.77 11.07
  Q 39.57 10.67 39.75 13.69
  A 0.63 0.63 0.0 0 1 39.28 14.35
  C 36.05 15.22 32.37 14.44 29.91 14.51
  Q 18.48 14.82 7.04 14.50"
/>
<path stroke="#beb7b6" vector-effect="non-scaling-stroke" d="
  M 7.04 14.50
  L 6.96 14.25"
/>
<path stroke="#beb7b6" vector-effect="non-scaling-stroke" d="
  M 14.00 7.21
  Q 21.50 7.78 29.00 7.21"
/>
<path stroke="#b3adac" vector-effect="non-scaling-stroke" d="
  M 7.29 18.25
  L 7.04 14.50"
/>
<path stroke="#7f7f7d" vector-effect="non-scaling-stroke" d="
  M 69.93 18.60
  L 59.48 18.23"
/>
<path stroke="#7f7f7d" vector-effect="non-scaling-stroke" d="
  M 93.6630 12.5277
  A 1.47 1.47 0.0 0 0 92.1879 11.0628
  L 88.0479 11.0772
  A 1.47 1.47 0.0 0 0 86.5831 12.5524
  L 86.5970 16.5323
  A 1.47 1.47 0.0 0 0 88.0721 17.9972
  L 92.2121 17.9828
  A 1.47 1.47 0.0 0 0 93.6769 16.5076
  L 93.6630 12.5277"
/>
<path stroke="#94908e" vector-effect="non-scaling-stroke" d="
  M 82.18 25.60
  Q 89.08 33.45 90.29 43.50"
/>
<path stroke="#e1e0df" vector-effect="non-scaling-stroke" d="
  M 90.29 43.50
  L 90.50 46.96"
/>
<path stroke="#94908e" vector-effect="non-scaling-stroke" d="
  M 90.50 46.96
  Q 88.83 57.22 82.00 64.96"
/>
<path stroke="#dad4d2" vector-effect="non-scaling-stroke" d="
  M 82.00 64.96
  Q 75.43 70.01 67.50 72.46"
/>
<path stroke="#dad4d2" vector-effect="non-scaling-stroke" d="
  M 59.98 72.37
  Q 51.20 70.57 44.25 64.96"
/>
<path stroke="#94908e" vector-effect="non-scaling-stroke" d="
  M 44.25 64.96
  Q 27.66 45.25 44.21 25.50"
/>
<path stroke="#8c8889" vector-effect="non-scaling-stroke" d="
  M 86.53 45.19
  A 23.41 23.41 0.0 0 0 63.12 21.78
  A 23.41 23.41 0.0 0 0 39.71 45.19
  A 23.41 23.41 0.0 0 0 63.12 68.60
  A 23.41 23.41 0.0 0 0 86.53 45.19"
/>
<path stroke="#de7986" vector-effect="non-scaling-stroke" d="
  M 23.04 21.00
  L 22.85 23.36
  A 0.51 0.51 0.0 0 0 23.33 23.91
  L 25.48 24.03
  A 0.67 0.67 0.0 0 0 26.19 23.36
  L 26.21 21.25"
/>
<path stroke="#888381" vector-effect="non-scaling-stroke" d="
  M 29.54 26.25
  Q 29.55 28.09 27.18 27.94
  Q 23.57 27.72 12.84 27.73
  A 0.67 0.66 -9.1 0 1 12.21 27.28
  L 11.50 25.21"
/>
<path stroke="#de7986" vector-effect="non-scaling-stroke" d="
  M 15.50 20.79
  Q 15.08 22.02 15.25 23.41
  A 0.68 0.68 0.0 0 0 15.92 24.00
  L 18.12 24.00
  A 0.63 0.63 0.0 0 0 18.75 23.37
  L 18.71 21.00"
/>
<path stroke="#2c222d" vector-effect="non-scaling-stroke" d="
  M 79.27 45.21
  A 16.16 16.16 0.0 0 0 63.11 29.05
  A 16.16 16.16 0.0 0 0 46.95 45.21
  A 16.16 16.16 0.0 0 0 63.11 61.37
  A 16.16 16.16 0.0 0 0 79.27 45.21"
/>
<path stroke="#716765" vector-effect="non-scaling-stroke" d="
  M 111.96 65.00
  L 82.00 64.96"
/>
<path stroke="#787372" vector-effect="non-scaling-stroke" d="
  M 90.50 46.96
  Q 92.07 47.29 93.39 46.65
  A 0.76 0.74 71.5 0 0 93.79 45.82
  L 93.44 44.14
  A 0.80 0.79 83.6 0 0 92.67 43.52
  L 90.29 43.50"
/>
<path stroke="#716765" vector-effect="non-scaling-stroke" d="
  M 44.25 64.96
  L 7.04 65.00"
/>
<path stroke="#2c222d" vector-effect="non-scaling-stroke" d="
  M 75.59 45.23
  A 12.48 12.48 0.0 0 0 63.11 32.75
  A 12.48 12.48 0.0 0 0 50.63 45.23
  A 12.48 12.48 0.0 0 0 63.11 57.71
  A 12.48 12.48 0.0 0 0 75.59 45.23"
/>
</g>
<g fill="#2b2321">
<path d="
  M 136.25 7.36
  L 136.24 5.01
  A 1.22 1.22 0.0 0 1 137.44 3.78
  Q 144.64 3.72 151.75 3.75
  Q 152.93 3.76 152.55 7.00
  A 0.91 0.91 0.0 0 0 153.56 8.01
  L 155.89 7.72
  A 0.74 0.73 -5.6 0 1 156.71 8.39
  L 156.91 11.27
  A 0.53 0.52 85.6 0 1 156.43 11.84
  Q 152.77 12.15 149.24 11.88
  Q 147.73 11.76 148.41 9.54
  A 1.20 1.20 0.0 0 0 147.26 7.99
  L 141.35 8.00
  A 0.63 0.63 0.0 0 0 140.73 8.65
  L 140.84 11.35
  A 0.63 0.63 0.0 0 1 140.21 12.00
  L 137.38 12.00
  A 0.63 0.63 0.0 0 0 136.75 12.63
  L 136.75 27.38
  A 0.63 0.62 0.0 0 0 137.38 28.00
  L 140.13 28.00
  A 0.63 0.62 90.0 0 1 140.75 28.63
  L 140.75 31.38
  A 0.63 0.63 0.0 0 0 141.38 32.01
  L 147.60 31.98
  A 0.84 0.84 0.0 0 0 148.44 31.06
  L 148.22 28.67
  A 0.61 0.61 0.0 0 1 148.83 28.00
  L 156.20 28.00
  A 0.49 0.49 0.0 0 1 156.69 28.45
  L 156.94 31.37
  A 0.51 0.51 0.0 0 1 156.45 31.93
  L 153.21 32.03
  A 0.49 0.48 -3.4 0 0 152.74 32.55
  L 152.93 35.42
  A 0.54 0.54 0.0 0 1 152.39 36.00
  L 136.87 36.00
  A 0.63 0.62 90.0 0 1 136.25 35.37
  L 136.25 32.53
  A 0.50 0.50 0.0 0 0 135.77 32.03
  L 132.79 31.92
  A 0.56 0.56 0.0 0 1 132.25 31.36
  L 132.25 28.66
  A 0.62 0.62 0.0 0 0 131.65 28.04
  L 128.79 27.92
  A 0.57 0.56 1.6 0 1 128.25 27.36
  L 128.25 12.65
  A 0.63 0.63 0.0 0 1 128.85 12.02
  L 131.71 11.92
  A 0.56 0.56 0.0 0 0 132.25 11.36
  L 132.25 8.66
  A 0.62 0.62 0.0 0 1 132.85 8.04
  L 135.72 7.92
  A 0.56 0.55 -2.2 0 0 136.25 7.36
  Z"
/>
<path d="
  M 222.21 20.04
  L 219.63 19.87
  A 0.58 0.58 0.0 0 1 219.09 19.25
  L 219.30 16.53
  A 0.58 0.58 0.0 0 1 219.88 16.00
  L 222.17 16.00
  A 0.58 0.58 0.0 0 0 222.75 15.42
  L 222.75 4.42
  A 0.58 0.58 0.0 0 1 223.32 3.84
  L 229.23 3.78
  A 0.58 0.58 0.0 0 1 229.82 4.36
  L 229.72 15.42
  A 0.58 0.58 0.0 0 0 230.30 16.00
  L 235.92 16.00
  A 0.58 0.58 0.0 0 1 236.50 16.58
  L 236.50 19.42
  A 0.58 0.58 0.0 0 1 235.92 20.00
  L 230.33 20.00
  A 0.58 0.58 0.0 0 0 229.75 20.58
  L 229.75 31.42
  A 0.58 0.58 0.0 0 0 230.33 32.00
  L 235.90 32.00
  A 0.58 0.58 0.0 0 1 236.48 32.57
  L 236.51 35.41
  A 0.58 0.58 0.0 0 1 235.93 36.00
  L 226.58 36.00
  A 0.58 0.58 0.0 0 1 226.00 35.42
  L 226.00 32.58
  A 0.58 0.58 0.0 0 0 225.42 32.00
  L 223.33 32.00
  A 0.58 0.58 0.0 0 1 222.75 31.42
  L 222.75 20.62
  A 0.58 0.58 0.0 0 0 222.21 20.04
  Z"
/>
<path d="
  M 212.00 28.47
  L 212.00 31.53
  A 0.47 0.47 0.0 0 1 211.53 32.00
  L 196.47 32.00
  A 0.47 0.47 0.0 0 0 196.00 32.47
  L 196.00 40.53
  A 0.47 0.47 0.0 0 1 195.53 41.00
  L 187.94 41.00
  A 0.47 0.47 0.0 0 1 187.47 40.53
  L 187.51 9.47
  A 0.47 0.47 0.0 0 1 187.98 9.00
  L 195.42 9.00
  A 0.47 0.47 0.0 0 1 195.89 9.44
  L 196.04 11.56
  A 0.47 0.47 0.0 0 0 196.51 12.00
  L 211.53 12.00
  A 0.47 0.47 0.0 0 1 212.00 12.47
  L 212.01 15.54
  A 0.47 0.47 0.0 0 0 212.48 16.01
  L 215.53 16.00
  A 0.47 0.47 0.0 0 1 216.00 16.47
  L 216.00 27.53
  A 0.47 0.47 0.0 0 1 215.53 28.00
  L 212.47 28.00
  A 0.47 0.47 0.0 0 0 212.00 28.47
  Z
  M 207.5299 16.3101
  A 0.29 0.29 0.0 0 0 207.2404 16.0196
  L 196.2805 16.0004
  A 0.29 0.29 0.0 0 0 195.9900 16.2899
  L 195.9701 27.6899
  A 0.29 0.29 0.0 0 0 196.2596 27.9804
  L 207.2195 27.9996
  A 0.29 0.29 0.0 0 0 207.5100 27.7101
  L 207.5299 16.3101
  Z"
/>
<path d="
  M 277.55 15.93
  L 277.32 12.73
  A 0.68 0.68 0.0 0 1 278.00 12.00
  L 288.33 12.00
  A 0.68 0.68 0.0 0 1 289.01 12.68
  L 288.98 16.29
  A 0.68 0.68 0.0 0 1 288.31 16.96
  L 278.53 17.02
  A 0.68 0.68 0.0 0 0 277.85 17.68
  L 277.76 21.09
  A 0.68 0.68 0.0 0 1 277.08 21.75
  L 274.68 21.75
  A 0.68 0.68 0.0 0 0 274.00 22.43
  L 274.00 35.39
  A 0.68 0.68 0.0 0 1 273.30 36.07
  L 266.91 35.84
  A 0.68 0.68 0.0 0 1 266.25 35.16
  L 266.25 12.68
  A 0.68 0.68 0.0 0 1 266.93 12.00
  L 273.32 12.00
  A 0.68 0.68 0.0 0 1 274.00 12.68
  L 274.00 15.82
  A 0.68 0.68 0.0 0 0 274.63 16.50
  L 276.83 16.65
  A 0.68 0.68 0.0 0 0 277.55 15.93
  Z"
/>
<path d="
  M 351.89 31.00
  L 349.64 31.00
  A 0.65 0.65 0.0 0 1 348.99 30.35
  L 349.01 16.97
  A 0.65 0.65 0.0 0 1 349.69 16.33
  L 351.82 16.43
  A 0.65 0.65 0.0 0 0 352.50 15.79
  L 352.50 12.65
  A 0.65 0.65 0.0 0 1 353.15 12.00
  L 367.35 12.00
  A 0.65 0.65 0.0 0 1 368.00 12.65
  L 368.01 15.79
  A 0.65 0.65 0.0 0 0 368.67 16.44
  L 371.09 16.38
  A 0.65 0.65 0.0 0 1 371.75 17.03
  L 371.75 25.96
  A 0.65 0.65 0.0 0 1 371.10 26.61
  L 357.67 26.56
  A 0.65 0.65 0.0 0 0 357.02 27.20
  L 356.99 30.11
  A 0.65 0.65 0.0 0 0 357.64 30.77
  L 371.27 30.74
  A 0.65 0.65 0.0 0 1 371.92 31.42
  L 371.72 35.38
  A 0.65 0.65 0.0 0 1 371.07 36.00
  L 353.24 36.00
  A 0.65 0.65 0.0 0 1 352.59 35.36
  L 352.54 31.64
  A 0.65 0.65 0.0 0 0 351.89 31.00
  Z
  M 363.9684 17.3357
  A 0.36 0.36 0.0 0 0 363.6059 16.9782
  L 357.3460 17.0219
  A 0.36 0.36 0.0 0 0 356.9886 17.3844
  L 357.0116 20.6843
  A 0.36 0.36 0.0 0 0 357.3741 21.0418
  L 363.6340 20.9981
  A 0.36 0.36 0.0 0 0 363.9914 20.6356
  L 363.9684 17.3357
  Z"
/>
<path d="
  M 177.06 23.35
  L 176.99 20.61
  A 0.63 0.63 0.0 0 0 176.36 20.00
  L 164.29 20.00
  A 0.63 0.63 0.0 0 1 163.66 19.39
  L 163.55 16.65
  A 0.63 0.63 0.0 0 1 164.18 16.00
  L 180.27 16.00
  A 0.63 0.63 0.0 0 1 180.90 16.67
  L 180.72 19.35
  A 0.63 0.63 0.0 0 0 181.35 20.02
  L 183.36 20.00
  A 0.63 0.63 0.0 0 1 184.00 20.63
  L 184.00 35.37
  A 0.63 0.63 0.0 0 1 183.37 36.00
  L 164.18 35.99
  A 0.63 0.63 0.0 0 1 163.55 35.33
  L 163.69 32.66
  A 0.63 0.63 0.0 0 0 163.06 32.00
  L 160.71 32.00
  A 0.63 0.63 0.0 0 1 160.08 31.34
  L 160.23 28.60
  A 0.63 0.63 0.0 0 1 160.86 28.00
  L 163.11 28.00
  A 0.63 0.63 0.0 0 0 163.74 27.31
  L 163.49 24.69
  A 0.63 0.63 0.0 0 1 164.12 24.00
  L 176.43 24.00
  A 0.63 0.63 0.0 0 0 177.06 23.35
  Z
  M 177.0727 28.4586
  A 0.44 0.44 0.0 0 0 176.6335 28.0178
  L 167.6935 28.0022
  A 0.44 0.44 0.0 0 0 167.2527 28.4414
  L 167.2473 31.5414
  A 0.44 0.44 0.0 0 0 167.6865 31.9822
  L 176.6265 31.9978
  A 0.44 0.44 0.0 0 0 177.0673 31.5586
  L 177.0727 28.4586
  Z"
/>
<path d="
  M 241.42 32.03
  L 239.33 31.91
  A 0.61 0.61 0.0 0 1 238.75 31.30
  L 238.75 16.61
  A 0.61 0.61 0.0 0 1 239.36 16.00
  L 245.23 16.00
  A 0.61 0.61 0.0 0 1 245.84 16.61
  L 245.71 31.39
  A 0.61 0.61 0.0 0 0 246.32 32.00
  L 254.94 32.00
  A 0.61 0.61 0.0 0 0 255.55 31.39
  L 255.47 16.61
  A 0.61 0.61 0.0 0 1 256.08 16.00
  L 262.14 16.00
  A 0.61 0.61 0.0 0 1 262.75 16.61
  L 262.75 31.37
  A 0.61 0.61 0.0 0 1 262.14 31.98
  L 259.66 32.00
  A 0.61 0.61 0.0 0 0 259.06 32.67
  L 259.29 35.34
  A 0.61 0.61 0.0 0 1 258.68 36.00
  L 242.61 36.00
  A 0.61 0.61 0.0 0 1 242.00 35.39
  L 242.00 32.64
  A 0.61 0.61 0.0 0 0 241.42 32.03
  Z"
/>
<path d="
  M 290.99 32.00
  L 288.76 32.00
  A 0.68 0.68 0.0 0 1 288.08 31.28
  L 288.22 28.64
  A 0.68 0.68 0.0 0 1 288.90 28.00
  L 291.05 28.00
  A 0.68 0.68 0.0 0 0 291.73 27.26
  L 291.50 24.74
  A 0.68 0.68 0.0 0 1 292.18 24.00
  L 304.38 24.00
  A 0.68 0.68 0.0 0 0 305.06 23.30
  L 304.99 20.66
  A 0.68 0.68 0.0 0 0 304.31 20.00
  L 292.33 20.00
  A 0.68 0.68 0.0 0 1 291.66 19.35
  L 291.56 16.71
  A 0.68 0.68 0.0 0 1 292.24 16.00
  L 308.22 16.00
  A 0.68 0.68 0.0 0 1 308.90 16.73
  L 308.72 19.29
  A 0.68 0.68 0.0 0 0 309.41 20.02
  L 311.31 20.00
  A 0.68 0.68 0.0 0 1 312.00 20.68
  L 312.00 35.32
  A 0.68 0.68 0.0 0 1 311.32 36.00
  L 292.28 36.00
  A 0.68 0.68 0.0 0 1 291.60 35.30
  L 291.67 32.70
  A 0.68 0.68 0.0 0 0 290.99 32.00
  Z
  M 305.09 28.51
  A 0.50 0.50 0.0 0 0 304.59 28.01
  L 295.75 28.01
  A 0.50 0.50 0.0 0 0 295.25 28.51
  L 295.25 31.49
  A 0.50 0.50 0.0 0 0 295.75 31.99
  L 304.59 31.99
  A 0.50 0.50 0.0 0 0 305.09 31.49
  L 305.09 28.51
  Z"
/>
<path d="
  M 325.07 32.00
  L 322.69 32.00
  A 0.62 0.62 0.0 0 1 322.08 31.35
  L 322.23 28.58
  A 0.62 0.62 0.0 0 1 322.85 27.99
  L 325.08 28.00
  A 0.62 0.62 0.0 0 0 325.70 27.33
  L 325.49 24.67
  A 0.62 0.62 0.0 0 1 326.11 24.00
  L 338.50 24.00
  A 0.62 0.62 0.0 0 0 339.11 23.37
  L 338.96 16.63
  A 0.62 0.62 0.0 0 1 339.57 16.00
  L 345.38 16.00
  A 0.62 0.62 0.0 0 1 346.00 16.62
  L 346.00 35.38
  A 0.62 0.62 0.0 0 1 345.38 36.00
  L 326.19 36.00
  A 0.62 0.62 0.0 0 1 325.57 35.35
  L 325.69 32.65
  A 0.62 0.62 0.0 0 0 325.07 32.00
  Z
  M 339.05 28.31
  A 0.31 0.31 0.0 0 0 338.74 28.00
  L 329.56 28.00
  A 0.31 0.31 0.0 0 0 329.25 28.31
  L 329.25 31.69
  A 0.31 0.31 0.0 0 0 329.56 32.00
  L 338.74 32.00
  A 0.31 0.31 0.0 0 0 339.05 31.69
  L 339.05 28.31
  Z"
/>
<path d="
  M 111.96 25.17
  L 111.96 65.00
  L 82.00 64.96
  Q 88.83 57.22 90.50 46.96
  Q 92.07 47.29 93.39 46.65
  A 0.76 0.74 71.5 0 0 93.79 45.82
  L 93.44 44.14
  A 0.80 0.79 83.6 0 0 92.67 43.52
  L 90.29 43.50
  Q 89.08 33.45 82.18 25.60
  L 111.96 25.17
  Z"
/>
<path d="
  M 11.50 25.21
  L 12.21 27.28
  A 0.67 0.66 -9.1 0 0 12.84 27.73
  Q 23.57 27.72 27.18 27.94
  Q 29.55 28.09 29.54 26.25
  L 30.00 25.70
  A 1.01 1.01 0.0 0 1 30.81 25.32
  L 44.21 25.50
  Q 27.66 45.25 44.25 64.96
  L 7.04 65.00
  L 7.29 25.50
  L 11.50 25.21
  Z"
/>
</g>
<g fill="#b7aba9">
<path d="
  M 55.06 0.00
  L 56.81 0.00
  Q 58.30 1.07 57.93 2.77
  A 0.46 0.46 0.0 0 0 58.35 3.32
  L 61.71 3.50
  L 61.97 5.56
  A 0.72 0.72 0.0 0 0 62.68 6.19
  L 65.02 6.19
  A 0.81 0.81 0.0 0 0 65.80 5.59
  L 66.29 3.75
  L 68.21 3.25
  Q 70.51 4.91 72.21 3.00
  L 72.27 3.26
  A 0.23 0.22 83.6 0 0 72.49 3.44
  L 90.00 3.46
  Q 97.40 4.34 104.79 3.50
  Q 106.41 3.22 107.74 4.01
  A 1.06 1.05 15.8 0 1 108.25 4.91
  L 108.25 6.40
  A 0.70 0.70 0.0 0 0 108.88 7.10
  L 110.51 7.25
  A 1.77 1.77 0.0 0 1 112.11 8.97
  L 112.25 14.29
  Q 110.96 18.11 112.25 21.96
  L 111.96 25.17
  L 82.18 25.60
  Q 76.58 21.22 69.93 18.60
  Q 73.07 17.97 77.36 18.39
  Q 79.28 18.58 79.27 16.65
  L 79.23 7.92
  A 0.61 0.61 0.0 0 0 78.62 7.31
  L 54.75 7.34
  A 0.63 0.63 0.0 0 0 54.12 7.92
  L 53.89 10.46
  A 0.56 0.56 0.0 0 1 53.37 10.97
  L 51.03 11.09
  A 0.56 0.56 0.0 0 0 50.50 11.65
  L 50.50 13.67
  A 0.79 0.79 0.0 0 1 49.83 14.45
  L 47.51 14.78
  A 0.66 0.65 -7.5 0 0 46.94 15.51
  L 47.21 17.65
  A 0.69 0.69 0.0 0 0 47.89 18.25
  L 59.48 18.23
  Q 50.90 19.86 44.21 25.50
  L 30.81 25.32
  A 1.01 1.01 0.0 0 0 30.00 25.70
  L 29.54 26.25
  L 29.76 22.12
  Q 29.88 20.01 27.83 20.49
  Q 26.90 20.71 26.21 21.25
  Q 24.72 20.24 23.04 21.00
  Q 20.84 19.84 18.71 21.00
  L 15.50 20.79
  Q 14.02 20.46 12.70 20.96
  A 0.88 0.86 85.3 0 0 12.15 21.62
  L 11.50 25.21
  L 7.29 25.50
  L 6.92 22.36
  A 0.44 0.42 0.1 0 0 6.54 21.99
  L 6.25 21.96
  L 6.71 21.78
  A 0.74 0.73 -10.0 0 0 7.17 21.13
  L 7.29 18.25
  Q 22.14 18.03 37.01 18.24
  Q 40.21 18.28 39.81 15.07
  A 0.45 0.44 88.9 0 1 40.29 14.57
  Q 43.62 14.89 42.95 11.50
  A 0.48 0.48 0.0 0 1 43.52 10.94
  Q 47.17 11.65 46.99 8.11
  A 0.54 0.54 0.0 0 1 47.42 7.56
  L 49.79 7.12
  A 0.67 0.66 86.7 0 0 50.34 6.50
  L 50.50 3.79
  L 53.40 3.58
  A 0.51 0.50 84.1 0 0 53.86 3.01
  Q 53.60 1.10 55.06 0.00
  Z
  M 104.5111 8.2488
  A 0.80 0.80 0.0 0 0 103.7125 7.4474
  L 83.7325 7.4126
  A 0.80 0.80 0.0 0 0 82.9311 8.2112
  L 82.9089 20.9312
  A 0.80 0.80 0.0 0 0 83.7075 21.7326
  L 103.6875 21.7674
  A 0.80 0.80 0.0 0 0 104.4889 20.9688
  L 104.5111 8.2488
  Z"
/>
<path d="
  M 47.25 3.79
  Q 47.36 5.44 46.54 6.82
  A 0.92 0.90 -74.9 0 1 45.78 7.27
  Q 42.57 7.36 43.31 10.47
  A 0.49 0.49 0.0 0 1 42.77 11.07
  Q 39.57 10.67 39.75 13.69
  A 0.63 0.63 0.0 0 1 39.28 14.35
  C 36.05 15.22 32.37 14.44 29.91 14.51
  Q 18.48 14.82 7.04 14.50
  L 6.96 14.25
  L 7.18 11.63
  A 0.69 0.68 2.2 0 1 7.87 11.00
  L 9.84 11.00
  A 0.74 0.74 0.0 0 0 10.57 10.36
  L 10.84 8.29
  A 0.94 0.93 79.2 0 1 11.31 7.59
  Q 12.50 6.91 14.00 7.21
  Q 21.50 7.78 29.00 7.21
  Q 30.44 7.52 31.85 7.01
  A 0.59 0.59 0.0 0 0 32.22 6.34
  Q 31.57 3.41 34.31 3.53
  Q 40.78 3.79 47.25 3.79
  Z"
/>
<path d="
  M 7.04 65.00
  L 44.25 64.96
  Q 51.20 70.57 59.98 72.37
  Q 36.71 72.24 13.39 72.55
  C 11.47 72.58 10.28 71.76 10.68 69.71
  A 0.57 0.56 9.5 0 0 10.20 69.04
  L 8.24 68.79
  A 1.01 0.98 78.2 0 1 7.50 68.29
  Q 6.66 66.82 7.04 65.00
  Z"
/>
<path d="
  M 82.00 64.96
  L 111.96 65.00
  Q 112.38 66.82 111.54 68.28
  A 0.93 0.90 13.5 0 1 110.78 68.73
  C 109.25 68.76 107.55 68.80 108.23 71.04
  A 1.24 1.23 81.8 0 1 107.04 72.63
  L 67.50 72.46
  Q 75.43 70.01 82.00 64.96
  Z"
/>
</g>
<g fill="#d60f2a">
<path d="
  M 15.50 20.79
  L 18.71 21.00
  L 18.75 23.37
  A 0.63 0.63 0.0 0 1 18.12 24.00
  L 15.92 24.00
  A 0.68 0.68 0.0 0 1 15.25 23.41
  Q 15.08 22.02 15.50 20.79
  Z"
/>
<path d="
  M 26.21 21.25
  L 26.19 23.36
  A 0.67 0.67 0.0 0 1 25.48 24.03
  L 23.33 23.91
  A 0.51 0.51 0.0 0 1 22.85 23.36
  L 23.04 21.00
  Q 24.72 20.24 26.21 21.25
  Z"
/>
<path d="
  M 440.70 49.00
  L 447.80 49.00
  A 0.70 0.70 0.0 0 1 448.50 49.70
  L 448.51 52.29
  A 0.70 0.70 0.0 0 1 447.81 52.99
  L 445.26 53.00
  A 0.70 0.70 0.0 0 0 444.56 53.71
  L 444.62 56.17
  A 0.70 0.70 0.0 0 1 443.95 56.89
  L 440.88 57.05
  A 0.70 0.70 0.0 0 1 440.14 56.37
  L 440.00 49.72
  A 0.70 0.70 0.0 0 1 440.70 49.00
  Z"
/>
<rect x="-2.15" y="-1.99" transform="translate(451.61,51.00) rotate(0.6)" width="4.30" height="3.98" rx="0.31"/>
<rect x="-2.03" y="-1.99" transform="translate(457.03,51.00) rotate(-1.5)" width="4.06" height="3.98" rx="0.58"/>
<path d="
  M 468.33 49.48
  C 468.92 51.62 468.05 53.63 468.35 56.30
  A 0.61 0.60 86.5 0 1 467.76 56.97
  L 464.63 57.01
  A 0.63 0.62 89.6 0 1 464.00 56.38
  L 464.00 53.62
  A 0.63 0.62 -0.0 0 0 463.37 53.00
  L 460.63 53.00
  A 0.63 0.62 0.0 0 1 460.00 52.38
  L 460.00 49.62
  A 0.63 0.62 -0.0 0 1 460.63 49.00
  L 467.71 49.00
  A 0.65 0.64 82.3 0 1 468.33 49.48
  Z"
/>
<path d="
  M 440.25 58.29
  L 440.50 62.21
  L 132.92 62.26
  A 1.30 1.28 67.1 0 1 132.01 61.88
  L 129.18 59.06
  A 0.65 0.65 0.0 0 1 129.64 57.94
  L 440.25 58.29
  Z"
/>
<rect x="-2.11" y="-2.16" transform="translate(466.14,60.33) rotate(-0.9)" width="4.22" height="4.32" rx="0.66"/>
<path d="
  M 444.50 58.29
  C 449.35 58.20 453.26 56.94 456.31 61.65
  Q 456.60 62.10 456.07 62.11
  L 444.50 62.21
  L 444.50 58.29
  Z"
/>
<path d="
  M 444.25 63.54
  Q 444.55 65.67 444.00 67.71
  L 440.75 67.71
  Q 440.08 65.77 440.25 63.71
  L 444.25 63.54
  Z"
/>
<rect x="-2.13" y="-2.10" transform="translate(466.13,65.85) rotate(1.4)" width="4.26" height="4.20" rx="0.58"/>
<path d="
  M 445.23 72.92
  L 447.79 73.04
  A 0.78 0.78 0.0 0 1 448.53 73.86
  L 448.38 76.51
  A 0.78 0.78 0.0 0 1 447.60 77.25
  L 440.75 77.25
  A 0.78 0.78 0.0 0 1 439.97 76.44
  L 440.19 69.79
  A 0.78 0.78 0.0 0 1 440.96 69.04
  L 443.82 68.99
  A 0.78 0.78 0.0 0 1 444.61 69.81
  L 444.48 72.10
  A 0.78 0.78 0.0 0 0 445.23 72.92
  Z"
/>
<path d="
  M 472.00 73.06
  L 472.00 76.81
  Q 470.49 77.43 468.84 77.35
  A 0.48 0.48 0.0 0 0 468.34 77.78
  L 467.94 81.00
  L 464.19 81.00
  L 463.84 77.52
  A 0.52 0.51 -4.1 0 0 463.30 77.06
  L 460.89 77.16
  A 0.73 0.72 88.1 0 1 460.14 76.45
  L 460.09 73.73
  A 0.64 0.64 0.0 0 1 460.70 73.08
  L 463.05 72.97
  A 1.02 1.02 0.0 0 0 464.02 71.94
  L 463.99 69.69
  A 0.51 0.51 0.0 0 1 464.49 69.18
  L 467.67 69.10
  A 0.57 0.57 0.0 0 1 468.25 69.67
  L 468.25 72.28
  A 0.50 0.50 0.0 0 0 468.71 72.78
  L 472.00 73.06
  Z"
/>
<rect x="-2.15" y="-1.99" transform="translate(451.61,75.00) rotate(0.6)" width="4.30" height="3.98" rx="0.31"/>
<rect x="-2.12" y="-2.01" transform="translate(457.11,75.00) rotate(-0.9)" width="4.24" height="4.02" rx="0.69"/>
</g>
<g fill="#e5e2e1">
<path d="
  M 23.04 21.00
  L 22.85 23.36
  A 0.51 0.51 0.0 0 0 23.33 23.91
  L 25.48 24.03
  A 0.67 0.67 0.0 0 0 26.19 23.36
  L 26.21 21.25
  Q 26.90 20.71 27.83 20.49
  Q 29.88 20.01 29.76 22.12
  L 29.54 26.25
  Q 29.55 28.09 27.18 27.94
  Q 23.57 27.72 12.84 27.73
  A 0.67 0.66 -9.1 0 1 12.21 27.28
  L 11.50 25.21
  L 12.15 21.62
  A 0.88 0.86 85.3 0 1 12.70 20.96
  Q 14.02 20.46 15.50 20.79
  Q 15.08 22.02 15.25 23.41
  A 0.68 0.68 0.0 0 0 15.92 24.00
  L 18.12 24.00
  A 0.63 0.63 0.0 0 0 18.75 23.37
  L 18.71 21.00
  Q 20.84 19.84 23.04 21.00
  Z"
/>
<path d="
  M 440.25 58.29
  L 444.50 58.29
  L 444.50 62.21
  L 440.50 62.21
  L 440.25 58.29
  Z"
/>
<path d="
  M 440.25 63.71
  Q 440.08 65.77 440.75 67.71
  Q 290.39 67.69 140.04 67.88
  C 137.02 67.89 135.35 66.61 134.24 64.01
  A 0.34 0.33 78.2 0 1 134.54 63.54
  L 440.25 63.71
  Z"
/>
<path d="
  M 444.25 63.54
  L 457.53 63.72
  A 1.52 1.49 -22.7 0 1 458.53 64.12
  L 461.60 67.01
  Q 462.32 67.68 461.33 67.68
  L 444.00 67.71
  Q 444.55 65.67 444.25 63.54
  Z"
/>
</g>
<g fill="#000000">
<path d="
  M 371.00 6.42
  L 371.00 2.61
  A 0.61 0.61 0.0 0 1 371.61 2.00
  L 400.39 2.00
  A 0.61 0.61 0.0 0 1 401.00 2.61
  L 401.00 6.39
  A 0.61 0.61 0.0 0 1 400.39 7.00
  L 390.61 7.00
  A 0.61 0.61 0.0 0 0 390.00 7.61
  L 390.00 35.39
  A 0.61 0.61 0.0 0 1 389.39 36.00
  L 382.83 36.00
  A 0.61 0.61 0.0 0 1 382.22 35.39
  L 382.26 7.55
  A 0.61 0.61 0.0 0 0 381.64 6.94
  L 371.62 7.03
  A 0.61 0.61 0.0 0 1 371.00 6.42
  Z"
/>
<path d="
  M 429.82 35.96
  A 1.57 1.57 0.0 0 1 428.25 34.38
  L 428.25 3.16
  A 0.62 0.62 0.0 0 1 428.84 2.54
  L 434.56 2.21
  A 1.36 1.36 0.0 0 1 436.00 3.57
  L 436.00 30.40
  A 0.64 0.63 89.1 0 0 436.65 31.04
  L 442.44 30.88
  A 0.55 0.54 89.0 0 1 443.00 31.43
  L 443.01 35.26
  A 0.75 0.75 0.0 0 1 442.25 36.01
  L 429.82 35.96
  Z"
/>
<path d="
  M 69.93 18.60
  L 59.48 18.23
  L 47.89 18.25
  A 0.69 0.69 0.0 0 1 47.21 17.65
  L 46.94 15.51
  A 0.66 0.65 -7.5 0 1 47.51 14.78
  L 49.83 14.45
  A 0.79 0.79 0.0 0 0 50.50 13.67
  L 50.50 11.65
  A 0.56 0.56 0.0 0 1 51.03 11.09
  L 53.37 10.97
  A 0.56 0.56 0.0 0 0 53.89 10.46
  L 54.12 7.92
  A 0.63 0.63 0.0 0 1 54.75 7.34
  L 78.62 7.31
  A 0.61 0.61 0.0 0 1 79.23 7.92
  L 79.27 16.65
  Q 79.28 18.58 77.36 18.39
  Q 73.07 17.97 69.93 18.60
  Z"
/>
<path d="
  M 104.4889 20.9688
  A 0.80 0.80 0.0 0 1 103.6875 21.7674
  L 83.7075 21.7326
  A 0.80 0.80 0.0 0 1 82.9089 20.9312
  L 82.9311 8.2112
  A 0.80 0.80 0.0 0 1 83.7325 7.4126
  L 103.7125 7.4474
  A 0.80 0.80 0.0 0 1 104.5111 8.2488
  L 104.4889 20.9688
  Z
  M 93.6630 12.5277
  A 1.47 1.47 0.0 0 0 92.1879 11.0628
  L 88.0479 11.0772
  A 1.47 1.47 0.0 0 0 86.5831 12.5524
  L 86.5970 16.5323
  A 1.47 1.47 0.0 0 0 88.0721 17.9972
  L 92.2121 17.9828
  A 1.47 1.47 0.0 0 0 93.6769 16.5076
  L 93.6630 12.5277
  Z"
/>
<path d="
  M 403.50 16.18
  L 403.49 13.29
  A 1.02 1.01 -0.3 0 1 404.51 12.27
  L 420.05 12.24
  A 0.77 0.77 0.0 0 1 420.82 12.97
  L 420.96 16.25
  A 0.66 0.66 0.0 0 0 421.56 16.87
  L 423.65 17.07
  A 0.59 0.59 0.0 0 1 424.19 17.66
  L 424.22 25.89
  A 0.61 0.61 0.0 0 1 423.61 26.50
  L 407.85 26.50
  A 0.62 0.62 0.0 0 0 407.23 27.15
  L 407.32 30.08
  A 0.70 0.70 0.0 0 0 408.02 30.75
  L 420.38 30.75
  A 0.57 0.56 0.0 0 1 420.95 31.31
  L 420.96 34.89
  A 0.85 0.85 0.0 0 1 420.11 35.74
  L 404.46 35.75
  A 1.04 1.03 6.8 0 1 403.45 34.48
  Q 403.79 33.01 403.25 31.74
  A 0.99 0.98 -6.6 0 0 402.51 31.16
  L 400.62 30.80
  A 0.75 0.75 0.0 0 1 400.00 30.06
  L 400.00 17.82
  A 0.72 0.72 0.0 0 1 400.60 17.11
  L 403.06 16.70
  A 0.53 0.52 85.5 0 0 403.50 16.18
  Z
  M 416.9927 17.9285
  A 0.49 0.49 0.0 0 0 416.5035 17.4376
  L 407.7635 17.4224
  A 0.49 0.49 0.0 0 0 407.2727 17.9115
  L 407.2673 20.9915
  A 0.49 0.49 0.0 0 0 407.7565 21.4824
  L 416.4965 21.4976
  A 0.49 0.49 0.0 0 0 416.9873 21.0085
  L 416.9927 17.9285
  Z"
/>
<path d="
  M 449.16 31.01
  L 446.73 30.97
  A 0.61 0.61 0.0 0 1 446.13 30.33
  L 446.28 27.60
  A 0.61 0.61 0.0 0 1 446.86 27.02
  L 449.15 26.91
  A 0.61 0.61 0.0 0 0 449.73 26.25
  L 449.49 23.67
  A 0.61 0.61 0.0 0 1 450.10 23.00
  L 462.39 23.00
  A 0.61 0.61 0.0 0 0 463.00 22.39
  L 463.00 19.61
  A 0.61 0.61 0.0 0 0 462.39 19.00
  L 450.25 19.00
  A 0.61 0.61 0.0 0 1 449.64 18.40
  L 449.57 15.62
  A 0.61 0.61 0.0 0 1 450.18 15.00
  L 466.38 15.00
  A 0.61 0.61 0.0 0 1 466.98 15.69
  L 466.67 18.21
  A 0.61 0.61 0.0 0 0 467.24 18.90
  L 469.43 19.03
  A 0.61 0.61 0.0 0 1 470.00 19.64
  L 470.00 34.39
  A 0.61 0.61 0.0 0 1 469.39 35.00
  L 450.14 34.99
  A 0.61 0.61 0.0 0 1 449.53 34.33
  L 449.76 31.67
  A 0.61 0.61 0.0 0 0 449.16 31.01
  Z
  M 463.01 27.60
  A 0.60 0.60 0.0 0 0 462.41 27.00
  L 453.85 27.00
  A 0.60 0.60 0.0 0 0 453.25 27.60
  L 453.25 30.40
  A 0.60 0.60 0.0 0 0 453.85 31.00
  L 462.41 31.00
  A 0.60 0.60 0.0 0 0 463.01 30.40
  L 463.01 27.60
  Z"
/>
</g>
<g fill="#1b1318">
<path d="
  M 19.56 0.00
  L 24.06 0.00
  C 25.89 0.68 24.92 2.45 25.75 3.71
  L 18.00 3.71
  Q 17.25 1.01 19.56 0.00
  Z"
/>
<path d="
  M 86.53 45.19
  A 23.41 23.41 0.0 0 1 63.12 68.60
  A 23.41 23.41 0.0 0 1 39.71 45.19
  A 23.41 23.41 0.0 0 1 63.12 21.78
  A 23.41 23.41 0.0 0 1 86.53 45.19
  Z
  M 79.27 45.21
  A 16.16 16.16 0.0 0 0 63.11 29.05
  A 16.16 16.16 0.0 0 0 46.95 45.21
  A 16.16 16.16 0.0 0 0 63.11 61.37
  A 16.16 16.16 0.0 0 0 79.27 45.21
  Z"
/>
<circle cx="63.11" cy="45.23" r="12.48"/>
</g>
<path fill="#3c3041" d="
  M 79.27 45.21
  A 16.16 16.16 0.0 0 1 63.11 61.37
  A 16.16 16.16 0.0 0 1 46.95 45.21
  A 16.16 16.16 0.0 0 1 63.11 29.05
  A 16.16 16.16 0.0 0 1 79.27 45.21
  Z
  M 75.59 45.23
  A 12.48 12.48 0.0 0 0 63.11 32.75
  A 12.48 12.48 0.0 0 0 50.63 45.23
  A 12.48 12.48 0.0 0 0 63.11 57.71
  A 12.48 12.48 0.0 0 0 75.59 45.23
  Z"
/>
<g fill="#fdfdfa">
<path d="
  M 66.29 3.75
  L 65.80 5.59
  A 0.81 0.81 0.0 0 1 65.02 6.19
  L 62.68 6.19
  A 0.72 0.72 0.0 0 1 61.97 5.56
  L 61.71 3.50
  C 61.93 1.24 65.71 1.08 66.29 3.75
  Z"
/>
<rect x="-3.54" y="-3.46" transform="translate(90.13,14.53) rotate(-0.2)" width="7.08" height="6.92" rx="1.47"/>
<path d="
  M 59.48 18.23
  L 69.93 18.60
  Q 76.58 21.22 82.18 25.60
  Q 89.08 33.45 90.29 43.50
  L 90.50 46.96
  Q 88.83 57.22 82.00 64.96
  Q 75.43 70.01 67.50 72.46
  L 64.91 72.89
  A 1.38 1.36 55.0 0 1 63.97 72.72
  Q 62.11 71.64 59.98 72.37
  Q 51.20 70.57 44.25 64.96
  Q 27.66 45.25 44.21 25.50
  Q 50.90 19.86 59.48 18.23
  Z
  M 86.53 45.19
  A 23.41 23.41 0.0 0 0 63.12 21.78
  A 23.41 23.41 0.0 0 0 39.71 45.19
  A 23.41 23.41 0.0 0 0 63.12 68.60
  A 23.41 23.41 0.0 0 0 86.53 45.19
  Z"
/>
</g>
<g fill="#a19795">
<path d="
  M 47.25 3.79
  L 50.50 3.79
  L 50.34 6.50
  A 0.67 0.66 86.7 0 1 49.79 7.12
  L 47.42 7.56
  A 0.54 0.54 0.0 0 0 46.99 8.11
  Q 47.17 11.65 43.52 10.94
  A 0.48 0.48 0.0 0 0 42.95 11.50
  Q 43.62 14.89 40.29 14.57
  A 0.45 0.44 88.9 0 0 39.81 15.07
  Q 40.21 18.28 37.01 18.24
  Q 22.14 18.03 7.29 18.25
  L 7.04 14.50
  Q 18.48 14.82 29.91 14.51
  C 32.37 14.44 36.05 15.22 39.28 14.35
  A 0.63 0.63 0.0 0 0 39.75 13.69
  Q 39.57 10.67 42.77 11.07
  A 0.49 0.49 0.0 0 0 43.31 10.47
  Q 42.57 7.36 45.78 7.27
  A 0.92 0.90 -74.9 0 0 46.54 6.82
  Q 47.36 5.44 47.25 3.79
  Z"
/>
<path d="
  M 133.35 51.08
  Q 134.37 51.40 134.70 52.38
  A 0.89 0.89 0.0 0 0 135.56 53.00
  L 137.50 53.00
  A 0.51 0.50 -89.4 0 0 138.00 52.50
  L 138.01 50.60
  A 0.81 0.81 0.0 0 0 137.28 49.79
  L 136.54 49.72
  A 0.60 0.60 0.0 0 1 136.00 49.03
  L 136.14 48.17
  A 0.85 0.85 0.0 0 1 137.01 47.46
  L 141.24 47.60
  A 0.64 0.64 0.0 0 1 141.86 48.23
  L 141.94 54.37
  A 0.63 0.63 0.0 0 1 141.31 55.01
  L 133.51 55.00
  A 1.30 1.26 -21.3 0 1 132.63 54.63
  L 129.15 51.16
  A 1.38 1.36 -67.7 0 1 128.75 50.19
  L 128.75 46.90
  A 0.89 0.89 0.0 0 1 129.44 46.03
  Q 130.46 45.79 130.65 44.69
  A 0.75 0.74 -87.9 0 1 131.30 44.08
  Q 132.61 43.94 132.51 42.64
  A 0.63 0.62 -1.7 0 1 133.15 41.97
  L 141.16 42.08
  A 0.75 0.75 0.0 0 1 141.90 42.84
  L 141.90 43.59
  A 0.67 0.67 0.0 0 1 141.22 44.25
  L 135.16 44.25
  A 0.51 0.50 -4.4 0 0 134.66 44.83
  Q 134.83 45.94 133.45 46.00
  A 0.76 0.76 0.0 0 0 132.72 46.78
  L 132.82 50.38
  A 0.75 0.75 0.0 0 0 133.35 51.08
  Z"
/>
<path d="
  M 160.93 44.43
  Q 159.68 44.19 159.46 42.95
  A 0.71 0.70 -5.9 0 1 160.14 42.12
  L 164.78 42.02
  A 0.70 0.70 0.0 0 1 165.50 42.72
  L 165.50 54.40
  A 0.63 0.63 0.0 0 1 164.85 55.03
  L 161.93 54.92
  A 0.48 0.48 0.0 0 1 161.47 54.44
  L 161.43 45.02
  A 0.61 0.61 0.0 0 0 160.93 44.43
  Z"
/>
<path d="
  M 152.03 48.32
  C 151.93 47.82 146.38 47.99 145.60 47.98
  A 0.62 0.62 0.0 0 1 144.99 47.29
  L 145.10 46.37
  A 0.72 0.71 3.6 0 1 145.81 45.75
  L 153.58 45.75
  A 1.31 1.30 67.1 0 1 154.49 46.12
  L 156.06 47.68
  A 1.52 1.50 -67.9 0 1 156.50 48.75
  L 156.50 54.38
  A 0.63 0.62 -0.0 0 1 155.87 55.00
  L 148.04 55.00
  A 1.05 1.03 -18.3 0 1 147.21 54.59
  Q 146.58 53.78 145.58 53.44
  A 0.78 0.78 0.0 0 1 145.05 52.78
  L 144.99 52.03
  A 0.77 0.76 76.7 0 1 145.47 51.25
  L 146.29 50.93
  A 0.94 0.92 -87.2 0 0 146.78 50.48
  L 147.38 49.24
  A 0.67 0.66 -65.3 0 1 148.23 48.92
  Q 149.96 49.65 151.69 48.95
  A 0.55 0.55 0.0 0 0 152.03 48.32
  Z
  M 149.27 51.83
  A 0.54 0.53 -42.9 0 0 149.23 52.86
  Q 150.64 53.30 151.96 52.73
  Q 152.85 52.35 151.95 52.00
  Q 150.66 51.50 149.27 51.83
  Z"
/>
<rect x="199.00" y="45.74" width="4.50" height="9.50" rx="1.07"/>
<path d="
  M 170.48 46.99
  L 170.63 46.54
  A 0.81 0.80 -80.3 0 1 171.39 46.00
  L 177.29 46.00
  A 0.76 0.75 -8.2 0 1 178.02 46.54
  Q 178.34 47.59 179.50 47.80
  A 0.64 0.64 0.0 0 1 180.02 48.45
  L 179.92 51.03
  A 0.63 0.63 0.0 0 1 179.29 51.64
  L 173.36 51.70
  A 0.62 0.62 0.0 0 0 172.75 52.33
  C 172.76 53.29 178.38 53.07 179.46 53.23
  A 0.64 0.63 -85.8 0 1 180.00 53.86
  L 180.00 54.37
  A 0.63 0.63 0.0 0 1 179.37 55.00
  L 171.78 55.00
  A 1.14 1.12 -22.3 0 1 170.98 54.67
  L 169.33 53.02
  A 1.14 1.12 -67.7 0 1 169.00 52.22
  L 169.00 48.39
  A 0.81 0.80 -9.7 0 1 169.54 47.63
  L 169.99 47.48
  A 0.82 0.82 0.0 0 0 170.48 46.99
  Z
  M 174.85 47.58
  Q 172.77 47.81 172.73 48.56
  A 1.06 1.06 0.0 0 0 173.90 49.67
  Q 175.98 49.44 176.02 48.69
  A 1.06 1.06 0.0 0 0 174.85 47.58
  Z"
/>
<path d="
  M 188.32 47.61
  L 189.06 46.40
  A 0.84 0.83 15.0 0 1 189.78 45.99
  L 194.23 46.03
  A 0.57 0.57 0.0 0 1 194.77 46.79
  L 194.55 47.45
  A 0.72 0.70 8.7 0 1 193.89 47.92
  L 189.61 48.03
  A 0.61 0.60 -3.5 0 0 189.02 48.69
  Q 189.12 49.89 187.79 49.87
  A 0.53 0.53 0.0 0 0 187.25 50.40
  L 187.25 54.37
  A 0.63 0.62 -90.0 0 1 186.63 55.00
  L 183.88 55.00
  A 0.63 0.63 0.0 0 1 183.25 54.37
  L 183.25 46.50
  A 0.50 0.50 0.0 0 1 183.75 46.00
  L 186.63 46.00
  A 0.59 0.58 80.0 0 1 187.18 46.39
  L 187.59 47.54
  Q 187.87 48.35 188.32 47.61
  Z"
/>
<path d="
  M 218.42 47.69
  L 218.68 47.74
  A 0.72 0.71 6.0 0 1 219.25 48.44
  L 219.25 54.37
  A 0.63 0.63 0.0 0 1 218.62 55.00
  L 210.63 55.00
  A 0.64 0.63 -89.6 0 1 210.00 54.35
  Q 210.04 52.96 208.50 53.26
  A 0.46 0.46 0.0 0 1 207.96 52.74
  L 208.12 51.75
  A 0.57 0.56 -85.4 0 1 208.69 51.26
  Q 210.14 51.30 210.22 49.94
  A 0.64 0.63 0.9 0 1 210.85 49.34
  L 215.11 49.25
  Q 215.80 49.24 215.43 48.66
  L 215.23 48.36
  A 0.81 0.80 73.0 0 0 214.56 48.00
  L 208.81 48.00
  A 0.71 0.70 86.8 0 1 208.11 47.37
  L 208.04 46.68
  A 0.62 0.61 87.0 0 1 208.65 46.00
  L 216.72 46.00
  A 0.87 0.86 76.5 0 1 217.49 46.48
  L 217.88 47.28
  A 0.77 0.76 81.9 0 0 218.42 47.69
  Z
  M 213.46 51.62
  Q 212.63 51.33 211.98 52.00
  A 0.57 0.57 0.0 0 0 212.41 52.96
  L 214.95 52.87
  Q 216.13 52.84 215.29 52.00
  Q 214.72 51.42 214.03 51.63
  A 0.92 0.88 -43.0 0 1 213.46 51.62
  Z"
/>
</g>
<g fill="#c4c3c3">
<path d="
  M 69.56 0.00
  L 71.56 0.00
  Q 72.55 1.33 72.21 3.00
  Q 70.51 4.91 68.21 3.25
  Q 67.82 1.09 69.56 0.00
  Z"
/>
<path d="
  M 91.56 0.00
  L 103.81 0.00
  Q 105.21 1.37 104.79 3.50
  Q 97.40 4.34 90.00 3.46
  Q 89.51 1.06 91.56 0.00
  Z"
/>
<path d="
  M 18.00 3.71
  L 25.75 3.71
  L 27.96 4.00
  A 0.93 0.93 0.0 0 1 28.68 4.54
  Q 29.23 5.77 29.00 7.21
  Q 21.50 7.78 14.00 7.21
  Q 13.94 3.15 18.00 3.71
  Z"
/>
<path d="
  M 6.96 14.25
  L 7.04 14.50
  L 7.29 18.25
  L 7.17 21.13
  A 0.74 0.73 -10.0 0 1 6.71 21.78
  L 6.25 21.96
  Q 4.89 22.32 4.06 21.58
  A 1.33 1.30 17.0 0 1 3.63 20.79
  L 3.34 18.92
  A 0.67 0.66 -7.5 0 0 2.60 18.36
  Q 1.01 18.55 0.00 17.44
  L 0.00 15.19
  Q 3.27 13.66 6.96 14.25
  Z"
/>
<path d="
  M 112.25 14.29
  L 118.11 14.40
  A 0.76 0.75 -0.4 0 1 118.85 15.12
  L 118.96 17.48
  A 0.69 0.69 0.0 0 1 118.32 18.20
  L 116.33 18.35
  A 0.74 0.74 0.0 0 0 115.64 19.02
  L 115.44 21.07
  A 0.81 0.79 82.1 0 1 114.95 21.73
  Q 113.64 22.27 112.25 21.96
  Q 110.96 18.11 112.25 14.29
  Z"
/>
<path d="
  M 90.29 43.50
  L 92.67 43.52
  A 0.80 0.79 83.6 0 1 93.44 44.14
  L 93.79 45.82
  A 0.76 0.74 71.5 0 1 93.39 46.65
  Q 92.07 47.29 90.50 46.96
  L 90.29 43.50
  Z"
/>
</g>
</svg>
