<?xml version="1.0" encoding="UTF-8" standalone="no"?>
<!DOCTYPE svg PUBLIC "-//W3C//DTD SVG 1.1//EN" "http://www.w3.org/Graphics/SVG/1.1/DTD/svg11.dtd">
<svg xmlns="http://www.w3.org/2000/svg" version="1.1" viewBox="0 0 492 132">
<g stroke-width="2.00" fill="none" stroke-linecap="butt">
<path stroke="#606068" vector-effect="non-scaling-stroke" d="
  M 12.04 48.50
  L 12.04 74.00"
/>
<path stroke="#727071" vector-effect="non-scaling-stroke" d="
  M 12.04 74.00
  L 12.15 79.96"
/>
<path stroke="#2e2c2c" vector-effect="non-scaling-stroke" d="
  M 12.15 79.96
  Q 11.45 81.49 12.56 82.21
  Q 24.00 89.56 35.63 96.74
  A 1.81 1.79 60.3 0 0 36.56 97.00
  Q 244.76 96.99 452.96 97.02
  Q 455.01 97.02 456.79 96.02
  Q 468.10 89.67 479.09 82.80
  A 0.92 0.90 -16.3 0 0 479.52 82.03
  L 479.50 50.07
  A 1.30 1.02 -73.2 0 0 479.16 49.19
  Q 478.57 48.65 477.79 48.50"
/>
<path stroke="#404555" vector-effect="non-scaling-stroke" d="
  M 477.79 48.50
  L 456.79 35.50"
/>
<path stroke="#646369" vector-effect="non-scaling-stroke" d="
  M 456.79 35.50
  Q 455.70 34.55 454.25 35.04"
/>
<path stroke="#7a7a7c" vector-effect="non-scaling-stroke" d="
  M 454.25 35.04
  Q 445.37 34.81 436.50 34.82
  Q 236.27 35.01 36.04 35.00
  Q 34.00 35.00 32.24 35.99
  Q 22.23 41.63 12.19 47.19
  Q 11.39 47.63 12.04 48.50"
/>
<path stroke="#dddde5" vector-effect="non-scaling-stroke" d="
  M 454.25 35.04
  Q 457.11 35.83 454.75 37.49"
/>
<path stroke="#c8ccda" vector-effect="non-scaling-stroke" d="
  M 454.75 37.49
  Q 246.14 37.51 37.54 37.50
  C 33.33 37.50 27.55 41.61 23.96 43.75"
/>
<path stroke="#cdd0dc" vector-effect="non-scaling-stroke" d="
  M 23.96 43.75
  L 14.71 49.00"
/>
<path stroke="#d9dae3" vector-effect="non-scaling-stroke" d="
  M 14.71 49.00
  L 12.04 48.50"
/>
<path stroke="#81828c" vector-effect="non-scaling-stroke" d="
  M 476.83 51.25
  L 476.71 54.00"
/>
<path stroke="#b0b4c7" vector-effect="non-scaling-stroke" d="
  M 476.71 54.00
  Q 469.78 53.99 462.84 54.00
  C 461.83 54.00 461.33 53.58 461.00 52.71"
/>
<path stroke="#535661" vector-effect="non-scaling-stroke" d="
  M 461.00 52.71
  L 464.59 49.99
  Q 465.02 49.67 464.48 49.67
  L 433.98 49.71
  A 1.61 1.37 23.1 0 0 433.08 49.99
  L 422.75 57.58"
/>
<path stroke="#b7b9ca" vector-effect="non-scaling-stroke" d="
  M 422.75 57.58
  Q 421.53 57.97 420.27 57.51
  Q 420.01 57.41 419.33 57.43
  L 415.54 57.50"
/>
<path stroke="#535661" vector-effect="non-scaling-stroke" d="
  M 415.54 57.50
  L 415.47 50.28
  A 0.51 0.50 89.4 0 0 414.97 49.78
  L 405.50 49.75
  A 0.76 0.48 1.1 0 0 404.75 50.20
  L 404.69 51.11"
/>
<path stroke="#b0b4c7" vector-effect="non-scaling-stroke" d="
  M 404.69 51.11
  C 401.74 51.14 390.91 50.21 389.21 52.00"
/>
<path stroke="#535661" vector-effect="non-scaling-stroke" d="
  M 389.21 52.00
  L 387.75 50.00
  A 1.05 0.81 -14.0 0 0 386.93 49.64
  L 374.98 49.82
  A 0.29 0.29 74.1 0 0 374.74 50.26
  L 381.75 62.21"
/>
<path stroke="#bbbdcd" vector-effect="non-scaling-stroke" d="
  M 381.75 62.21
  L 368.29 63.00"
/>
<path stroke="#535661" vector-effect="non-scaling-stroke" d="
  M 368.29 63.00
  L 368.22 50.29
  A 0.50 0.48 89.4 0 0 367.73 49.79
  L 358.16 49.85
  A 0.53 0.48 90.0 0 0 357.68 50.38
  L 357.71 59.75"
/>
<path stroke="#b7b9ca" vector-effect="non-scaling-stroke" d="
  M 357.71 59.75
  Q 357.42 57.50 357.01 59.56
  A 0.43 0.42 9.1 0 1 356.55 59.89
  Q 352.45 59.46 349.38 60.17"
/>
<path stroke="#535661" vector-effect="non-scaling-stroke" d="
  M 349.38 60.17
  Q 344.12 54.46 337.67 50.03
  A 1.67 1.64 61.4 0 0 336.75 49.75
  L 305.54 49.77
  A 0.50 0.50 0.0 0 0 305.04 50.27
  L 304.96 60.25"
/>
<path stroke="#b7b9ca" vector-effect="non-scaling-stroke" d="
  M 304.96 60.25
  L 298.75 60.48
  A 0.74 0.74 8.8 0 0 298.08 60.97
  L 297.79 61.75"
/>
<path stroke="#535661" vector-effect="non-scaling-stroke" d="
  M 297.79 61.75
  L 297.76 57.96
  A 0.95 0.90 -75.0 0 0 297.35 57.20
  L 286.63 50.04
  A 1.69 1.55 59.7 0 0 285.73 49.76
  L 254.66 49.73
  A 0.49 0.49 0.0 0 0 254.17 50.22
  L 254.04 74.00"
/>
<path stroke="#bbbdcd" vector-effect="non-scaling-stroke" d="
  M 254.04 74.00
  L 253.96 73.00"
/>
<path stroke="#adb1c5" vector-effect="non-scaling-stroke" d="
  M 253.96 73.00
  Q 254.40 64.62 253.11 56.29
  A 1.54 1.37 -38.1 0 1 253.28 55.35
  Q 255.34 51.48 251.01 51.23
  Q 241.54 50.69 224.07 51.11
  C 222.82 51.14 221.86 51.76 220.96 52.50"
/>
<path stroke="#535661" vector-effect="non-scaling-stroke" d="
  M 220.96 52.50
  L 219.70 50.13
  A 0.82 0.77 75.4 0 0 219.00 49.69
  L 201.47 49.69
  A 0.88 0.83 14.0 0 0 200.72 50.11
  L 198.27 54.61"
/>
<path stroke="#b0b4c7" vector-effect="non-scaling-stroke" d="
  M 198.27 54.61
  Q 189.80 53.52 182.24 53.98
  Q 180.43 54.09 180.25 52.46"
/>
<path stroke="#535661" vector-effect="non-scaling-stroke" d="
  M 180.25 52.46
  L 183.33 50.13
  Q 183.79 49.79 183.20 49.79
  L 150.04 49.76
  A 1.67 1.31 -57.4 0 0 149.15 50.07
  L 139.29 57.25"
/>
<path stroke="#b0b4c7" vector-effect="non-scaling-stroke" d="
  M 139.29 57.25
  Q 139.35 55.37 137.69 55.31
  Q 129.73 55.05 125.54 54.33"
/>
<path stroke="#535661" vector-effect="non-scaling-stroke" d="
  M 125.54 54.33
  L 131.04 50.06
  Q 131.41 49.78 130.96 49.78
  L 100.31 49.77
  A 1.56 1.52 -62.5 0 0 99.40 50.07
  L 89.98 57.05
  A 1.33 0.60 -28.9 0 0 89.41 57.81
  L 89.21 60.00"
/>
<path stroke="#bbbdcd" vector-effect="non-scaling-stroke" d="
  M 89.21 60.00
  Q 85.57 59.67 82.04 60.50"
/>
<path stroke="#535661" vector-effect="non-scaling-stroke" d="
  M 82.04 60.50
  L 81.97 50.30
  A 0.52 0.50 90.0 0 0 81.47 49.78
  L 70.31 49.79
  A 1.75 1.61 -59.5 0 0 69.39 50.07
  L 55.92 58.73
  A 0.77 0.75 -44.5 0 1 55.09 58.73
  L 41.61 50.06
  A 1.75 1.61 59.5 0 0 40.69 49.78
  L 29.55 49.77
  A 0.53 0.52 -88.9 0 0 29.03 50.28
  L 28.96 53.00"
/>
<path stroke="#adb1c5" vector-effect="non-scaling-stroke" d="
  M 28.96 53.00
  Q 28.62 52.56 28.62 52.03
  A 0.24 0.24 76.2 0 0 28.27 51.81
  C 27.09 52.44 17.33 51.86 15.04 52.00"
/>
<path stroke="#b3b6c8" vector-effect="non-scaling-stroke" d="
  M 15.04 52.00
  L 14.71 49.00"
/>
<path stroke="#babccc" vector-effect="non-scaling-stroke" d="
  M 15.04 52.00
  L 14.96 58.75"
/>
<path stroke="#d1d0d9" vector-effect="non-scaling-stroke" d="
  M 14.96 58.75
  Q 13.40 57.67 12.61 59.07
  C 11.59 60.91 12.19 71.17 12.04 74.00"
/>
<path stroke="#a2a7bf" vector-effect="non-scaling-stroke" d="
  M 466.07 44.66
  Q 464.30 44.40 463.14 45.20
  A 1.76 1.21 -53.7 0 1 462.25 45.51
  C 316.50 45.62 170.74 45.75 24.99 45.51
  A 0.74 0.53 76.7 0 1 24.43 45.02
  L 23.96 43.75"
/>
<path stroke="#a4a8be" vector-effect="non-scaling-stroke" d="
  M 456.79 35.50
  Q 455.83 36.75 457.31 37.69
  Q 467.10 43.92 477.25 49.54"
/>
<path stroke="#928f95" vector-effect="non-scaling-stroke" d="
  M 477.25 49.54
  L 476.83 51.25"
/>
<path stroke="#b7b9ca" vector-effect="non-scaling-stroke" d="
  M 476.83 51.25
  L 466.07 44.66"
/>
<path stroke="#b2b5c7" vector-effect="non-scaling-stroke" d="
  M 466.07 44.66
  L 454.75 37.49"
/>
<path stroke="#5d5e66" vector-effect="non-scaling-stroke" d="
  M 461.00 52.71
  L 457.83 54.67
  A 1.86 0.93 -45.6 0 1 456.93 54.98
  L 434.06 55.02
  A 0.52 0.50 0.0 0 0 433.54 55.52
  L 433.54 62.23
  A 0.52 0.51 0.6 0 0 434.05 62.74
  L 452.70 62.78
  Q 453.05 62.79 452.80 63.07
  L 450.94 65.19"
/>
<path stroke="#68686c" vector-effect="non-scaling-stroke" d="
  M 450.94 65.19
  L 447.68 66.75
  Q 447.13 67.01 446.75 67.01
  L 434.13 66.89
  A 0.52 0.48 -0.0 0 0 433.61 67.37
  L 433.54 75.41
  A 0.52 0.50 0.5 0 0 434.06 75.92
  L 464.75 75.87"
/>
<path stroke="#727071" vector-effect="non-scaling-stroke" d="
  M 464.75 75.87
  C 465.31 75.78 464.82 76.37 464.70 76.45
  Q 461.37 78.61 458.09 80.93
  A 1.59 1.53 -61.6 0 1 457.19 81.22
  L 423.31 81.23
  A 0.52 0.49 0.0 0 1 422.79 80.74
  L 422.73 76.11"
/>
<path stroke="#646369" vector-effect="non-scaling-stroke" d="
  M 422.73 76.11
  L 422.75 57.58"
/>
<path stroke="#cccbd5" vector-effect="non-scaling-stroke" d="
  M 357.71 69.75
  C 355.46 69.28 350.07 69.83 349.00 67.96"
/>
<path stroke="#c2c3d1" vector-effect="non-scaling-stroke" d="
  M 253.96 73.00
  L 253.79 63.49
  A 1.96 1.58 -89.8 0 0 252.25 61.57
  Q 244.88 61.33 237.69 62.54"
/>
<path stroke="#d5d3da" vector-effect="non-scaling-stroke" d="
  M 422.73 76.11
  L 413.25 75.71"
/>
<path stroke="#68686c" vector-effect="non-scaling-stroke" d="
  M 82.04 60.50
  L 82.04 81.00"
/>
<path stroke="#727071" vector-effect="non-scaling-stroke" d="
  M 82.04 81.00
  L 71.82 81.21
  A 0.54 0.51 88.9 0 1 71.30 80.68
  L 71.21 76.00"
/>
<path stroke="#68686c" vector-effect="non-scaling-stroke" d="
  M 71.21 76.00
  L 71.11 57.20
  A 0.32 0.31 -15.0 0 0 70.64 56.94
  L 61.59 62.21
  Q 61.17 62.46 61.64 62.68
  Q 63.02 63.34 62.49 63.95
  A 1.27 0.72 10.4 0 1 61.60 64.26
  L 53.30 64.23
  A 1.94 1.88 59.9 0 1 52.38 63.97
  L 40.41 56.86
  Q 39.76 56.48 39.76 57.23
  L 39.79 76.25"
/>
<path stroke="#727071" vector-effect="non-scaling-stroke" d="
  M 39.79 76.25
  L 39.64 80.83
  A 0.55 0.49 0.5 0 1 39.09 81.31
  L 29.71 81.30
  A 0.58 0.49 -1.0 0 1 29.13 80.83
  L 28.97 77.78"
/>
<path stroke="#68686c" vector-effect="non-scaling-stroke" d="
  M 28.97 77.78
  L 28.97 63.17"
/>
<path stroke="#5a5c65" vector-effect="non-scaling-stroke" d="
  M 28.97 63.17
  L 28.96 53.00"
/>
<path stroke="#c5c6d2" vector-effect="non-scaling-stroke" d="
  M 476.96 66.00
  L 450.94 65.19"
/>
<path stroke="#c2c3d1" vector-effect="non-scaling-stroke" d="
  M 28.97 63.17
  Q 21.98 62.20 15.04 63.00"
/>
<path stroke="#cccbd6" vector-effect="non-scaling-stroke" d="
  M 15.04 63.00
  L 14.96 58.75"
/>
<path stroke="#646369" vector-effect="non-scaling-stroke" d="
  M 349.38 60.17
  L 349.00 67.96"
/>
<path stroke="#68686c" vector-effect="non-scaling-stroke" d="
  M 349.00 67.96
  L 331.55 68.32
  Q 331.06 68.33 331.46 68.62
  L 347.44 80.07"
/>
<path stroke="#727071" vector-effect="non-scaling-stroke" d="
  M 347.44 80.07
  L 348.36 80.88
  Q 348.86 81.31 348.09 81.30
  L 337.31 81.22
  A 1.64 1.52 -25.7 0 1 336.40 80.94
  Q 327.65 74.77 318.96 68.53
  Q 317.86 67.75 316.32 68.34
  A 0.78 0.67 80.7 0 0 315.89 69.04
  L 315.96 80.70
  A 0.53 0.52 -90.0 0 1 315.44 81.23
  L 305.52 81.27
  A 0.52 0.50 90.0 0 1 305.02 80.75
  L 305.03 69.60"
/>
<path stroke="#646369" vector-effect="non-scaling-stroke" d="
  M 305.03 69.60
  L 304.96 60.25"
/>
<path stroke="#5a5c65" vector-effect="non-scaling-stroke" d="
  M 220.96 52.50
  L 225.84 62.24
  A 0.85 0.75 74.6 0 0 226.56 62.71
  L 237.69 62.54"
/>
<path stroke="#68686c" vector-effect="non-scaling-stroke" d="
  M 237.69 62.54
  Q 234.39 67.22 229.00 67.03
  A 0.33 0.31 -10.8 0 0 228.68 67.47
  L 232.21 74.75"
/>
<path stroke="#727071" vector-effect="non-scaling-stroke" d="
  M 232.21 74.75
  L 235.03 80.73
  A 0.33 0.32 76.4 0 1 234.75 81.20
  L 223.82 81.22
  A 0.91 0.76 73.1 0 1 223.10 80.75
  L 220.28 75.69"
/>
<path stroke="#68686c" vector-effect="non-scaling-stroke" d="
  M 220.28 75.69
  L 216.15 67.28
  A 0.88 0.68 -9.6 0 0 215.40 66.88
  L 204.91 66.91
  A 0.91 0.73 10.9 0 0 204.15 67.31
  L 199.75 75.96"
/>
<path stroke="#727071" vector-effect="non-scaling-stroke" d="
  M 199.75 75.96
  L 197.09 80.89
  A 0.87 0.84 14.0 0 1 196.34 81.32
  L 185.55 81.22
  A 0.32 0.32 -76.7 0 1 185.27 80.76
  L 188.54 74.00"
/>
<path stroke="#68686c" vector-effect="non-scaling-stroke" d="
  M 188.54 74.00
  L 193.29 64.50"
/>
<path stroke="#5d5e66" vector-effect="non-scaling-stroke" d="
  M 193.29 64.50
  L 198.27 54.61"
/>
<path stroke="#5d5e66" vector-effect="non-scaling-stroke" d="
  M 389.21 52.00
  L 404.23 76.07
  Q 404.52 76.52 404.52 76.00
  L 404.69 51.11"
/>
<path stroke="#646369" vector-effect="non-scaling-stroke" d="
  M 415.54 57.50
  L 415.50 72.76
  A 1.26 1.25 66.4 0 1 415.17 73.61
  L 413.25 75.71"
/>
<path stroke="#727071" vector-effect="non-scaling-stroke" d="
  M 413.25 75.71
  L 407.88 80.95
  A 1.27 1.14 20.3 0 1 407.02 81.29
  L 393.80 81.38
  A 0.87 0.84 73.0 0 1 393.06 80.97
  L 389.78 75.60"
/>
<path stroke="#68686c" vector-effect="non-scaling-stroke" d="
  M 389.78 75.60
  L 381.75 62.21"
/>
<path stroke="#646369" vector-effect="non-scaling-stroke" d="
  M 297.79 61.75
  L 298.05 72.90"
/>
<path stroke="#727071" vector-effect="non-scaling-stroke" d="
  M 298.05 72.90
  Q 292.58 77.39 286.43 81.02
  A 1.84 1.76 28.5 0 1 285.51 81.27
  L 254.55 81.24
  A 0.51 0.50 -0.6 0 1 254.04 80.75
  L 253.96 77.00"
/>
<path stroke="#68686c" vector-effect="non-scaling-stroke" d="
  M 253.96 77.00
  L 254.04 74.00"
/>
<path stroke="#c5c6d2" vector-effect="non-scaling-stroke" d="
  M 193.29 64.50
  Q 188.20 63.50 183.12 63.55"
/>
<path stroke="#c5c6d2" vector-effect="non-scaling-stroke" d="
  M 160.74 66.74
  Q 155.15 65.27 149.97 67.31"
/>
<path stroke="#a09c9d" vector-effect="non-scaling-stroke" d="
  M 12.15 79.96
  Q 18.01 81.96 23.00 85.71"
/>
<path stroke="#a49f9f" vector-effect="non-scaling-stroke" d="
  M 23.00 85.71
  L 29.00 89.46"
/>
<path stroke="#a7a2a1" vector-effect="non-scaling-stroke" d="
  M 29.00 89.46
  C 31.88 91.41 35.95 94.75 39.53 94.75
  Q 245.33 94.75 451.13 94.75
  C 455.14 94.75 459.14 91.54 462.20 89.02"
/>
<path stroke="#a49f9f" vector-effect="non-scaling-stroke" d="
  M 462.20 89.02
  Q 464.96 88.37 468.10 85.91"
/>
<path stroke="#a09c9d" vector-effect="non-scaling-stroke" d="
  M 468.10 85.91
  L 476.39 81.08
  A 0.99 0.84 -17.1 0 0 476.88 80.32
  L 476.96 75.75"
/>
<path stroke="#969498" vector-effect="non-scaling-stroke" d="
  M 476.96 75.75
  L 476.96 66.00"
/>
<path stroke="#8b8a92" vector-effect="non-scaling-stroke" d="
  M 476.96 66.00
  L 476.71 54.00"
/>
<path stroke="#68686c" vector-effect="non-scaling-stroke" d="
  M 368.29 63.00
  L 368.29 75.75"
/>
<path stroke="#727071" vector-effect="non-scaling-stroke" d="
  M 368.29 75.75
  L 368.22 80.72
  A 0.55 0.55 -1.7 0 1 367.71 81.26
  Q 362.61 81.71 357.60 80.61"
/>
<path stroke="#68686c" vector-effect="non-scaling-stroke" d="
  M 357.60 80.61
  L 357.71 69.75"
/>
<path stroke="#646369" vector-effect="non-scaling-stroke" d="
  M 357.71 69.75
  L 357.71 59.75"
/>
<path stroke="#5d5e66" vector-effect="non-scaling-stroke" d="
  M 125.54 54.33
  Q 113.12 55.42 100.65 55.08
  A 0.53 0.50 1.1 0 0 100.11 55.57
  L 100.04 62.24
  A 0.52 0.49 0.5 0 0 100.56 62.74
  L 119.21 62.80
  Q 119.73 62.80 119.36 63.14
  L 117.21 65.13"
/>
<path stroke="#68686c" vector-effect="non-scaling-stroke" d="
  M 117.21 65.13
  C 113.47 68.10 105.25 67.05 100.64 66.91
  A 0.52 0.49 1.7 0 0 100.10 67.39
  L 100.04 75.48
  A 0.51 0.50 0.0 0 0 100.55 75.98
  L 131.45 75.93"
/>
<path stroke="#727071" vector-effect="non-scaling-stroke" d="
  M 131.45 75.93
  C 128.79 78.33 125.35 81.26 121.57 81.26
  Q 105.69 81.25 89.81 81.24
  A 0.52 0.52 89.4 0 1 89.29 80.73
  L 89.21 78.25"
/>
<path stroke="#68686c" vector-effect="non-scaling-stroke" d="
  M 89.21 78.25
  L 89.21 60.00"
/>
<path stroke="#c5c6d2" vector-effect="non-scaling-stroke" d="
  M 139.21 66.00
  L 117.21 65.13"
/>
<path stroke="#5d5e66" vector-effect="non-scaling-stroke" d="
  M 180.25 52.46
  L 176.85 54.70
  A 1.79 1.46 -56.8 0 1 175.94 54.99
  L 150.55 55.02
  A 0.51 0.51 -89.4 0 0 150.04 55.52
  L 149.97 67.31"
/>
<path stroke="#68686c" vector-effect="non-scaling-stroke" d="
  M 149.97 67.31
  L 149.93 75.42
  A 0.50 0.48 90.0 0 0 150.41 75.92
  L 171.70 75.96
  A 0.51 0.51 0.0 0 0 172.21 75.45
  L 172.22 67.30
  A 0.52 0.48 0.6 0 0 171.71 66.82
  L 160.74 66.74"
/>
<path stroke="#5d5e66" vector-effect="non-scaling-stroke" d="
  M 160.74 66.74
  C 163.58 64.71 166.14 62.72 169.78 62.60
  Q 176.51 62.37 183.12 63.55"
/>
<path stroke="#68686c" vector-effect="non-scaling-stroke" d="
  M 183.12 63.55
  L 182.75 73.71"
/>
<path stroke="#727071" vector-effect="non-scaling-stroke" d="
  M 182.75 73.71
  L 173.07 80.91
  A 1.56 1.39 -61.0 0 1 172.18 81.22
  L 139.80 81.23
  A 0.51 0.51 89.4 0 1 139.29 80.73
  L 139.21 75.00"
/>
<path stroke="#68686c" vector-effect="non-scaling-stroke" d="
  M 139.21 75.00
  L 139.21 66.00"
/>
<path stroke="#5d5e66" vector-effect="non-scaling-stroke" d="
  M 139.21 66.00
  L 139.29 57.25"
/>
<path stroke="#dad7dd" vector-effect="non-scaling-stroke" d="
  M 15.04 63.00
  L 14.80 77.18
  A 0.48 0.48 -89.4 0 0 15.28 77.67
  L 28.97 77.78"
/>
<path stroke="#dad7dd" vector-effect="non-scaling-stroke" d="
  M 82.04 81.00
  Q 84.05 78.19 87.35 79.49
  A 1.31 0.83 34.1 0 0 88.29 79.52
  Q 89.02 79.16 89.21 78.25"
/>
<path stroke="#dad7dd" vector-effect="non-scaling-stroke" d="
  M 131.45 75.93
  Q 135.12 74.34 139.21 75.00"
/>
<path stroke="#dad7dd" vector-effect="non-scaling-stroke" d="
  M 182.75 73.71
  Q 185.67 72.52 188.54 74.00"
/>
<path stroke="#dad7dd" vector-effect="non-scaling-stroke" d="
  M 199.75 75.96
  L 220.28 75.69"
/>
<path stroke="#dad7dd" vector-effect="non-scaling-stroke" d="
  M 232.21 74.75
  Q 244.96 73.72 252.06 74.19
  Q 254.18 74.33 253.96 77.00"
/>
<path stroke="#d5d3da" vector-effect="non-scaling-stroke" d="
  M 298.05 72.90
  Q 297.67 67.61 298.76 70.54
  A 0.79 0.75 80.9 0 0 299.43 71.05
  Q 302.50 71.20 305.03 69.60"
/>
<path stroke="#dad7dd" vector-effect="non-scaling-stroke" d="
  M 347.44 80.07
  Q 350.74 77.38 356.02 78.28
  Q 357.67 78.57 357.60 80.61"
/>
<path stroke="#dad7dd" vector-effect="non-scaling-stroke" d="
  M 368.29 75.75
  Q 379.02 76.50 389.78 75.60"
/>
<path stroke="#dad7dd" vector-effect="non-scaling-stroke" d="
  M 464.75 75.87
  Q 470.87 73.93 476.96 75.75"
/>
<path stroke="#e7e3e4" vector-effect="non-scaling-stroke" d="
  M 468.10 85.91
  Q 467.37 84.22 464.50 84.22
  Q 345.72 84.23 226.94 84.39
  C 169.60 84.47 112.25 83.84 54.91 84.28
  C 45.87 84.35 34.59 83.84 26.50 84.22
  Q 25.23 84.27 23.00 85.71"
/>
<path stroke="#6e7180" vector-effect="non-scaling-stroke" d="
  M 477.79 48.50
  L 477.25 49.54"
/>
<path stroke="#dad7dd" vector-effect="non-scaling-stroke" d="
  M 71.21 76.00
  L 39.79 76.25"
/>
<path stroke="#eee9e8" vector-effect="non-scaling-stroke" d="
  M 462.20 89.02
  Q 453.72 86.72 444.99 88.03
  Q 444.53 88.10 444.03 87.94
  C 442.13 87.34 440.16 87.90 438.75 87.90
  Q 404.63 87.89 370.50 88.07
  C 369.26 88.08 361.38 87.28 360.99 87.51
  A 1.16 0.27 -35.0 0 1 360.19 87.83
  C 356.24 87.33 351.58 87.77 348.59 87.79
  Q 334.71 87.90 320.84 87.98
  A 0.43 0.30 75.2 0 1 320.52 87.71
  Q 320.44 87.54 320.25 87.55
  Q 307.87 88.17 295.50 87.53
  C 293.27 87.41 290.24 87.92 287.75 87.91
  Q 266.72 87.75 245.69 87.90
  Q 244.52 87.90 242.49 87.56
  C 239.78 87.11 236.67 87.97 234.09 87.88
  Q 231.46 87.78 231.41 87.78
  C 212.88 87.95 194.35 87.78 175.81 87.81
  Q 103.65 87.91 31.50 87.81
  Q 29.71 87.81 29.00 89.46"
/>
<path stroke="#7f0701" vector-effect="non-scaling-stroke" d="
  M 211.75 118.96
  L 216.97 123.61
  A 1.46 0.83 54.5 0 0 217.81 124.00
  L 274.19 123.99
  A 1.37 1.04 -60.7 0 0 275.02 123.63
  L 280.00 118.96"
/>
<path stroke="#535256" vector-effect="non-scaling-stroke" d="
  M 280.00 118.96
  L 378.70 118.99
  A 2.29 2.27 -67.3 0 0 380.31 118.32
  L 394.98 103.66
  A 0.31 0.30 -59.1 0 0 394.86 103.15
  Q 393.50 102.78 392.25 103.04"
/>
<path stroke="#68686c" vector-effect="non-scaling-stroke" d="
  M 392.25 103.04
  L 390.34 103.09"
/>
<path stroke="#505053" vector-effect="non-scaling-stroke" d="
  M 390.34 103.09
  L 295.28 103.13"
/>
<path stroke="#7f0701" vector-effect="non-scaling-stroke" d="
  M 295.28 103.13
  L 293.29 103.25"
/>
<path stroke="#73392f" vector-effect="non-scaling-stroke" d="
  M 293.29 103.25
  L 291.75 103.04"
/>
<path stroke="#771306" vector-effect="non-scaling-stroke" d="
  M 291.75 103.04
  L 200.50 103.04"
/>
<path stroke="#73392f" vector-effect="non-scaling-stroke" d="
  M 200.50 103.04
  L 198.50 103.04"
/>
<path stroke="#7f0701" vector-effect="non-scaling-stroke" d="
  M 198.50 103.04
  L 196.92 103.12"
/>
<path stroke="#505053" vector-effect="non-scaling-stroke" d="
  M 196.92 103.12
  L 97.27 103.06
  Q 96.74 103.06 97.11 103.43
  L 111.80 118.31
  A 2.46 2.19 -19.8 0 0 113.49 118.99
  L 211.75 118.96"
/>
<path stroke="#ce5753" vector-effect="non-scaling-stroke" d="
  M 196.92 103.12
  L 208.25 115.46"
/>
<path stroke="#b8b8bf" vector-effect="non-scaling-stroke" d="
  M 208.25 115.46
  L 207.18 115.76
  Q 206.28 116.01 206.24 116.01
  L 113.55 115.99
  A 1.31 1.30 -23.9 0 1 112.68 115.66
  C 111.28 114.42 101.13 104.35 100.50 104.49
  Q 100.00 104.61 100.41 105.03
  L 111.67 116.62
  A 1.27 1.04 64.0 0 0 112.50 117.00
  L 208.55 117.00
  A 0.96 0.19 -38.4 0 0 209.18 116.68
  L 209.50 116.46"
/>
<path stroke="#ce5753" vector-effect="non-scaling-stroke" d="
  M 209.50 116.46
  Q 210.98 117.42 211.75 118.96"
/>
<path stroke="#f24030" vector-effect="non-scaling-stroke" d="
  M 198.50 103.04
  L 216.35 121.22
  A 2.48 2.45 -21.8 0 0 218.08 121.95
  Q 242.76 122.13 266.32 122.29
  C 268.49 122.31 271.41 121.82 274.07 122.04
  A 1.12 1.03 23.2 0 0 274.92 121.74
  L 293.29 103.25"
/>
<path stroke="#ce5753" vector-effect="non-scaling-stroke" d="
  M 295.28 103.13
  L 283.25 115.71"
/>
<path stroke="#e76e6d" vector-effect="non-scaling-stroke" d="
  M 283.25 115.71
  L 282.21 116.75"
/>
<path stroke="#d25957" vector-effect="non-scaling-stroke" d="
  M 282.21 116.75
  L 280.00 118.96"
/>
<path stroke="#e76e6d" vector-effect="non-scaling-stroke" d="
  M 209.50 116.46
  L 208.25 115.46"
/>
<path stroke="#ea4c35" vector-effect="non-scaling-stroke" d="
  M 200.50 103.04
  L 200.68 103.54
  Q 200.93 104.26 201.07 104.40
  L 216.54 119.90
  Q 217.89 121.25 219.84 121.24
  L 274.00 121.07
  A 1.15 1.13 -68.0 0 0 274.83 120.71
  C 276.91 118.53 291.77 104.28 291.75 103.04"
/>
<path stroke="#b8b8bf" vector-effect="non-scaling-stroke" d="
  M 390.34 103.09
  Q 385.13 109.97 378.64 115.68
  A 1.35 1.29 23.2 0 1 377.76 116.01
  Q 331.83 115.99 285.93 116.00
  C 285.11 116.00 284.20 115.62 283.25 115.71"
/>
<path stroke="#bbbac2" vector-effect="non-scaling-stroke" d="
  M 392.25 103.04
  L 392.25 103.29
  A 0.60 0.40 74.8 0 1 392.11 103.71
  L 379.41 116.17
  A 3.07 2.89 21.6 0 1 377.32 117.00
  C 369.28 117.00 282.36 117.19 282.21 116.75"
/>
<path stroke="#5d5e66" vector-effect="non-scaling-stroke" d="
  M 206.60 62.26
  A 0.32 0.32 14.1 0 0 206.88 62.72
  L 213.46 62.77
  A 0.32 0.32 -12.9 0 0 213.75 62.31
  L 210.51 55.68
  A 0.32 0.32 45.4 0 0 209.94 55.68
  L 206.60 62.26"
/>
<path stroke="#68686c" vector-effect="non-scaling-stroke" d="
  M 264.76 68.59
  L 264.76 75.34
  A 0.70 0.66 0.4 0 0 265.45 76.00
  L 286.69 76.05
  A 0.52 0.47 0.0 0 0 287.21 75.58
  L 287.21 69.00"
/>
<path stroke="#606068" vector-effect="non-scaling-stroke" d="
  M 287.21 69.00
  L 287.24 55.50
  A 0.49 0.49 0.0 0 0 286.75 55.01
  L 265.29 55.03
  A 0.50 0.50 0.0 0 0 264.79 55.53
  L 264.76 68.59"
/>
<path stroke="#c8c8d4" vector-effect="non-scaling-stroke" d="
  M 287.21 69.00
  L 264.76 68.59"
/>
<path stroke="#5d5e66" vector-effect="non-scaling-stroke" d="
  M 338.2574 55.2794
  A 0.26 0.26 0.0 0 0 337.9979 55.0190
  L 316.2379 54.9810
  A 0.26 0.26 0.0 0 0 315.9774 55.2406
  L 315.9626 63.7406
  A 0.26 0.26 0.0 0 0 316.2221 64.0010
  L 337.9821 64.0390
  A 0.26 0.26 0.0 0 0 338.2426 63.7794
  L 338.2574 55.2794"
/>
<path stroke="#c9cace" vector-effect="non-scaling-stroke" d="
  M 125.11 109.49
  Q 124.02 107.46 121.48 108.20
  A 0.68 0.64 -9.8 0 0 120.99 108.85
  L 121.08 112.35
  A 0.55 0.55 89.4 0 0 121.62 112.88
  L 123.63 112.90
  A 0.56 0.45 -86.9 0 0 124.10 112.38
  Q 124.13 111.89 124.42 111.51
  A 0.41 0.35 47.3 0 1 125.03 111.58
  Q 125.69 112.53 126.70 113.03
  A 0.35 0.34 13.5 0 0 127.20 112.73
  L 127.24 108.74
  A 0.36 0.35 79.0 0 0 126.75 108.40
  Q 125.96 108.74 125.53 109.49
  Q 125.31 109.87 125.11 109.49"
/>
<path stroke="#cfd0d2" vector-effect="non-scaling-stroke" d="
  M 136.71 112.50
  Q 137.98 113.30 138.23 111.90
  Q 138.31 111.46 138.59 111.78
  Q 140.48 113.95 142.81 112.24
  A 0.75 0.75 41.9 0 1 143.62 112.20
  Q 144.51 112.72 145.55 112.62
  A 0.31 0.30 70.0 0 0 145.76 112.14
  C 144.97 110.97 144.63 108.77 143.46 108.32
  A 0.63 0.57 -65.2 0 0 142.73 108.63
  C 142.38 109.28 141.50 112.30 140.42 111.92
  A 0.56 0.48 -70.5 0 1 140.15 111.23
  Q 141.70 107.09 137.08 108.23
  A 0.65 0.64 82.8 0 0 136.59 108.87
  L 136.71 112.25"
/>
<path stroke="#c9cace" vector-effect="non-scaling-stroke" d="
  M 136.71 112.25
  L 133.65 111.68
  Q 132.95 111.56 133.67 111.39
  Q 138.35 110.35 133.77 109.76
  Q 133.20 109.69 133.58 109.31
  C 134.14 108.77 136.17 109.31 136.03 108.57
  A 0.73 0.61 -5.2 0 0 135.32 108.08
  L 128.25 108.19
  Q 127.74 108.20 128.11 108.59
  C 129.51 110.07 128.03 112.92 129.72 112.99
  A 0.55 0.47 -87.9 0 0 130.22 112.45
  L 130.28 110.06
  A 1.23 0.88 76.8 0 1 130.63 109.21
  Q 131.17 108.76 131.69 109.14
  A 1.14 0.55 -84.4 0 1 132.00 109.98
  L 132.07 112.35
  A 0.67 0.60 4.6 0 0 132.63 112.94
  Q 134.77 113.31 136.71 112.50"
/>
<path stroke="#f9fafb" vector-effect="non-scaling-stroke" d="
  M 136.71 112.25
  L 136.71 112.50"
/>
<path stroke="#cfd0d2" vector-effect="non-scaling-stroke" d="
  M 161.40 110.10
  Q 161.56 110.73 161.29 112.08
  A 0.59 0.55 -75.7 0 0 161.65 112.74
  Q 163.01 113.18 164.44 113.00
  Q 165.28 112.89 164.86 112.45
  Q 164.58 112.16 163.68 112.01
  Q 163.21 111.93 163.60 111.61
  L 164.85 110.55
  Q 165.33 110.15 164.45 110.02
  Q 161.04 109.53 164.41 108.91
  A 0.83 0.52 -2.2 0 0 165.03 108.49
  C 165.28 107.67 161.29 108.21 160.53 108.11
  A 0.65 0.63 -75.0 0 0 159.86 108.51
  Q 158.32 112.40 157.94 108.94
  A 0.69 0.68 -87.2 0 0 157.40 108.33
  Q 154.37 107.71 151.28 108.18
  Q 150.81 108.25 151.14 108.60
  C 152.26 109.79 151.71 113.18 152.63 112.99
  A 0.69 0.68 85.8 0 0 153.18 112.34
  L 153.26 110.23
  A 1.54 0.71 82.2 0 1 153.53 109.34
  Q 154.61 108.05 154.95 109.78
  Q 155.02 110.15 154.85 110.74
  C 154.32 112.53 156.31 114.07 156.26 112.10
  Q 156.23 110.83 156.28 109.59
  Q 156.33 108.22 157.60 111.90
  A 1.93 1.89 -82.1 0 0 158.31 112.86
  Q 159.21 113.51 160.56 110.05
  Q 161.05 108.80 161.40 110.10"
/>
<path stroke="#cfd0d2" vector-effect="non-scaling-stroke" d="
  M 171.38 109.19
  C 171.91 109.93 172.04 113.16 172.42 113.04
  A 0.76 0.72 82.8 0 0 172.94 112.33
  L 173.00 108.81
  A 0.68 0.68 7.5 0 0 172.48 108.14
  Q 170.82 107.71 169.68 110.23
  Q 169.46 110.70 169.28 110.22
  Q 168.46 108.11 167.65 108.23
  A 0.53 0.42 73.1 0 0 167.38 108.93
  L 168.78 112.46
  Q 169.50 114.26 170.34 112.47
  Q 171.00 111.06 171.06 109.32
  Q 171.08 108.76 171.38 109.19"
/>
<path stroke="#cfd0d2" vector-effect="non-scaling-stroke" d="
  M 174.12 112.52
  A 0.63 0.63 -4.2 0 0 174.70 113.02
  Q 179.56 113.32 177.70 109.19
  A 1.32 1.30 -0.4 0 0 177.02 108.53
  Q 172.87 106.74 174.12 112.52"
/>
<path stroke="#cfd0d2" vector-effect="non-scaling-stroke" d="
  M 180.28 111.55
  C 180.41 111.11 184.99 110.57 180.88 109.90
  A 0.68 0.56 4.9 0 1 180.31 109.34
  C 180.29 108.68 181.74 109.41 182.43 108.86
  A 0.36 0.35 37.3 0 0 182.34 108.26
  Q 180.90 107.60 179.33 108.22
  A 0.78 0.70 79.9 0 0 178.89 108.92
  L 178.88 112.31
  A 0.67 0.62 -84.0 0 0 179.36 112.95
  Q 180.91 113.31 182.37 112.67
  Q 182.89 112.44 182.41 112.14
  Q 181.67 111.66 180.69 111.85
  A 0.34 0.25 -0.1 0 1 180.28 111.55"
/>
<path stroke="#cfd0d2" vector-effect="non-scaling-stroke" d="
  M 187.85 110.60
  A 2.48 2.48 0.0 0 0 185.37 108.12
  A 2.48 2.48 0.0 0 0 182.89 110.60
  A 2.48 2.48 0.0 0 0 185.37 113.08
  A 2.48 2.48 0.0 0 0 187.85 110.60"
/>
<path stroke="#cfd0d2" vector-effect="non-scaling-stroke" d="
  M 147.48 111.20
  Q 147.10 108.35 149.62 109.79
  A 0.43 0.37 21.8 0 0 150.23 109.58
  Q 150.38 108.87 149.48 108.47
  Q 145.85 106.86 145.97 110.01
  Q 146.12 113.90 149.51 112.73
  A 1.02 0.88 -4.9 0 0 150.14 112.09
  Q 150.27 111.62 150.11 111.32
  A 0.55 0.37 -35.7 0 0 149.39 111.34
  Q 148.81 111.81 148.06 111.77
  A 0.66 0.62 87.6 0 1 147.48 111.20"
/>
<path stroke="#f69386" vector-effect="non-scaling-stroke" d="
  M 222.70 110.32
  L 222.77 116.20
  A 0.82 0.75 -79.0 0 0 223.22 116.93
  Q 225.10 117.76 225.01 115.76
  Q 224.69 109.21 224.63 107.24
  Q 224.58 105.56 223.05 106.58
  Q 221.46 107.64 220.34 109.08
  Q 219.66 109.95 220.16 110.69
  A 0.48 0.41 -39.6 0 0 220.84 110.70
  Q 221.45 110.13 222.19 109.91
  A 0.43 0.40 82.1 0 1 222.70 110.32"
/>
<path stroke="#f69386" vector-effect="non-scaling-stroke" d="
  M 247.97 111.13
  C 251.85 106.06 242.86 106.30 240.82 106.49
  A 0.57 0.55 87.7 0 0 240.33 107.04
  L 240.25 116.24
  A 0.59 0.56 -84.9 0 0 240.72 116.83
  C 242.89 117.21 247.61 117.67 248.90 115.27
  Q 249.88 113.43 248.04 111.83
  A 0.51 0.51 39.6 0 1 247.97 111.13"
/>
<path stroke="#f69386" vector-effect="non-scaling-stroke" d="
  M 253.1365 107.2869
  A 0.98 0.98 0.0 0 0 252.1446 106.3189
  L 251.9046 106.3219
  A 0.98 0.98 0.0 0 0 250.9367 107.3138
  L 251.0435 116.0531
  A 0.98 0.98 0.0 0 0 252.0354 117.0211
  L 252.2754 117.0181
  A 0.98 0.98 0.0 0 0 253.2433 116.0262
  L 253.1365 107.2869"
/>
<path stroke="#f69386" vector-effect="non-scaling-stroke" d="
  M 257.51 109.47
  C 257.52 110.64 256.33 118.73 259.41 116.80
  A 0.95 0.78 76.4 0 0 259.79 116.02
  L 259.77 109.04
  A 0.77 0.68 81.6 0 1 260.23 108.33
  Q 260.89 108.11 261.56 108.35
  A 0.86 0.64 29.1 0 0 262.39 108.24
  Q 263.02 107.58 262.69 106.78
  A 0.83 0.64 -9.0 0 0 261.95 106.38
  L 254.98 106.48
  A 0.82 0.63 6.7 0 0 254.26 106.91
  Q 254.02 107.59 254.41 108.20
  A 0.69 0.53 -25.8 0 0 255.18 108.36
  Q 256.36 107.90 257.17 108.60
  A 1.31 0.94 -75.8 0 1 257.51 109.47"
/>
<path stroke="#f69386" vector-effect="non-scaling-stroke" d="
  M 231.50 117.38
  C 236.54 115.31 235.12 109.23 230.64 110.32
  A 0.37 0.36 -5.4 0 1 230.18 109.95
  Q 230.38 107.06 232.92 108.96
  A 1.32 0.89 50.7 0 0 233.82 109.23
  C 235.94 108.83 232.10 104.73 229.43 107.27
  C 227.63 108.99 227.63 112.19 228.19 114.53
  Q 229.11 118.36 231.50 117.38"
/>
<path stroke="#f69386" vector-effect="non-scaling-stroke" d="
  M 266.16 114.21
  Q 265.52 112.58 263.91 113.61
  A 0.58 0.57 61.2 0 0 263.70 114.35
  Q 265.93 118.95 270.98 116.19
  Q 273.18 114.99 271.97 113.03
  Q 270.58 110.76 267.95 110.38
  A 1.98 1.24 -10.2 0 1 267.05 110.02
  Q 264.86 108.25 268.10 108.18
  A 1.01 0.80 69.2 0 1 268.84 108.62
  Q 269.69 109.92 271.36 109.60
  A 0.44 0.44 73.6 0 0 271.68 109.00
  C 269.64 103.68 260.52 107.25 265.39 111.71
  A 1.65 1.16 -13.5 0 0 266.27 112.06
  Q 268.34 112.23 269.55 113.78
  A 0.58 0.58 48.9 0 1 269.50 114.55
  Q 268.21 115.78 266.73 114.96
  A 1.58 0.87 81.6 0 1 266.16 114.21"
/>
<path stroke="#cfd0d2" vector-effect="non-scaling-stroke" d="
  M 295.86 109.30
  Q 296.32 108.85 297.02 108.93
  A 1.15 0.58 15.1 0 0 297.90 108.75
  C 298.96 107.70 295.42 108.00 294.69 108.50
  A 1.08 0.62 81.8 0 0 294.37 109.30
  L 294.30 112.28
  A 0.55 0.47 -86.5 0 0 294.71 112.83
  Q 300.61 113.53 296.16 111.65
  Q 295.72 111.46 296.20 111.35
  Q 300.08 110.47 296.06 109.77
  Q 295.48 109.67 295.86 109.30"
/>
<path stroke="#cfd0d2" vector-effect="non-scaling-stroke" d="
  M 304.71 109.81
  L 304.77 112.20
  A 0.98 0.77 -79.9 0 0 305.18 112.97
  C 306.08 113.50 306.02 109.76 306.90 108.69
  Q 307.28 108.23 306.77 108.22
  L 302.62 108.12
  A 0.80 0.57 -77.2 0 0 302.00 108.67
  L 301.09 111.34
  A 0.88 0.77 -59.1 0 0 301.24 112.18
  C 304.75 115.97 301.41 108.07 304.23 109.10
  A 0.79 0.72 -81.4 0 1 304.71 109.81"
/>
<path stroke="#cfd0d2" vector-effect="non-scaling-stroke" d="
  M 313.75 111.31
  L 314.18 111.42
  A 1.09 0.47 77.6 0 1 314.71 112.16
  Q 315.00 113.12 315.98 112.94
  A 0.36 0.32 67.5 0 0 316.17 112.40
  Q 315.26 110.99 316.07 109.43
  A 0.60 0.54 -59.5 0 0 315.92 108.69
  Q 314.24 107.52 312.21 108.19
  A 1.58 1.54 43.7 0 1 311.28 108.20
  Q 309.69 107.72 308.14 108.23
  A 0.68 0.65 80.1 0 0 307.68 108.91
  L 307.84 112.39
  A 0.55 0.53 88.9 0 0 308.37 112.92
  L 312.57 112.90
  A 0.66 0.59 3.0 0 0 313.20 112.39
  L 313.30 111.75
  A 0.49 0.34 -79.4 0 1 313.75 111.31"
/>
<path stroke="#c9cace" vector-effect="non-scaling-stroke" d="
  M 317.19 108.93
  A 0.87 0.87 -84.1 0 1 317.84 109.73
  Q 317.98 112.55 318.66 112.82
  Q 319.16 113.03 319.00 112.26
  Q 318.54 110.08 320.07 108.75
  Q 320.45 108.41 319.98 108.26
  Q 318.93 107.92 317.69 108.04
  A 0.94 0.75 8.4 0 0 317.02 108.43
  Q 316.78 108.83 317.19 108.93"
/>
<path stroke="#c9cace" vector-effect="non-scaling-stroke" d="
  M 329.16 109.46
  Q 328.91 108.88 328.41 108.48
  A 1.24 0.24 0.4 0 0 327.51 108.30
  L 325.77 108.20
  A 0.71 0.46 7.3 0 0 325.10 108.52
  Q 324.83 109.39 325.10 110.27
  A 1.67 0.60 64.8 0 1 325.19 111.24
  Q 325.05 111.72 324.74 111.69
  A 0.91 0.49 82.4 0 1 324.22 110.97
  Q 323.93 109.59 323.12 108.51
  A 0.63 0.62 41.5 0 0 322.08 108.57
  C 321.74 109.17 319.95 112.25 320.38 112.78
  A 0.54 0.37 -40.5 0 0 321.03 112.71
  Q 322.64 111.38 324.18 112.66
  A 1.01 0.99 -30.6 0 0 325.03 112.87
  Q 326.15 112.65 327.29 112.91
  A 0.72 0.58 18.6 0 0 328.04 112.63
  Q 328.33 112.09 328.32 111.45
  A 1.04 0.68 75.7 0 1 328.55 110.78
  C 328.90 110.42 329.45 112.48 330.44 112.85
  A 0.39 0.39 -80.6 0 0 330.97 112.47
  L 330.86 108.67
  Q 330.84 107.99 330.40 108.51
  L 329.56 109.51
  A 0.24 0.23 -37.1 0 1 329.16 109.46"
/>
<path stroke="#cfd0d2" vector-effect="non-scaling-stroke" d="
  M 333.79 111.29
  Q 333.43 112.72 334.72 112.92
  A 0.41 0.38 89.2 0 0 335.15 112.45
  Q 334.79 110.30 333.45 108.50
  A 0.94 0.62 60.4 0 0 332.65 108.09
  Q 332.20 108.18 331.99 108.76
  Q 331.06 111.28 331.80 112.43
  Q 332.34 113.27 332.88 112.81
  A 1.30 0.48 87.9 0 0 333.17 111.93
  Q 333.21 111.44 333.53 111.11
  Q 333.93 110.69 333.79 111.29"
/>
<path stroke="#cfd0d2" vector-effect="non-scaling-stroke" d="
  M 338.01 112.49
  A 0.62 0.59 -2.8 0 0 338.67 113.06
  Q 343.36 112.79 339.59 111.90
  A 0.60 0.49 10.3 0 1 339.12 111.34
  Q 339.17 110.91 339.62 111.01
  A 1.27 0.31 16.8 0 0 340.57 111.06
  Q 340.87 110.90 340.95 110.60
  A 0.57 0.44 10.5 0 0 340.45 110.04
  Q 337.30 109.56 340.80 108.81
  Q 341.91 108.57 340.84 108.17
  Q 339.57 107.71 338.34 108.21
  A 0.76 0.74 -12.4 0 0 337.86 108.93
  L 338.01 112.49"
/>
<path stroke="#cfd0d2" vector-effect="non-scaling-stroke" d="
  M 346.50 108.50
  Q 346.04 108.21 345.55 108.23
  A 0.90 0.45 -72.5 0 0 344.98 108.82
  L 344.26 110.58
  A 1.29 0.24 -65.2 0 0 344.03 111.48
  Q 344.27 112.69 345.51 112.91
  A 0.41 0.37 -87.5 0 0 345.95 112.47
  Q 345.79 110.39 346.50 108.50"
/>
<path stroke="#cfd0d2" vector-effect="non-scaling-stroke" d="
  M 346.50 108.50
  Q 348.68 109.71 348.04 112.22
  A 0.68 0.54 -71.6 0 0 348.31 112.96
  C 349.38 113.46 349.00 110.35 349.07 109.88
  A 1.04 0.99 -11.3 0 1 349.59 109.14
  C 353.09 107.17 347.14 107.95 346.50 108.50"
/>
<path stroke="#c9cace" vector-effect="non-scaling-stroke" d="
  M 353.19 108.94
  Q 352.07 111.12 352.74 111.94
  Q 354.42 114.03 356.23 112.38
  A 0.92 0.76 65.1 0 0 356.45 111.53
  L 355.90 109.23
  A 1.66 0.99 -87.6 0 0 355.45 108.40
  Q 354.05 107.25 353.19 108.94"
/>
<path stroke="#c8c6c8" vector-effect="non-scaling-stroke" d="
  M 358.86 109.00
  L 357.78 108.24
  A 0.71 0.30 39.3 0 0 357.16 108.06
  C 356.75 108.30 358.47 111.65 358.60 112.44
  A 0.74 0.48 89.6 0 0 358.97 113.00
  Q 359.17 113.07 359.37 113.02
  A 0.78 0.50 81.9 0 0 359.72 112.26
  Q 359.63 111.10 360.17 110.10
  A 1.69 0.92 -12.2 0 1 360.89 109.48
  Q 362.00 108.92 360.88 108.22
  A 0.66 0.52 -51.5 0 0 360.14 108.39
  L 359.69 108.86
  A 0.68 0.59 -50.2 0 1 358.86 109.00"
/>
<path stroke="#c9cace" vector-effect="non-scaling-stroke" d="
  M 362.19 108.69
  Q 361.65 109.20 361.97 109.67
  A 0.79 0.60 46.3 0 1 362.06 110.43
  C 360.70 112.81 364.07 113.94 365.18 112.39
  A 1.28 1.00 -38.0 0 0 365.41 111.47
  L 364.76 108.52
  Q 364.34 106.62 362.19 108.69"
/>
<path stroke="#cfd0d2" vector-effect="non-scaling-stroke" d="
  M 371.66 111.78
  Q 370.68 111.52 371.68 111.35
  Q 373.51 111.03 373.89 110.54
  A 0.49 0.32 17.1 0 0 373.44 110.00
  Q 369.00 109.39 373.48 108.95
  A 0.86 0.50 -0.5 0 0 374.20 108.52
  C 374.41 107.59 367.20 108.08 366.46 108.14
  A 0.29 0.29 70.6 0 0 366.25 108.59
  Q 367.28 110.13 367.03 112.02
  A 0.98 0.71 -72.5 0 0 367.31 112.85
  Q 368.04 113.38 368.47 112.47
  A 1.44 0.94 58.2 0 0 368.49 111.55
  Q 367.72 108.91 369.60 109.30
  A 0.57 0.51 -79.9 0 1 369.99 109.93
  Q 369.28 114.60 373.79 112.69
  Q 374.11 112.56 374.73 112.58
  L 378.98 112.71
  A 0.55 0.40 -87.7 0 0 379.40 112.17
  L 379.52 109.62
  A 1.40 0.59 -78.5 0 0 379.34 108.73
  Q 378.04 107.04 377.51 109.56
  Q 377.42 110.02 377.12 109.63
  Q 374.25 105.91 374.99 111.46
  A 0.54 0.53 85.7 0 1 374.47 112.07
  Q 372.85 112.10 371.66 111.78"
/>
<path stroke="#cfd0d2" vector-effect="non-scaling-stroke" d="
  M 299.17 108.63
  Q 298.47 111.05 299.15 112.62
  A 0.37 0.37 -35.1 0 0 299.75 112.72
  Q 301.91 110.50 300.13 108.43
  Q 299.46 107.65 299.17 108.63"
/>
<path stroke="#cfd0d2" vector-effect="non-scaling-stroke" d="
  M 336.73 108.39
  C 333.69 106.48 335.67 112.07 336.16 112.75
  A 0.42 0.31 57.4 0 0 336.61 112.92
  L 336.86 112.80
  A 0.99 0.37 85.3 0 0 337.10 111.94
  L 337.05 109.19
  A 1.04 0.57 -83.1 0 0 336.73 108.39"
/>
<path stroke="#cfd0d2" vector-effect="non-scaling-stroke" d="
  M 341.72 111.88
  Q 341.34 112.86 342.42 112.94
  A 0.72 0.52 -75.3 0 0 343.01 112.45
  L 343.88 110.04
  A 0.92 0.68 -59.0 0 0 343.80 109.21
  Q 341.49 106.52 341.89 110.94
  Q 341.92 111.35 341.72 111.88"
/>
<path stroke="#f69386" vector-effect="non-scaling-stroke" d="
  M 245.94 108.75
  Q 242.46 106.97 242.79 110.08
  A 0.68 0.67 -88.9 0 0 243.35 110.67
  Q 245.02 110.94 246.04 110.21
  A 0.86 0.86 41.1 0 0 245.94 108.75"
/>
<path stroke="#f69386" vector-effect="non-scaling-stroke" d="
  M 246.06 112.69
  Q 242.80 111.49 242.75 114.15
  A 0.85 0.84 -74.5 0 0 243.18 114.92
  Q 244.56 115.68 245.99 115.01
  Q 248.82 113.70 246.06 112.69"
/>
<path stroke="#f69386" vector-effect="non-scaling-stroke" d="
  M 231.6653 115.2201
  A 1.65 1.31 81.1 0 0 232.7042 113.3873
  A 1.65 1.31 81.1 0 0 231.1547 111.9599
  A 1.65 1.31 81.1 0 0 230.1158 113.7927
  A 1.65 1.31 81.1 0 0 231.6653 115.2201"
/>
<path stroke="#cfd0d2" vector-effect="non-scaling-stroke" d="
  M 138.62 109.16
  C 136.13 110.27 140.51 110.09 139.36 109.19
  A 0.80 0.58 -33.6 0 0 138.62 109.16"
/>
<path stroke="#cfd0d2" vector-effect="non-scaling-stroke" d="
  M 175.53 109.41
  Q 174.78 111.66 176.05 111.77
  A 0.80 0.76 -74.1 0 0 176.82 111.32
  Q 177.28 110.34 176.42 109.25
  Q 175.83 108.50 175.53 109.41"
/>
<path stroke="#cfd0d2" vector-effect="non-scaling-stroke" d="
  M 186.26 109.50
  C 185.09 108.59 184.15 109.79 184.13 110.85
  A 0.90 0.90 -73.5 0 0 184.55 111.63
  C 186.21 112.69 187.55 110.50 186.26 109.50"
/>
<path stroke="#cfd0d2" vector-effect="non-scaling-stroke" d="
  M 310.81 110.74
  L 309.44 111.36
  Q 309.00 111.56 309.41 111.75
  Q 313.08 113.47 311.82 109.26
  A 0.61 0.60 -12.1 0 0 311.17 108.84
  L 309.68 109.02
  A 0.84 0.56 4.3 0 0 309.07 109.36
  Q 308.96 109.58 309.09 109.76
  A 1.08 0.43 -10.9 0 0 309.99 109.93
  Q 310.52 109.87 310.90 110.14
  Q 311.39 110.48 310.81 110.74"
/>
<path stroke="#cfd0d2" vector-effect="non-scaling-stroke" d="
  M 314.14 109.85
  C 317.43 108.54 312.21 108.88 313.39 109.81
  A 0.84 0.57 -31.3 0 0 314.14 109.85"
/>
<path stroke="#d9dae3" vector-effect="non-scaling-stroke" d="
  M 326.41 111.99
  Q 326.47 112.32 326.64 112.03
  Q 327.40 110.72 326.83 109.23
  Q 326.61 108.64 326.42 109.22
  Q 326.10 110.19 326.41 111.99"
/>
<path stroke="#cdccd2" vector-effect="non-scaling-stroke" d="
  M 354.60 109.13
  C 352.38 109.93 355.67 110.33 355.27 109.33
  A 0.57 0.44 -20.7 0 0 354.60 109.13"
/>
<path stroke="#c9cace" vector-effect="non-scaling-stroke" d="
  M 354.91 111.85
  C 356.24 111.40 351.72 109.63 354.28 111.72
  A 0.71 0.63 53.3 0 0 354.91 111.85"
/>
<path stroke="#cdccd2" vector-effect="non-scaling-stroke" d="
  M 363.68 109.11
  C 360.82 110.17 364.86 110.26 364.24 109.26
  A 0.50 0.42 -25.0 0 0 363.68 109.11"
/>
<path stroke="#c9cace" vector-effect="non-scaling-stroke" d="
  M 363.60 110.99
  Q 363.12 110.86 362.93 111.21
  A 0.51 0.43 21.6 0 0 363.28 111.86
  Q 364.00 112.08 364.10 111.68
  A 0.66 0.55 14.7 0 0 363.60 110.99"
/>
</g>
<path fill="#000000" d="
  M 111.48 120.33
  C 105.40 114.66 100.87 109.53 94.31 103.35
  A 1.29 1.24 -22.4 0 0 93.44 103.01
  L 34.98 103.03
  A 1.70 1.70 -28.6 0 1 34.06 102.76
  L 6.42 85.31
  A 0.89 0.88 -74.0 0 1 6.01 84.56
  L 6.00 44.56
  A 0.79 0.79 -15.4 0 1 6.39 43.88
  Q 18.30 36.86 30.30 30.00
  Q 32.06 29.00 34.08 29.00
  Q 245.64 29.01 457.20 28.99
  A 1.79 1.63 -26.6 0 1 458.12 29.25
  L 485.05 46.19
  A 0.92 0.90 16.3 0 1 485.48 46.96
  L 485.47 85.21
  A 0.93 0.87 -16.7 0 1 485.03 85.97
  L 457.38 102.73
  A 1.81 1.79 -60.3 0 1 456.45 102.99
  L 398.55 102.99
  A 1.86 1.65 -65.0 0 0 397.31 103.53
  L 380.08 120.65
  A 1.32 1.17 20.0 0 1 379.19 121.00
  L 280.76 121.00
  A 1.28 1.25 23.8 0 0 279.88 121.33
  L 275.05 125.67
  A 1.33 1.25 23.0 0 1 274.19 125.99
  L 217.98 126.02
  A 1.37 1.34 -24.1 0 1 217.09 125.69
  L 212.08 121.33
  A 1.39 1.32 64.4 0 0 211.19 120.99
  L 113.18 121.00
  A 2.50 2.49 66.4 0 1 111.48 120.33
  Z
  M 12.04 48.50
  L 12.04 74.00
  L 12.15 79.96
  Q 11.45 81.49 12.56 82.21
  Q 24.00 89.56 35.63 96.74
  A 1.81 1.79 60.3 0 0 36.56 97.00
  Q 244.76 96.99 452.96 97.02
  Q 455.01 97.02 456.79 96.02
  Q 468.10 89.67 479.09 82.80
  A 0.92 0.90 -16.3 0 0 479.52 82.03
  L 479.50 50.07
  A 1.30 1.02 -73.2 0 0 479.16 49.19
  Q 478.57 48.65 477.79 48.50
  L 456.79 35.50
  Q 455.70 34.55 454.25 35.04
  Q 445.37 34.81 436.50 34.82
  Q 236.27 35.01 36.04 35.00
  Q 34.00 35.00 32.24 35.99
  Q 22.23 41.63 12.19 47.19
  Q 11.39 47.63 12.04 48.50
  Z
  M 211.75 118.96
  L 216.97 123.61
  A 1.46 0.83 54.5 0 0 217.81 124.00
  L 274.19 123.99
  A 1.37 1.04 -60.7 0 0 275.02 123.63
  L 280.00 118.96
  L 378.70 118.99
  A 2.29 2.27 -67.3 0 0 380.31 118.32
  L 394.98 103.66
  A 0.31 0.30 -59.1 0 0 394.86 103.15
  Q 393.50 102.78 392.25 103.04
  L 390.34 103.09
  L 295.28 103.13
  L 293.29 103.25
  L 291.75 103.04
  L 200.50 103.04
  L 198.50 103.04
  L 196.92 103.12
  L 97.27 103.06
  Q 96.74 103.06 97.11 103.43
  L 111.80 118.31
  A 2.46 2.19 -19.8 0 0 113.49 118.99
  L 211.75 118.96
  Z"
/>
<path fill="#f3f4f7" d="
  M 454.25 35.04
  Q 457.11 35.83 454.75 37.49
  Q 246.14 37.51 37.54 37.50
  C 33.33 37.50 27.55 41.61 23.96 43.75
  L 14.71 49.00
  L 12.04 48.50
  Q 11.39 47.63 12.19 47.19
  Q 22.23 41.63 32.24 35.99
  Q 34.00 35.00 36.04 35.00
  Q 236.27 35.01 436.50 34.82
  Q 445.37 34.81 454.25 35.04
  Z"
/>
<path fill="#c7c6d2" d="
  M 456.79 35.50
  Q 455.83 36.75 457.31 37.69
  Q 467.10 43.92 477.25 49.54
  L 476.83 51.25
  L 466.07 44.66
  L 454.75 37.49
  Q 457.11 35.83 454.25 35.04
  Q 455.70 34.55 456.79 35.50
  Z"
/>
<path fill="#808aa9" d="
  M 456.79 35.50
  L 477.79 48.50
  L 477.25 49.54
  Q 467.10 43.92 457.31 37.69
  Q 455.83 36.75 456.79 35.50
  Z"
/>
<path fill="#9da3bc" d="
  M 454.75 37.49
  L 466.07 44.66
  Q 464.30 44.40 463.14 45.20
  A 1.76 1.21 -53.7 0 1 462.25 45.51
  C 316.50 45.62 170.74 45.75 24.99 45.51
  A 0.74 0.53 76.7 0 1 24.43 45.02
  L 23.96 43.75
  C 27.55 41.61 33.33 37.50 37.54 37.50
  Q 246.14 37.51 454.75 37.49
  Z"
/>
<path fill="#a6abc1" d="
  M 23.96 43.75
  L 24.43 45.02
  A 0.74 0.53 76.7 0 0 24.99 45.51
  C 170.74 45.75 316.50 45.62 462.25 45.51
  A 1.76 1.21 -53.7 0 0 463.14 45.20
  Q 464.30 44.40 466.07 44.66
  L 476.83 51.25
  L 476.71 54.00
  Q 469.78 53.99 462.84 54.00
  C 461.83 54.00 461.33 53.58 461.00 52.71
  L 464.59 49.99
  Q 465.02 49.67 464.48 49.67
  L 433.98 49.71
  A 1.61 1.37 23.1 0 0 433.08 49.99
  L 422.75 57.58
  Q 421.53 57.97 420.27 57.51
  Q 420.01 57.41 419.33 57.43
  L 415.54 57.50
  L 415.47 50.28
  A 0.51 0.50 89.4 0 0 414.97 49.78
  L 405.50 49.75
  A 0.76 0.48 1.1 0 0 404.75 50.20
  L 404.69 51.11
  C 401.74 51.14 390.91 50.21 389.21 52.00
  L 387.75 50.00
  A 1.05 0.81 -14.0 0 0 386.93 49.64
  L 374.98 49.82
  A 0.29 0.29 74.1 0 0 374.74 50.26
  L 381.75 62.21
  L 368.29 63.00
  L 368.22 50.29
  A 0.50 0.48 89.4 0 0 367.73 49.79
  L 358.16 49.85
  A 0.53 0.48 90.0 0 0 357.68 50.38
  L 357.71 59.75
  Q 357.42 57.50 357.01 59.56
  A 0.43 0.42 9.1 0 1 356.55 59.89
  Q 352.45 59.46 349.38 60.17
  Q 344.12 54.46 337.67 50.03
  A 1.67 1.64 61.4 0 0 336.75 49.75
  L 305.54 49.77
  A 0.50 0.50 0.0 0 0 305.04 50.27
  L 304.96 60.25
  L 298.75 60.48
  A 0.74 0.74 8.8 0 0 298.08 60.97
  L 297.79 61.75
  L 297.76 57.96
  A 0.95 0.90 -75.0 0 0 297.35 57.20
  L 286.63 50.04
  A 1.69 1.55 59.7 0 0 285.73 49.76
  L 254.66 49.73
  A 0.49 0.49 0.0 0 0 254.17 50.22
  L 254.04 74.00
  L 253.96 73.00
  Q 254.40 64.62 253.11 56.29
  A 1.54 1.37 -38.1 0 1 253.28 55.35
  Q 255.34 51.48 251.01 51.23
  Q 241.54 50.69 224.07 51.11
  C 222.82 51.14 221.86 51.76 220.96 52.50
  L 219.70 50.13
  A 0.82 0.77 75.4 0 0 219.00 49.69
  L 201.47 49.69
  A 0.88 0.83 14.0 0 0 200.72 50.11
  L 198.27 54.61
  Q 189.80 53.52 182.24 53.98
  Q 180.43 54.09 180.25 52.46
  L 183.33 50.13
  Q 183.79 49.79 183.20 49.79
  L 150.04 49.76
  A 1.67 1.31 -57.4 0 0 149.15 50.07
  L 139.29 57.25
  Q 139.35 55.37 137.69 55.31
  Q 129.73 55.05 125.54 54.33
  L 131.04 50.06
  Q 131.41 49.78 130.96 49.78
  L 100.31 49.77
  A 1.56 1.52 -62.5 0 0 99.40 50.07
  L 89.98 57.05
  A 1.33 0.60 -28.9 0 0 89.41 57.81
  L 89.21 60.00
  Q 85.57 59.67 82.04 60.50
  L 81.97 50.30
  A 0.52 0.50 90.0 0 0 81.47 49.78
  L 70.31 49.79
  A 1.75 1.61 -59.5 0 0 69.39 50.07
  L 55.92 58.73
  A 0.77 0.75 -44.5 0 1 55.09 58.73
  L 41.61 50.06
  A 1.75 1.61 59.5 0 0 40.69 49.78
  L 29.55 49.77
  A 0.53 0.52 -88.9 0 0 29.03 50.28
  L 28.96 53.00
  Q 28.62 52.56 28.62 52.03
  A 0.24 0.24 76.2 0 0 28.27 51.81
  C 27.09 52.44 17.33 51.86 15.04 52.00
  L 14.71 49.00
  L 23.96 43.75
  Z"
/>
<path fill="#bfc0cf" d="
  M 12.04 48.50
  L 14.71 49.00
  L 15.04 52.00
  L 14.96 58.75
  Q 13.40 57.67 12.61 59.07
  C 11.59 60.91 12.19 71.17 12.04 74.00
  L 12.04 48.50
  Z"
/>
<path fill="#5c5857" d="
  M 477.79 48.50
  Q 478.57 48.65 479.16 49.19
  A 1.30 1.02 -73.2 0 1 479.50 50.07
  L 479.52 82.03
  A 0.92 0.90 -16.3 0 1 479.09 82.80
  Q 468.10 89.67 456.79 96.02
  Q 455.01 97.02 452.96 97.02
  Q 244.76 96.99 36.56 97.00
  A 1.81 1.79 60.3 0 1 35.63 96.74
  Q 24.00 89.56 12.56 82.21
  Q 11.45 81.49 12.15 79.96
  Q 18.01 81.96 23.00 85.71
  L 29.00 89.46
  C 31.88 91.41 35.95 94.75 39.53 94.75
  Q 245.33 94.75 451.13 94.75
  C 455.14 94.75 459.14 91.54 462.20 89.02
  Q 464.96 88.37 468.10 85.91
  L 476.39 81.08
  A 0.99 0.84 -17.1 0 0 476.88 80.32
  L 476.96 75.75
  L 476.96 66.00
  L 476.71 54.00
  L 476.83 51.25
  L 477.25 49.54
  L 477.79 48.50
  Z"
/>
<path fill="#000000" d="
  M 125.54 54.33
  Q 113.12 55.42 100.65 55.08
  A 0.53 0.50 1.1 0 0 100.11 55.57
  L 100.04 62.24
  A 0.52 0.49 0.5 0 0 100.56 62.74
  L 119.21 62.80
  Q 119.73 62.80 119.36 63.14
  L 117.21 65.13
  C 113.47 68.10 105.25 67.05 100.64 66.91
  A 0.52 0.49 1.7 0 0 100.10 67.39
  L 100.04 75.48
  A 0.51 0.50 0.0 0 0 100.55 75.98
  L 131.45 75.93
  C 128.79 78.33 125.35 81.26 121.57 81.26
  Q 105.69 81.25 89.81 81.24
  A 0.52 0.52 89.4 0 1 89.29 80.73
  L 89.21 78.25
  L 89.21 60.00
  L 89.41 57.81
  A 1.33 0.60 -28.9 0 1 89.98 57.05
  L 99.40 50.07
  A 1.56 1.52 -62.5 0 1 100.31 49.77
  L 130.96 49.78
  Q 131.41 49.78 131.04 50.06
  L 125.54 54.33
  Z"
/>
<path fill="#000000" d="
  M 220.96 52.50
  L 225.84 62.24
  A 0.85 0.75 74.6 0 0 226.56 62.71
  L 237.69 62.54
  Q 234.39 67.22 229.00 67.03
  A 0.33 0.31 -10.8 0 0 228.68 67.47
  L 232.21 74.75
  L 235.03 80.73
  A 0.33 0.32 76.4 0 1 234.75 81.20
  L 223.82 81.22
  A 0.91 0.76 73.1 0 1 223.10 80.75
  L 220.28 75.69
  L 216.15 67.28
  A 0.88 0.68 -9.6 0 0 215.40 66.88
  L 204.91 66.91
  A 0.91 0.73 10.9 0 0 204.15 67.31
  L 199.75 75.96
  L 197.09 80.89
  A 0.87 0.84 14.0 0 1 196.34 81.32
  L 185.55 81.22
  A 0.32 0.32 -76.7 0 1 185.27 80.76
  L 188.54 74.00
  L 193.29 64.50
  L 198.27 54.61
  L 200.72 50.11
  A 0.88 0.83 14.0 0 1 201.47 49.69
  L 219.00 49.69
  A 0.82 0.77 75.4 0 1 219.70 50.13
  L 220.96 52.50
  Z
  M 206.60 62.26
  A 0.32 0.32 14.1 0 0 206.88 62.72
  L 213.46 62.77
  A 0.32 0.32 -12.9 0 0 213.75 62.31
  L 210.51 55.68
  A 0.32 0.32 45.4 0 0 209.94 55.68
  L 206.60 62.26
  Z"
/>
<path fill="#000000" d="
  M 297.79 61.75
  L 298.05 72.90
  Q 292.58 77.39 286.43 81.02
  A 1.84 1.76 28.5 0 1 285.51 81.27
  L 254.55 81.24
  A 0.51 0.50 -0.6 0 1 254.04 80.75
  L 253.96 77.00
  L 254.04 74.00
  L 254.17 50.22
  A 0.49 0.49 -0.5 0 1 254.66 49.73
  L 285.73 49.76
  A 1.69 1.55 59.7 0 1 286.63 50.04
  L 297.35 57.20
  A 0.95 0.90 -75.0 0 1 297.76 57.96
  L 297.79 61.75
  Z
  M 264.76 68.59
  L 264.76 75.34
  A 0.70 0.66 0.4 0 0 265.45 76.00
  L 286.69 76.05
  A 0.52 0.47 0.0 0 0 287.21 75.58
  L 287.21 69.00
  L 287.24 55.50
  A 0.49 0.49 0.0 0 0 286.75 55.01
  L 265.29 55.03
  A 0.50 0.50 0.0 0 0 264.79 55.53
  L 264.76 68.59
  Z"
/>
<path fill="#000000" d="
  M 389.21 52.00
  L 404.23 76.07
  Q 404.52 76.52 404.52 76.00
  L 404.69 51.11
  L 404.75 50.20
  A 0.76 0.48 1.1 0 1 405.50 49.75
  L 414.97 49.78
  A 0.51 0.50 89.4 0 1 415.47 50.28
  L 415.54 57.50
  L 415.50 72.76
  A 1.26 1.25 66.4 0 1 415.17 73.61
  L 413.25 75.71
  L 407.88 80.95
  A 1.27 1.14 20.3 0 1 407.02 81.29
  L 393.80 81.38
  A 0.87 0.84 73.0 0 1 393.06 80.97
  L 389.78 75.60
  L 381.75 62.21
  L 374.74 50.26
  A 0.29 0.29 74.1 0 1 374.98 49.82
  L 386.93 49.64
  A 1.05 0.81 -14.0 0 1 387.75 50.00
  L 389.21 52.00
  Z"
/>
<path fill="#000000" d="
  M 461.00 52.71
  L 457.83 54.67
  A 1.86 0.93 -45.6 0 1 456.93 54.98
  L 434.06 55.02
  A 0.52 0.50 0.0 0 0 433.54 55.52
  L 433.54 62.23
  A 0.52 0.51 0.6 0 0 434.05 62.74
  L 452.70 62.78
  Q 453.05 62.79 452.80 63.07
  L 450.94 65.19
  L 447.68 66.75
  Q 447.13 67.01 446.75 67.01
  L 434.13 66.89
  A 0.52 0.48 -0.0 0 0 433.61 67.37
  L 433.54 75.41
  A 0.52 0.50 0.5 0 0 434.06 75.92
  L 464.75 75.87
  C 465.31 75.78 464.82 76.37 464.70 76.45
  Q 461.37 78.61 458.09 80.93
  A 1.59 1.53 -61.6 0 1 457.19 81.22
  L 423.31 81.23
  A 0.52 0.49 0.0 0 1 422.79 80.74
  L 422.73 76.11
  L 422.75 57.58
  L 433.08 49.99
  A 1.61 1.37 23.1 0 1 433.98 49.71
  L 464.48 49.67
  Q 465.02 49.67 464.59 49.99
  L 461.00 52.71
  Z"
/>
<path fill="#000000" d="
  M 82.04 60.50
  L 82.04 81.00
  L 71.82 81.21
  A 0.54 0.51 88.9 0 1 71.30 80.68
  L 71.21 76.00
  L 71.11 57.20
  A 0.32 0.31 -15.0 0 0 70.64 56.94
  L 61.59 62.21
  Q 61.17 62.46 61.64 62.68
  Q 63.02 63.34 62.49 63.95
  A 1.27 0.72 10.4 0 1 61.60 64.26
  L 53.30 64.23
  A 1.94 1.88 59.9 0 1 52.38 63.97
  L 40.41 56.86
  Q 39.76 56.48 39.76 57.23
  L 39.79 76.25
  L 39.64 80.83
  A 0.55 0.49 0.5 0 1 39.09 81.31
  L 29.71 81.30
  A 0.58 0.49 -1.0 0 1 29.13 80.83
  L 28.97 77.78
  L 28.97 63.17
  L 28.96 53.00
  L 29.03 50.28
  A 0.53 0.52 -88.9 0 1 29.55 49.77
  L 40.69 49.78
  A 1.75 1.61 59.5 0 1 41.61 50.06
  L 55.09 58.73
  A 0.77 0.75 -44.5 0 0 55.92 58.73
  L 69.39 50.07
  A 1.75 1.61 -59.5 0 1 70.31 49.79
  L 81.47 49.78
  A 0.52 0.50 90.0 0 1 81.97 50.30
  L 82.04 60.50
  Z"
/>
<path fill="#000000" d="
  M 180.25 52.46
  L 176.85 54.70
  A 1.79 1.46 -56.8 0 1 175.94 54.99
  L 150.55 55.02
  A 0.51 0.51 -89.4 0 0 150.04 55.52
  L 149.97 67.31
  L 149.93 75.42
  A 0.50 0.48 90.0 0 0 150.41 75.92
  L 171.70 75.96
  A 0.51 0.51 0.0 0 0 172.21 75.45
  L 172.22 67.30
  A 0.52 0.48 0.6 0 0 171.71 66.82
  L 160.74 66.74
  C 163.58 64.71 166.14 62.72 169.78 62.60
  Q 176.51 62.37 183.12 63.55
  L 182.75 73.71
  L 173.07 80.91
  A 1.56 1.39 -61.0 0 1 172.18 81.22
  L 139.80 81.23
  A 0.51 0.51 89.4 0 1 139.29 80.73
  L 139.21 75.00
  L 139.21 66.00
  L 139.29 57.25
  L 149.15 50.07
  A 1.67 1.31 -57.4 0 1 150.04 49.76
  L 183.20 49.79
  Q 183.79 49.79 183.33 50.13
  L 180.25 52.46
  Z"
/>
<path fill="#000000" d="
  M 349.38 60.17
  L 349.00 67.96
  L 331.55 68.32
  Q 331.06 68.33 331.46 68.62
  L 347.44 80.07
  L 348.36 80.88
  Q 348.86 81.31 348.09 81.30
  L 337.31 81.22
  A 1.64 1.52 -25.7 0 1 336.40 80.94
  Q 327.65 74.77 318.96 68.53
  Q 317.86 67.75 316.32 68.34
  A 0.78 0.67 80.7 0 0 315.89 69.04
  L 315.96 80.70
  A 0.53 0.52 -90.0 0 1 315.44 81.23
  L 305.52 81.27
  A 0.52 0.50 90.0 0 1 305.02 80.75
  L 305.03 69.60
  L 304.96 60.25
  L 305.04 50.27
  A 0.50 0.50 0.0 0 1 305.54 49.77
  L 336.75 49.75
  A 1.67 1.64 61.4 0 1 337.67 50.03
  Q 344.12 54.46 349.38 60.17
  Z
  M 338.2574 55.2794
  A 0.26 0.26 0.0 0 0 337.9979 55.0190
  L 316.2379 54.9810
  A 0.26 0.26 0.0 0 0 315.9774 55.2406
  L 315.9626 63.7406
  A 0.26 0.26 0.0 0 0 316.2221 64.0010
  L 337.9821 64.0390
  A 0.26 0.26 0.0 0 0 338.2426 63.7794
  L 338.2574 55.2794
  Z"
/>
<path fill="#000000" d="
  M 368.29 63.00
  L 368.29 75.75
  L 368.22 80.72
  A 0.55 0.55 -1.7 0 1 367.71 81.26
  Q 362.61 81.71 357.60 80.61
  L 357.71 69.75
  L 357.71 59.75
  L 357.68 50.38
  A 0.53 0.48 90.0 0 1 358.16 49.85
  L 367.73 49.79
  A 0.50 0.48 89.4 0 1 368.22 50.29
  L 368.29 63.00
  Z"
/>
<path fill="#b4b7c9" d="
  M 253.96 73.00
  L 253.79 63.49
  A 1.96 1.58 -89.8 0 0 252.25 61.57
  Q 244.88 61.33 237.69 62.54
  L 226.56 62.71
  A 0.85 0.75 74.6 0 1 225.84 62.24
  L 220.96 52.50
  C 221.86 51.76 222.82 51.14 224.07 51.11
  Q 241.54 50.69 251.01 51.23
  Q 255.34 51.48 253.28 55.35
  A 1.54 1.37 -38.1 0 0 253.11 56.29
  Q 254.40 64.62 253.96 73.00
  Z"
/>
<path fill="#babccc" d="
  M 404.69 51.11
  L 404.52 76.00
  Q 404.52 76.52 404.23 76.07
  L 389.21 52.00
  C 390.91 50.21 401.74 51.14 404.69 51.11
  Z"
/>
<path fill="#b4b7c9" d="
  M 28.96 53.00
  L 28.97 63.17
  Q 21.98 62.20 15.04 63.00
  L 14.96 58.75
  L 15.04 52.00
  C 17.33 51.86 27.09 52.44 28.27 51.81
  A 0.24 0.24 76.2 0 1 28.62 52.03
  Q 28.62 52.56 28.96 53.00
  Z"
/>
<path fill="#babccc" d="
  M 180.25 52.46
  Q 180.43 54.09 182.24 53.98
  Q 189.80 53.52 198.27 54.61
  L 193.29 64.50
  Q 188.20 63.50 183.12 63.55
  Q 176.51 62.37 169.78 62.60
  C 166.14 62.72 163.58 64.71 160.74 66.74
  Q 155.15 65.27 149.97 67.31
  L 150.04 55.52
  A 0.51 0.51 -89.4 0 1 150.55 55.02
  L 175.94 54.99
  A 1.79 1.46 -56.8 0 0 176.85 54.70
  L 180.25 52.46
  Z"
/>
<path fill="#babccc" d="
  M 461.00 52.71
  C 461.33 53.58 461.83 54.00 462.84 54.00
  Q 469.78 53.99 476.71 54.00
  L 476.96 66.00
  L 450.94 65.19
  L 452.80 63.07
  Q 453.05 62.79 452.70 62.78
  L 434.05 62.74
  A 0.52 0.51 0.6 0 1 433.54 62.23
  L 433.54 55.52
  A 0.52 0.50 -0.0 0 1 434.06 55.02
  L 456.93 54.98
  A 1.86 0.93 -45.6 0 0 457.83 54.67
  L 461.00 52.71
  Z"
/>
<path fill="#babccc" d="
  M 125.54 54.33
  Q 129.73 55.05 137.69 55.31
  Q 139.35 55.37 139.29 57.25
  L 139.21 66.00
  L 117.21 65.13
  L 119.36 63.14
  Q 119.73 62.80 119.21 62.80
  L 100.56 62.74
  A 0.52 0.49 0.5 0 1 100.04 62.24
  L 100.11 55.57
  A 0.53 0.50 1.1 0 1 100.65 55.08
  Q 113.12 55.42 125.54 54.33
  Z"
/>
<path fill="#bfc0cf" d="
  M 287.21 69.00
  L 264.76 68.59
  L 264.79 55.53
  A 0.50 0.50 0.0 0 1 265.29 55.03
  L 286.75 55.01
  A 0.49 0.49 0.5 0 1 287.24 55.50
  L 287.21 69.00
  Z"
/>
<rect fill="#babccc" x="-11.14" y="-4.51" transform="translate(327.11,59.51) rotate(0.1)" width="22.28" height="9.02" rx="0.26"/>
<path fill="#babccc" d="
  M 206.60 62.26
  L 209.94 55.68
  A 0.32 0.32 45.4 0 1 210.51 55.68
  L 213.75 62.31
  A 0.32 0.32 -13.5 0 1 213.46 62.77
  L 206.88 62.72
  A 0.32 0.32 18.2 0 1 206.60 62.26
  Z"
/>
<path fill="#d0cfd8" d="
  M 71.21 76.00
  L 39.79 76.25
  L 39.76 57.23
  Q 39.76 56.48 40.41 56.86
  L 52.38 63.97
  A 1.94 1.88 59.9 0 0 53.30 64.23
  L 61.60 64.26
  A 1.27 0.72 10.4 0 0 62.49 63.95
  Q 63.02 63.34 61.64 62.68
  Q 61.17 62.46 61.59 62.21
  L 70.64 56.94
  A 0.32 0.31 -15.0 0 1 71.11 57.20
  L 71.21 76.00
  Z"
/>
<path fill="#c7c6d2" d="
  M 422.75 57.58
  L 422.73 76.11
  L 413.25 75.71
  L 415.17 73.61
  A 1.26 1.25 66.4 0 0 415.50 72.76
  L 415.54 57.50
  L 419.33 57.43
  Q 420.01 57.41 420.27 57.51
  Q 421.53 57.97 422.75 57.58
  Z"
/>
<path fill="#e3dfe2" d="
  M 14.96 58.75
  L 15.04 63.00
  L 14.80 77.18
  A 0.48 0.48 -89.4 0 0 15.28 77.67
  L 28.97 77.78
  L 29.13 80.83
  A 0.58 0.49 -1.0 0 0 29.71 81.30
  L 39.09 81.31
  A 0.55 0.49 0.5 0 0 39.64 80.83
  L 39.79 76.25
  L 71.21 76.00
  L 71.30 80.68
  A 0.54 0.51 88.9 0 0 71.82 81.21
  L 82.04 81.00
  Q 84.05 78.19 87.35 79.49
  A 1.31 0.83 34.1 0 0 88.29 79.52
  Q 89.02 79.16 89.21 78.25
  L 89.29 80.73
  A 0.52 0.52 89.4 0 0 89.81 81.24
  Q 105.69 81.25 121.57 81.26
  C 125.35 81.26 128.79 78.33 131.45 75.93
  Q 135.12 74.34 139.21 75.00
  L 139.29 80.73
  A 0.51 0.51 89.4 0 0 139.80 81.23
  L 172.18 81.22
  A 1.56 1.39 -61.0 0 0 173.07 80.91
  L 182.75 73.71
  Q 185.67 72.52 188.54 74.00
  L 185.27 80.76
  A 0.32 0.32 -76.7 0 0 185.55 81.22
  L 196.34 81.32
  A 0.87 0.84 14.0 0 0 197.09 80.89
  L 199.75 75.96
  L 220.28 75.69
  L 223.10 80.75
  A 0.91 0.76 73.1 0 0 223.82 81.22
  L 234.75 81.20
  A 0.33 0.32 76.4 0 0 235.03 80.73
  L 232.21 74.75
  Q 244.96 73.72 252.06 74.19
  Q 254.18 74.33 253.96 77.00
  L 254.04 80.75
  A 0.51 0.50 -0.6 0 0 254.55 81.24
  L 285.51 81.27
  A 1.84 1.76 28.5 0 0 286.43 81.02
  Q 292.58 77.39 298.05 72.90
  Q 297.67 67.61 298.76 70.54
  A 0.79 0.75 80.9 0 0 299.43 71.05
  Q 302.50 71.20 305.03 69.60
  L 305.02 80.75
  A 0.52 0.50 90.0 0 0 305.52 81.27
  L 315.44 81.23
  A 0.53 0.52 -90.0 0 0 315.96 80.70
  L 315.89 69.04
  A 0.78 0.67 80.7 0 1 316.32 68.34
  Q 317.86 67.75 318.96 68.53
  Q 327.65 74.77 336.40 80.94
  A 1.64 1.52 -25.7 0 0 337.31 81.22
  L 348.09 81.30
  Q 348.86 81.31 348.36 80.88
  L 347.44 80.07
  Q 350.74 77.38 356.02 78.28
  Q 357.67 78.57 357.60 80.61
  Q 362.61 81.71 367.71 81.26
  A 0.55 0.55 -1.7 0 0 368.22 80.72
  L 368.29 75.75
  Q 379.02 76.50 389.78 75.60
  L 393.06 80.97
  A 0.87 0.84 73.0 0 0 393.80 81.38
  L 407.02 81.29
  A 1.27 1.14 20.3 0 0 407.88 80.95
  L 413.25 75.71
  L 422.73 76.11
  L 422.79 80.74
  A 0.52 0.49 0.0 0 0 423.31 81.23
  L 457.19 81.22
  A 1.59 1.53 -61.6 0 0 458.09 80.93
  Q 461.37 78.61 464.70 76.45
  C 464.82 76.37 465.31 75.78 464.75 75.87
  Q 470.87 73.93 476.96 75.75
  L 476.88 80.32
  A 0.99 0.84 -17.1 0 1 476.39 81.08
  L 468.10 85.91
  Q 467.37 84.22 464.50 84.22
  Q 345.72 84.23 226.94 84.39
  C 169.60 84.47 112.25 83.84 54.91 84.28
  C 45.87 84.35 34.59 83.84 26.50 84.22
  Q 25.23 84.27 23.00 85.71
  Q 18.01 81.96 12.15 79.96
  L 12.04 74.00
  C 12.19 71.17 11.59 60.91 12.61 59.07
  Q 13.40 57.67 14.96 58.75
  Z"
/>
<path fill="#c7c6d2" d="
  M 357.71 59.75
  L 357.71 69.75
  C 355.46 69.28 350.07 69.83 349.00 67.96
  L 349.38 60.17
  Q 352.45 59.46 356.55 59.89
  A 0.43 0.42 9.1 0 0 357.01 59.56
  Q 357.42 57.50 357.71 59.75
  Z"
/>
<path fill="#d0cfd8" d="
  M 89.21 60.00
  L 89.21 78.25
  Q 89.02 79.16 88.29 79.52
  A 1.31 0.83 34.1 0 1 87.35 79.49
  Q 84.05 78.19 82.04 81.00
  L 82.04 60.50
  Q 85.57 59.67 89.21 60.00
  Z"
/>
<path fill="#c7c6d2" d="
  M 304.96 60.25
  L 305.03 69.60
  Q 302.50 71.20 299.43 71.05
  A 0.79 0.75 80.9 0 1 298.76 70.54
  Q 297.67 67.61 298.05 72.90
  L 297.79 61.75
  L 298.08 60.97
  A 0.74 0.74 8.8 0 1 298.75 60.48
  L 304.96 60.25
  Z"
/>
<path fill="#d0cfd8" d="
  M 253.96 73.00
  L 254.04 74.00
  L 253.96 77.00
  Q 254.18 74.33 252.06 74.19
  Q 244.96 73.72 232.21 74.75
  L 228.68 67.47
  A 0.33 0.31 -10.8 0 1 229.00 67.03
  Q 234.39 67.22 237.69 62.54
  Q 244.88 61.33 252.25 61.57
  A 1.96 1.58 -89.8 0 1 253.79 63.49
  L 253.96 73.00
  Z"
/>
<path fill="#d0cfd8" d="
  M 381.75 62.21
  L 389.78 75.60
  Q 379.02 76.50 368.29 75.75
  L 368.29 63.00
  L 381.75 62.21
  Z"
/>
<path fill="#d0cfd8" d="
  M 28.97 63.17
  L 28.97 77.78
  L 15.28 77.67
  A 0.48 0.48 -89.4 0 1 14.80 77.18
  L 15.04 63.00
  Q 21.98 62.20 28.97 63.17
  Z"
/>
<path fill="#d0cfd8" d="
  M 193.29 64.50
  L 188.54 74.00
  Q 185.67 72.52 182.75 73.71
  L 183.12 63.55
  Q 188.20 63.50 193.29 64.50
  Z"
/>
<path fill="#d0cfd8" d="
  M 450.94 65.19
  L 476.96 66.00
  L 476.96 75.75
  Q 470.87 73.93 464.75 75.87
  L 434.06 75.92
  A 0.52 0.50 0.5 0 1 433.54 75.41
  L 433.61 67.37
  A 0.52 0.48 0.0 0 1 434.13 66.89
  L 446.75 67.01
  Q 447.13 67.01 447.68 66.75
  L 450.94 65.19
  Z"
/>
<path fill="#d0cfd8" d="
  M 117.21 65.13
  L 139.21 66.00
  L 139.21 75.00
  Q 135.12 74.34 131.45 75.93
  L 100.55 75.98
  A 0.51 0.50 0.0 0 1 100.04 75.48
  L 100.10 67.39
  A 0.52 0.49 1.7 0 1 100.64 66.91
  C 105.25 67.05 113.47 68.10 117.21 65.13
  Z"
/>
<path fill="#d0cfd8" d="
  M 160.74 66.74
  L 171.71 66.82
  A 0.52 0.48 0.6 0 1 172.22 67.30
  L 172.21 75.45
  A 0.51 0.51 0.3 0 1 171.70 75.96
  L 150.41 75.92
  A 0.50 0.48 -90.0 0 1 149.93 75.42
  L 149.97 67.31
  Q 155.15 65.27 160.74 66.74
  Z"
/>
<path fill="#d0cfd8" d="
  M 220.28 75.69
  L 199.75 75.96
  L 204.15 67.31
  A 0.91 0.73 10.9 0 1 204.91 66.91
  L 215.40 66.88
  A 0.88 0.68 -9.6 0 1 216.15 67.28
  L 220.28 75.69
  Z"
/>
<path fill="#d0cfd8" d="
  M 349.00 67.96
  C 350.07 69.83 355.46 69.28 357.71 69.75
  L 357.60 80.61
  Q 357.67 78.57 356.02 78.28
  Q 350.74 77.38 347.44 80.07
  L 331.46 68.62
  Q 331.06 68.33 331.55 68.32
  L 349.00 67.96
  Z"
/>
<path fill="#d0cfd8" d="
  M 264.76 68.59
  L 287.21 69.00
  L 287.21 75.58
  A 0.52 0.47 0.0 0 1 286.69 76.05
  L 265.45 76.00
  A 0.70 0.66 0.4 0 1 264.76 75.34
  L 264.76 68.59
  Z"
/>
<path fill="#ebe6e6" d="
  M 468.10 85.91
  Q 464.96 88.37 462.20 89.02
  Q 453.72 86.72 444.99 88.03
  Q 444.53 88.10 444.03 87.94
  C 442.13 87.34 440.16 87.90 438.75 87.90
  Q 404.63 87.89 370.50 88.07
  C 369.26 88.08 361.38 87.28 360.99 87.51
  A 1.16 0.27 -35.0 0 1 360.19 87.83
  C 356.24 87.33 351.58 87.77 348.59 87.79
  Q 334.71 87.90 320.84 87.98
  A 0.43 0.30 75.2 0 1 320.52 87.71
  Q 320.44 87.54 320.25 87.55
  Q 307.87 88.17 295.50 87.53
  C 293.27 87.41 290.24 87.92 287.75 87.91
  Q 266.72 87.75 245.69 87.90
  Q 244.52 87.90 242.49 87.56
  C 239.78 87.11 236.67 87.97 234.09 87.88
  Q 231.46 87.78 231.41 87.78
  C 212.88 87.95 194.35 87.78 175.81 87.81
  Q 103.65 87.91 31.50 87.81
  Q 29.71 87.81 29.00 89.46
  L 23.00 85.71
  Q 25.23 84.27 26.50 84.22
  C 34.59 83.84 45.87 84.35 54.91 84.28
  C 112.25 83.84 169.60 84.47 226.94 84.39
  Q 345.72 84.23 464.50 84.22
  Q 467.37 84.22 468.10 85.91
  Z"
/>
<path fill="#f1ebea" d="
  M 462.20 89.02
  C 459.14 91.54 455.14 94.75 451.13 94.75
  Q 245.33 94.75 39.53 94.75
  C 35.95 94.75 31.88 91.41 29.00 89.46
  Q 29.71 87.81 31.50 87.81
  Q 103.65 87.91 175.81 87.81
  C 194.35 87.78 212.88 87.95 231.41 87.78
  Q 231.46 87.78 234.09 87.88
  C 236.67 87.97 239.78 87.11 242.49 87.56
  Q 244.52 87.90 245.69 87.90
  Q 266.72 87.75 287.75 87.91
  C 290.24 87.92 293.27 87.41 295.50 87.53
  Q 307.87 88.17 320.25 87.55
  Q 320.44 87.54 320.52 87.71
  A 0.43 0.30 75.2 0 0 320.84 87.98
  Q 334.71 87.90 348.59 87.79
  C 351.58 87.77 356.24 87.33 360.19 87.83
  A 1.16 0.27 -35.0 0 0 360.99 87.51
  C 361.38 87.28 369.26 88.08 370.50 88.07
  Q 404.63 87.89 438.75 87.90
  C 440.16 87.90 442.13 87.34 444.03 87.94
  Q 444.53 88.10 444.99 88.03
  Q 453.72 86.72 462.20 89.02
  Z"
/>
<path fill="#9fa0a5" d="
  M 196.92 103.12
  L 208.25 115.46
  L 207.18 115.76
  Q 206.28 116.01 206.24 116.01
  L 113.55 115.99
  A 1.31 1.30 -23.9 0 1 112.68 115.66
  C 111.28 114.42 101.13 104.35 100.50 104.49
  Q 100.00 104.61 100.41 105.03
  L 111.67 116.62
  A 1.27 1.04 64.0 0 0 112.50 117.00
  L 208.55 117.00
  A 0.96 0.19 -38.4 0 0 209.18 116.68
  L 209.50 116.46
  Q 210.98 117.42 211.75 118.96
  L 113.49 118.99
  A 2.46 2.19 -19.8 0 1 111.80 118.31
  L 97.11 103.43
  Q 96.74 103.06 97.27 103.06
  L 196.92 103.12
  Z
  M 125.11 109.49
  Q 124.02 107.46 121.48 108.20
  A 0.68 0.64 -9.8 0 0 120.99 108.85
  L 121.08 112.35
  A 0.55 0.55 89.4 0 0 121.62 112.88
  L 123.63 112.90
  A 0.56 0.45 -86.9 0 0 124.10 112.38
  Q 124.13 111.89 124.42 111.51
  A 0.41 0.35 47.3 0 1 125.03 111.58
  Q 125.69 112.53 126.70 113.03
  A 0.35 0.34 13.5 0 0 127.20 112.73
  L 127.24 108.74
  A 0.36 0.35 79.0 0 0 126.75 108.40
  Q 125.96 108.74 125.53 109.49
  Q 125.31 109.87 125.11 109.49
  Z
  M 136.71 112.50
  Q 137.98 113.30 138.23 111.90
  Q 138.31 111.46 138.59 111.78
  Q 140.48 113.95 142.81 112.24
  A 0.75 0.75 41.9 0 1 143.62 112.20
  Q 144.51 112.72 145.55 112.62
  A 0.31 0.30 70.0 0 0 145.76 112.14
  C 144.97 110.97 144.63 108.77 143.46 108.32
  A 0.63 0.57 -65.2 0 0 142.73 108.63
  C 142.38 109.28 141.50 112.30 140.42 111.92
  A 0.56 0.48 -70.5 0 1 140.15 111.23
  Q 141.70 107.09 137.08 108.23
  A 0.65 0.64 82.8 0 0 136.59 108.87
  L 136.71 112.25
  L 133.65 111.68
  Q 132.95 111.56 133.67 111.39
  Q 138.35 110.35 133.77 109.76
  Q 133.20 109.69 133.58 109.31
  C 134.14 108.77 136.17 109.31 136.03 108.57
  A 0.73 0.61 -5.2 0 0 135.32 108.08
  L 128.25 108.19
  Q 127.74 108.20 128.11 108.59
  C 129.51 110.07 128.03 112.92 129.72 112.99
  A 0.55 0.47 -87.9 0 0 130.22 112.45
  L 130.28 110.06
  A 1.23 0.88 76.8 0 1 130.63 109.21
  Q 131.17 108.76 131.69 109.14
  A 1.14 0.55 -84.4 0 1 132.00 109.98
  L 132.07 112.35
  A 0.67 0.60 4.6 0 0 132.63 112.94
  Q 134.77 113.31 136.71 112.50
  Z
  M 161.40 110.10
  Q 161.56 110.73 161.29 112.08
  A 0.59 0.55 -75.7 0 0 161.65 112.74
  Q 163.01 113.18 164.44 113.00
  Q 165.28 112.89 164.86 112.45
  Q 164.58 112.16 163.68 112.01
  Q 163.21 111.93 163.60 111.61
  L 164.85 110.55
  Q 165.33 110.15 164.45 110.02
  Q 161.04 109.53 164.41 108.91
  A 0.83 0.52 -2.2 0 0 165.03 108.49
  C 165.28 107.67 161.29 108.21 160.53 108.11
  A 0.65 0.63 -75.0 0 0 159.86 108.51
  Q 158.32 112.40 157.94 108.94
  A 0.69 0.68 -87.2 0 0 157.40 108.33
  Q 154.37 107.71 151.28 108.18
  Q 150.81 108.25 151.14 108.60
  C 152.26 109.79 151.71 113.18 152.63 112.99
  A 0.69 0.68 85.8 0 0 153.18 112.34
  L 153.26 110.23
  A 1.54 0.71 82.2 0 1 153.53 109.34
  Q 154.61 108.05 154.95 109.78
  Q 155.02 110.15 154.85 110.74
  C 154.32 112.53 156.31 114.07 156.26 112.10
  Q 156.23 110.83 156.28 109.59
  Q 156.33 108.22 157.60 111.90
  A 1.93 1.89 -82.1 0 0 158.31 112.86
  Q 159.21 113.51 160.56 110.05
  Q 161.05 108.80 161.40 110.10
  Z
  M 171.38 109.19
  C 171.91 109.93 172.04 113.16 172.42 113.04
  A 0.76 0.72 82.8 0 0 172.94 112.33
  L 173.00 108.81
  A 0.68 0.68 7.5 0 0 172.48 108.14
  Q 170.82 107.71 169.68 110.23
  Q 169.46 110.70 169.28 110.22
  Q 168.46 108.11 167.65 108.23
  A 0.53 0.42 73.1 0 0 167.38 108.93
  L 168.78 112.46
  Q 169.50 114.26 170.34 112.47
  Q 171.00 111.06 171.06 109.32
  Q 171.08 108.76 171.38 109.19
  Z
  M 174.12 112.52
  A 0.63 0.63 -4.2 0 0 174.70 113.02
  Q 179.56 113.32 177.70 109.19
  A 1.32 1.30 -0.4 0 0 177.02 108.53
  Q 172.87 106.74 174.12 112.52
  Z
  M 180.28 111.55
  C 180.41 111.11 184.99 110.57 180.88 109.90
  A 0.68 0.56 4.9 0 1 180.31 109.34
  C 180.29 108.68 181.74 109.41 182.43 108.86
  A 0.36 0.35 37.3 0 0 182.34 108.26
  Q 180.90 107.60 179.33 108.22
  A 0.78 0.70 79.9 0 0 178.89 108.92
  L 178.88 112.31
  A 0.67 0.62 -84.0 0 0 179.36 112.95
  Q 180.91 113.31 182.37 112.67
  Q 182.89 112.44 182.41 112.14
  Q 181.67 111.66 180.69 111.85
  A 0.34 0.25 -0.1 0 1 180.28 111.55
  Z
  M 187.85 110.60
  A 2.48 2.48 0.0 0 0 185.37 108.12
  A 2.48 2.48 0.0 0 0 182.89 110.60
  A 2.48 2.48 0.0 0 0 185.37 113.08
  A 2.48 2.48 0.0 0 0 187.85 110.60
  Z
  M 147.48 111.20
  Q 147.10 108.35 149.62 109.79
  A 0.43 0.37 21.8 0 0 150.23 109.58
  Q 150.38 108.87 149.48 108.47
  Q 145.85 106.86 145.97 110.01
  Q 146.12 113.90 149.51 112.73
  A 1.02 0.88 -4.9 0 0 150.14 112.09
  Q 150.27 111.62 150.11 111.32
  A 0.55 0.37 -35.7 0 0 149.39 111.34
  Q 148.81 111.81 148.06 111.77
  A 0.66 0.62 87.6 0 1 147.48 111.20
  Z"
/>
<path fill="#fd0d01" d="
  M 198.50 103.04
  L 216.35 121.22
  A 2.48 2.45 -21.8 0 0 218.08 121.95
  Q 242.76 122.13 266.32 122.29
  C 268.49 122.31 271.41 121.82 274.07 122.04
  A 1.12 1.03 23.2 0 0 274.92 121.74
  L 293.29 103.25
  L 295.28 103.13
  L 283.25 115.71
  L 282.21 116.75
  L 280.00 118.96
  L 275.02 123.63
  A 1.37 1.04 -60.7 0 1 274.19 123.99
  L 217.81 124.00
  A 1.46 0.83 54.5 0 1 216.97 123.61
  L 211.75 118.96
  Q 210.98 117.42 209.50 116.46
  L 208.25 115.46
  L 196.92 103.12
  L 198.50 103.04
  Z"
/>
<path fill="#e6725e" d="
  M 198.50 103.04
  L 200.50 103.04
  L 200.68 103.54
  Q 200.93 104.26 201.07 104.40
  L 216.54 119.90
  Q 217.89 121.25 219.84 121.24
  L 274.00 121.07
  A 1.15 1.13 -68.0 0 0 274.83 120.71
  C 276.91 118.53 291.77 104.28 291.75 103.04
  L 293.29 103.25
  L 274.92 121.74
  A 1.12 1.03 23.2 0 1 274.07 122.04
  C 271.41 121.82 268.49 122.31 266.32 122.29
  Q 242.76 122.13 218.08 121.95
  A 2.48 2.45 -21.8 0 1 216.35 121.22
  L 198.50 103.04
  Z"
/>
<path fill="#ed260c" d="
  M 291.75 103.04
  C 291.77 104.28 276.91 118.53 274.83 120.71
  A 1.15 1.13 -68.0 0 1 274.00 121.07
  L 219.84 121.24
  Q 217.89 121.25 216.54 119.90
  L 201.07 104.40
  Q 200.93 104.26 200.68 103.54
  L 200.50 103.04
  L 291.75 103.04
  Z
  M 222.70 110.32
  L 222.77 116.20
  A 0.82 0.75 -79.0 0 0 223.22 116.93
  Q 225.10 117.76 225.01 115.76
  Q 224.69 109.21 224.63 107.24
  Q 224.58 105.56 223.05 106.58
  Q 221.46 107.64 220.34 109.08
  Q 219.66 109.95 220.16 110.69
  A 0.48 0.41 -39.6 0 0 220.84 110.70
  Q 221.45 110.13 222.19 109.91
  A 0.43 0.40 82.1 0 1 222.70 110.32
  Z
  M 247.97 111.13
  C 251.85 106.06 242.86 106.30 240.82 106.49
  A 0.57 0.55 87.7 0 0 240.33 107.04
  L 240.25 116.24
  A 0.59 0.56 -84.9 0 0 240.72 116.83
  C 242.89 117.21 247.61 117.67 248.90 115.27
  Q 249.88 113.43 248.04 111.83
  A 0.51 0.51 39.6 0 1 247.97 111.13
  Z
  M 253.1365 107.2869
  A 0.98 0.98 0.0 0 0 252.1446 106.3189
  L 251.9046 106.3219
  A 0.98 0.98 0.0 0 0 250.9367 107.3138
  L 251.0435 116.0531
  A 0.98 0.98 0.0 0 0 252.0354 117.0211
  L 252.2754 117.0181
  A 0.98 0.98 0.0 0 0 253.2433 116.0262
  L 253.1365 107.2869
  Z
  M 257.51 109.47
  C 257.52 110.64 256.33 118.73 259.41 116.80
  A 0.95 0.78 76.4 0 0 259.79 116.02
  L 259.77 109.04
  A 0.77 0.68 81.6 0 1 260.23 108.33
  Q 260.89 108.11 261.56 108.35
  A 0.86 0.64 29.1 0 0 262.39 108.24
  Q 263.02 107.58 262.69 106.78
  A 0.83 0.64 -9.0 0 0 261.95 106.38
  L 254.98 106.48
  A 0.82 0.63 6.7 0 0 254.26 106.91
  Q 254.02 107.59 254.41 108.20
  A 0.69 0.53 -25.8 0 0 255.18 108.36
  Q 256.36 107.90 257.17 108.60
  A 1.31 0.94 -75.8 0 1 257.51 109.47
  Z
  M 231.50 117.38
  C 236.54 115.31 235.12 109.23 230.64 110.32
  A 0.37 0.36 -5.4 0 1 230.18 109.95
  Q 230.38 107.06 232.92 108.96
  A 1.32 0.89 50.7 0 0 233.82 109.23
  C 235.94 108.83 232.10 104.73 229.43 107.27
  C 227.63 108.99 227.63 112.19 228.19 114.53
  Q 229.11 118.36 231.50 117.38
  Z
  M 266.16 114.21
  Q 265.52 112.58 263.91 113.61
  A 0.58 0.57 61.2 0 0 263.70 114.35
  Q 265.93 118.95 270.98 116.19
  Q 273.18 114.99 271.97 113.03
  Q 270.58 110.76 267.95 110.38
  A 1.98 1.24 -10.2 0 1 267.05 110.02
  Q 264.86 108.25 268.10 108.18
  A 1.01 0.80 69.2 0 1 268.84 108.62
  Q 269.69 109.92 271.36 109.60
  A 0.44 0.44 73.6 0 0 271.68 109.00
  C 269.64 103.68 260.52 107.25 265.39 111.71
  A 1.65 1.16 -13.5 0 0 266.27 112.06
  Q 268.34 112.23 269.55 113.78
  A 0.58 0.58 48.9 0 1 269.50 114.55
  Q 268.21 115.78 266.73 114.96
  A 1.58 0.87 81.6 0 1 266.16 114.21
  Z"
/>
<path fill="#9fa0a5" d="
  M 390.34 103.09
  Q 385.13 109.97 378.64 115.68
  A 1.35 1.29 23.2 0 1 377.76 116.01
  Q 331.83 115.99 285.93 116.00
  C 285.11 116.00 284.20 115.62 283.25 115.71
  L 295.28 103.13
  L 390.34 103.09
  Z
  M 295.86 109.30
  Q 296.32 108.85 297.02 108.93
  A 1.15 0.58 15.1 0 0 297.90 108.75
  C 298.96 107.70 295.42 108.00 294.69 108.50
  A 1.08 0.62 81.8 0 0 294.37 109.30
  L 294.30 112.28
  A 0.55 0.47 -86.5 0 0 294.71 112.83
  Q 300.61 113.53 296.16 111.65
  Q 295.72 111.46 296.20 111.35
  Q 300.08 110.47 296.06 109.77
  Q 295.48 109.67 295.86 109.30
  Z
  M 304.71 109.81
  L 304.77 112.20
  A 0.98 0.77 -79.9 0 0 305.18 112.97
  C 306.08 113.50 306.02 109.76 306.90 108.69
  Q 307.28 108.23 306.77 108.22
  L 302.62 108.12
  A 0.80 0.57 -77.2 0 0 302.00 108.67
  L 301.09 111.34
  A 0.88 0.77 -59.1 0 0 301.24 112.18
  C 304.75 115.97 301.41 108.07 304.23 109.10
  A 0.79 0.72 -81.4 0 1 304.71 109.81
  Z
  M 313.75 111.31
  L 314.18 111.42
  A 1.09 0.47 77.6 0 1 314.71 112.16
  Q 315.00 113.12 315.98 112.94
  A 0.36 0.32 67.5 0 0 316.17 112.40
  Q 315.26 110.99 316.07 109.43
  A 0.60 0.54 -59.5 0 0 315.92 108.69
  Q 314.24 107.52 312.21 108.19
  A 1.58 1.54 43.7 0 1 311.28 108.20
  Q 309.69 107.72 308.14 108.23
  A 0.68 0.65 80.1 0 0 307.68 108.91
  L 307.84 112.39
  A 0.55 0.53 88.9 0 0 308.37 112.92
  L 312.57 112.90
  A 0.66 0.59 3.0 0 0 313.20 112.39
  L 313.30 111.75
  A 0.49 0.34 -79.4 0 1 313.75 111.31
  Z
  M 317.19 108.93
  A 0.87 0.87 -84.1 0 1 317.84 109.73
  Q 317.98 112.55 318.66 112.82
  Q 319.16 113.03 319.00 112.26
  Q 318.54 110.08 320.07 108.75
  Q 320.45 108.41 319.98 108.26
  Q 318.93 107.92 317.69 108.04
  A 0.94 0.75 8.4 0 0 317.02 108.43
  Q 316.78 108.83 317.19 108.93
  Z
  M 329.16 109.46
  Q 328.91 108.88 328.41 108.48
  A 1.24 0.24 0.4 0 0 327.51 108.30
  L 325.77 108.20
  A 0.71 0.46 7.3 0 0 325.10 108.52
  Q 324.83 109.39 325.10 110.27
  A 1.67 0.60 64.8 0 1 325.19 111.24
  Q 325.05 111.72 324.74 111.69
  A 0.91 0.49 82.4 0 1 324.22 110.97
  Q 323.93 109.59 323.12 108.51
  A 0.63 0.62 41.5 0 0 322.08 108.57
  C 321.74 109.17 319.95 112.25 320.38 112.78
  A 0.54 0.37 -40.5 0 0 321.03 112.71
  Q 322.64 111.38 324.18 112.66
  A 1.01 0.99 -30.6 0 0 325.03 112.87
  Q 326.15 112.65 327.29 112.91
  A 0.72 0.58 18.6 0 0 328.04 112.63
  Q 328.33 112.09 328.32 111.45
  A 1.04 0.68 75.7 0 1 328.55 110.78
  C 328.90 110.42 329.45 112.48 330.44 112.85
  A 0.39 0.39 -80.6 0 0 330.97 112.47
  L 330.86 108.67
  Q 330.84 107.99 330.40 108.51
  L 329.56 109.51
  A 0.24 0.23 -37.1 0 1 329.16 109.46
  Z
  M 333.79 111.29
  Q 333.43 112.72 334.72 112.92
  A 0.41 0.38 89.2 0 0 335.15 112.45
  Q 334.79 110.30 333.45 108.50
  A 0.94 0.62 60.4 0 0 332.65 108.09
  Q 332.20 108.18 331.99 108.76
  Q 331.06 111.28 331.80 112.43
  Q 332.34 113.27 332.88 112.81
  A 1.30 0.48 87.9 0 0 333.17 111.93
  Q 333.21 111.44 333.53 111.11
  Q 333.93 110.69 333.79 111.29
  Z
  M 338.01 112.49
  A 0.62 0.59 -2.8 0 0 338.67 113.06
  Q 343.36 112.79 339.59 111.90
  A 0.60 0.49 10.3 0 1 339.12 111.34
  Q 339.17 110.91 339.62 111.01
  A 1.27 0.31 16.8 0 0 340.57 111.06
  Q 340.87 110.90 340.95 110.60
  A 0.57 0.44 10.5 0 0 340.45 110.04
  Q 337.30 109.56 340.80 108.81
  Q 341.91 108.57 340.84 108.17
  Q 339.57 107.71 338.34 108.21
  A 0.76 0.74 -12.4 0 0 337.86 108.93
  L 338.01 112.49
  Z
  M 346.50 108.50
  Q 346.04 108.21 345.55 108.23
  A 0.90 0.45 -72.5 0 0 344.98 108.82
  L 344.26 110.58
  A 1.29 0.24 -65.2 0 0 344.03 111.48
  Q 344.27 112.69 345.51 112.91
  A 0.41 0.37 -87.5 0 0 345.95 112.47
  Q 345.79 110.39 346.50 108.50
  Q 348.68 109.71 348.04 112.22
  A 0.68 0.54 -71.6 0 0 348.31 112.96
  C 349.38 113.46 349.00 110.35 349.07 109.88
  A 1.04 0.99 -11.3 0 1 349.59 109.14
  C 353.09 107.17 347.14 107.95 346.50 108.50
  Z
  M 353.19 108.94
  Q 352.07 111.12 352.74 111.94
  Q 354.42 114.03 356.23 112.38
  A 0.92 0.76 65.1 0 0 356.45 111.53
  L 355.90 109.23
  A 1.66 0.99 -87.6 0 0 355.45 108.40
  Q 354.05 107.25 353.19 108.94
  Z
  M 358.86 109.00
  L 357.78 108.24
  A 0.71 0.30 39.3 0 0 357.16 108.06
  C 356.75 108.30 358.47 111.65 358.60 112.44
  A 0.74 0.48 89.6 0 0 358.97 113.00
  Q 359.17 113.07 359.37 113.02
  A 0.78 0.50 81.9 0 0 359.72 112.26
  Q 359.63 111.10 360.17 110.10
  A 1.69 0.92 -12.2 0 1 360.89 109.48
  Q 362.00 108.92 360.88 108.22
  A 0.66 0.52 -51.5 0 0 360.14 108.39
  L 359.69 108.86
  A 0.68 0.59 -50.2 0 1 358.86 109.00
  Z
  M 362.19 108.69
  Q 361.65 109.20 361.97 109.67
  A 0.79 0.60 46.3 0 1 362.06 110.43
  C 360.70 112.81 364.07 113.94 365.18 112.39
  A 1.28 1.00 -38.0 0 0 365.41 111.47
  L 364.76 108.52
  Q 364.34 106.62 362.19 108.69
  Z
  M 371.66 111.78
  Q 370.68 111.52 371.68 111.35
  Q 373.51 111.03 373.89 110.54
  A 0.49 0.32 17.1 0 0 373.44 110.00
  Q 369.00 109.39 373.48 108.95
  A 0.86 0.50 -0.5 0 0 374.20 108.52
  C 374.41 107.59 367.20 108.08 366.46 108.14
  A 0.29 0.29 70.6 0 0 366.25 108.59
  Q 367.28 110.13 367.03 112.02
  A 0.98 0.71 -72.5 0 0 367.31 112.85
  Q 368.04 113.38 368.47 112.47
  A 1.44 0.94 58.2 0 0 368.49 111.55
  Q 367.72 108.91 369.60 109.30
  A 0.57 0.51 -79.9 0 1 369.99 109.93
  Q 369.28 114.60 373.79 112.69
  Q 374.11 112.56 374.73 112.58
  L 378.98 112.71
  A 0.55 0.40 -87.7 0 0 379.40 112.17
  L 379.52 109.62
  A 1.40 0.59 -78.5 0 0 379.34 108.73
  Q 378.04 107.04 377.51 109.56
  Q 377.42 110.02 377.12 109.63
  Q 374.25 105.91 374.99 111.46
  A 0.54 0.53 85.7 0 1 374.47 112.07
  Q 372.85 112.10 371.66 111.78
  Z
  M 299.17 108.63
  Q 298.47 111.05 299.15 112.62
  A 0.37 0.37 -35.1 0 0 299.75 112.72
  Q 301.91 110.50 300.13 108.43
  Q 299.46 107.65 299.17 108.63
  Z
  M 336.73 108.39
  C 333.69 106.48 335.67 112.07 336.16 112.75
  A 0.42 0.31 57.4 0 0 336.61 112.92
  L 336.86 112.80
  A 0.99 0.37 85.3 0 0 337.10 111.94
  L 337.05 109.19
  A 1.04 0.57 -83.1 0 0 336.73 108.39
  Z
  M 341.72 111.88
  Q 341.34 112.86 342.42 112.94
  A 0.72 0.52 -75.3 0 0 343.01 112.45
  L 343.88 110.04
  A 0.92 0.68 -59.0 0 0 343.80 109.21
  Q 341.49 106.52 341.89 110.94
  Q 341.92 111.35 341.72 111.88
  Z"
/>
<path fill="#d0cfd8" d="
  M 392.25 103.04
  L 392.25 103.29
  A 0.60 0.40 74.8 0 1 392.11 103.71
  L 379.41 116.17
  A 3.07 2.89 21.6 0 1 377.32 117.00
  C 369.28 117.00 282.36 117.19 282.21 116.75
  L 283.25 115.71
  C 284.20 115.62 285.11 116.00 285.93 116.00
  Q 331.83 115.99 377.76 116.01
  A 1.35 1.29 23.2 0 0 378.64 115.68
  Q 385.13 109.97 390.34 103.09
  L 392.25 103.04
  Z"
/>
<path fill="#a6a4ac" d="
  M 392.25 103.04
  Q 393.50 102.78 394.86 103.15
  A 0.31 0.30 -59.1 0 1 394.98 103.66
  L 380.31 118.32
  A 2.29 2.27 -67.3 0 1 378.70 118.99
  L 280.00 118.96
  L 282.21 116.75
  C 282.36 117.19 369.28 117.00 377.32 117.00
  A 3.07 2.89 21.6 0 0 379.41 116.17
  L 392.11 103.71
  A 0.60 0.40 74.8 0 0 392.25 103.29
  L 392.25 103.04
  Z"
/>
<path fill="#d0cfd8" d="
  M 208.25 115.46
  L 209.50 116.46
  L 209.18 116.68
  A 0.96 0.19 -38.4 0 1 208.55 117.00
  L 112.50 117.00
  A 1.27 1.04 64.0 0 1 111.67 116.62
  L 100.41 105.03
  Q 100.00 104.61 100.50 104.49
  C 101.13 104.35 111.28 114.42 112.68 115.66
  A 1.31 1.30 -23.9 0 0 113.55 115.99
  L 206.24 116.01
  Q 206.28 116.01 207.18 115.76
  L 208.25 115.46
  Z"
/>
<path fill="#ffffff" d="
  M 222.19 109.91
  Q 221.45 110.13 220.84 110.70
  A 0.48 0.41 -39.6 0 1 220.16 110.69
  Q 219.66 109.95 220.34 109.08
  Q 221.46 107.64 223.05 106.58
  Q 224.58 105.56 224.63 107.24
  Q 224.69 109.21 225.01 115.76
  Q 225.10 117.76 223.22 116.93
  A 0.82 0.75 -79.0 0 1 222.77 116.20
  L 222.70 110.32
  A 0.43 0.40 82.1 0 0 222.19 109.91
  Z"
/>
<path fill="#ffffff" d="
  M 240.82 106.49
  C 242.86 106.30 251.85 106.06 247.97 111.13
  A 0.51 0.51 39.6 0 0 248.04 111.83
  Q 249.88 113.43 248.90 115.27
  C 247.61 117.67 242.89 117.21 240.72 116.83
  A 0.59 0.56 -84.9 0 1 240.25 116.24
  L 240.33 107.04
  A 0.57 0.55 87.7 0 1 240.82 106.49
  Z
  M 245.94 108.75
  Q 242.46 106.97 242.79 110.08
  A 0.68 0.67 -88.9 0 0 243.35 110.67
  Q 245.02 110.94 246.04 110.21
  A 0.86 0.86 41.1 0 0 245.94 108.75
  Z
  M 246.06 112.69
  Q 242.80 111.49 242.75 114.15
  A 0.85 0.84 -74.5 0 0 243.18 114.92
  Q 244.56 115.68 245.99 115.01
  Q 248.82 113.70 246.06 112.69
  Z"
/>
<rect fill="#ffffff" x="-1.10" y="-5.35" transform="translate(252.09,111.67) rotate(-0.7)" width="2.20" height="10.70" rx="0.98"/>
<path fill="#ffffff" d="
  M 259.41 116.80
  C 256.33 118.73 257.52 110.64 257.51 109.47
  A 1.31 0.94 -75.8 0 0 257.17 108.60
  Q 256.36 107.90 255.18 108.36
  A 0.69 0.53 -25.8 0 1 254.41 108.20
  Q 254.02 107.59 254.26 106.91
  A 0.82 0.63 6.7 0 1 254.98 106.48
  L 261.95 106.38
  A 0.83 0.64 -9.0 0 1 262.69 106.78
  Q 263.02 107.58 262.39 108.24
  A 0.86 0.64 29.1 0 1 261.56 108.35
  Q 260.89 108.11 260.23 108.33
  A 0.77 0.68 81.6 0 0 259.77 109.04
  L 259.79 116.02
  A 0.95 0.78 76.4 0 1 259.41 116.80
  Z"
/>
<path fill="#ffffff" d="
  M 230.64 110.32
  C 235.12 109.23 236.54 115.31 231.50 117.38
  Q 229.11 118.36 228.19 114.53
  C 227.63 112.19 227.63 108.99 229.43 107.27
  C 232.10 104.73 235.94 108.83 233.82 109.23
  A 1.32 0.89 50.7 0 1 232.92 108.96
  Q 230.38 107.06 230.18 109.95
  A 0.37 0.36 -5.4 0 0 230.64 110.32
  Z
  M 231.6653 115.2201
  A 1.65 1.31 81.1 0 0 232.7042 113.3873
  A 1.65 1.31 81.1 0 0 231.1547 111.9599
  A 1.65 1.31 81.1 0 0 230.1158 113.7927
  A 1.65 1.31 81.1 0 0 231.6653 115.2201
  Z"
/>
<path fill="#ffffff" d="
  M 266.73 114.96
  Q 268.21 115.78 269.50 114.55
  A 0.58 0.58 48.9 0 0 269.55 113.78
  Q 268.34 112.23 266.27 112.06
  A 1.65 1.16 -13.5 0 1 265.39 111.71
  C 260.52 107.25 269.64 103.68 271.68 109.00
  A 0.44 0.44 73.6 0 1 271.36 109.60
  Q 269.69 109.92 268.84 108.62
  A 1.01 0.80 69.2 0 0 268.10 108.18
  Q 264.86 108.25 267.05 110.02
  A 1.98 1.24 -10.2 0 0 267.95 110.38
  Q 270.58 110.76 271.97 113.03
  Q 273.18 114.99 270.98 116.19
  Q 265.93 118.95 263.70 114.35
  A 0.58 0.57 61.2 0 1 263.91 113.61
  Q 265.52 112.58 266.16 114.21
  A 1.58 0.87 81.6 0 0 266.73 114.96
  Z"
/>
<path fill="#f3f4f7" d="
  M 125.53 109.49
  Q 125.96 108.74 126.75 108.40
  A 0.36 0.35 79.0 0 1 127.24 108.74
  L 127.20 112.73
  A 0.35 0.34 13.5 0 1 126.70 113.03
  Q 125.69 112.53 125.03 111.58
  A 0.41 0.35 47.3 0 0 124.42 111.51
  Q 124.13 111.89 124.10 112.38
  A 0.56 0.45 -86.9 0 1 123.63 112.90
  L 121.62 112.88
  A 0.55 0.55 89.4 0 1 121.08 112.35
  L 120.99 108.85
  A 0.68 0.64 -9.8 0 1 121.48 108.20
  Q 124.02 107.46 125.11 109.49
  Q 125.31 109.87 125.53 109.49
  Z"
/>
<path fill="#f3f4f7" d="
  M 136.71 112.25
  L 136.71 112.50
  Q 134.77 113.31 132.63 112.94
  A 0.67 0.60 4.6 0 1 132.07 112.35
  L 132.00 109.98
  A 1.14 0.55 -84.4 0 0 131.69 109.14
  Q 131.17 108.76 130.63 109.21
  A 1.23 0.88 76.8 0 0 130.28 110.06
  L 130.22 112.45
  A 0.55 0.47 -87.9 0 1 129.72 112.99
  C 128.03 112.92 129.51 110.07 128.11 108.59
  Q 127.74 108.20 128.25 108.19
  L 135.32 108.08
  A 0.73 0.61 -5.2 0 1 136.03 108.57
  C 136.17 109.31 134.14 108.77 133.58 109.31
  Q 133.20 109.69 133.77 109.76
  Q 138.35 110.35 133.67 111.39
  Q 132.95 111.56 133.65 111.68
  L 136.71 112.25
  Z"
/>
<path fill="#ffffff" d="
  M 136.71 112.50
  L 136.71 112.25
  L 136.59 108.87
  A 0.65 0.64 82.8 0 1 137.08 108.23
  Q 141.70 107.09 140.15 111.23
  A 0.56 0.48 -70.5 0 0 140.42 111.92
  C 141.50 112.30 142.38 109.28 142.73 108.63
  A 0.63 0.57 -65.2 0 1 143.46 108.32
  C 144.63 108.77 144.97 110.97 145.76 112.14
  A 0.31 0.30 70.0 0 1 145.55 112.62
  Q 144.51 112.72 143.62 112.20
  A 0.75 0.75 41.9 0 0 142.81 112.24
  Q 140.48 113.95 138.59 111.78
  Q 138.31 111.46 138.23 111.90
  Q 137.98 113.30 136.71 112.50
  Z
  M 138.62 109.16
  C 136.13 110.27 140.51 110.09 139.36 109.19
  A 0.80 0.58 -33.6 0 0 138.62 109.16
  Z"
/>
<path fill="#ffffff" d="
  M 161.40 110.10
  Q 161.05 108.80 160.56 110.05
  Q 159.21 113.51 158.31 112.86
  A 1.93 1.89 -82.1 0 1 157.60 111.90
  Q 156.33 108.22 156.28 109.59
  Q 156.23 110.83 156.26 112.10
  C 156.31 114.07 154.32 112.53 154.85 110.74
  Q 155.02 110.15 154.95 109.78
  Q 154.61 108.05 153.53 109.34
  A 1.54 0.71 82.2 0 0 153.26 110.23
  L 153.18 112.34
  A 0.69 0.68 85.8 0 1 152.63 112.99
  C 151.71 113.18 152.26 109.79 151.14 108.60
  Q 150.81 108.25 151.28 108.18
  Q 154.37 107.71 157.40 108.33
  A 0.69 0.68 -87.2 0 1 157.94 108.94
  Q 158.32 112.40 159.86 108.51
  A 0.65 0.63 -75.0 0 1 160.53 108.11
  C 161.29 108.21 165.28 107.67 165.03 108.49
  A 0.83 0.52 -2.2 0 1 164.41 108.91
  Q 161.04 109.53 164.45 110.02
  Q 165.33 110.15 164.85 110.55
  L 163.60 111.61
  Q 163.21 111.93 163.68 112.01
  Q 164.58 112.16 164.86 112.45
  Q 165.28 112.89 164.44 113.00
  Q 163.01 113.18 161.65 112.74
  A 0.59 0.55 -75.7 0 1 161.29 112.08
  Q 161.56 110.73 161.40 110.10
  Z"
/>
<path fill="#ffffff" d="
  M 171.06 109.32
  Q 171.00 111.06 170.34 112.47
  Q 169.50 114.26 168.78 112.46
  L 167.38 108.93
  A 0.53 0.42 73.1 0 1 167.65 108.23
  Q 168.46 108.11 169.28 110.22
  Q 169.46 110.70 169.68 110.23
  Q 170.82 107.71 172.48 108.14
  A 0.68 0.68 7.5 0 1 173.00 108.81
  L 172.94 112.33
  A 0.76 0.72 82.8 0 1 172.42 113.04
  C 172.04 113.16 171.91 109.93 171.38 109.19
  Q 171.08 108.76 171.06 109.32
  Z"
/>
<path fill="#ffffff" d="
  M 174.12 112.52
  Q 172.87 106.74 177.02 108.53
  A 1.32 1.30 -0.4 0 1 177.70 109.19
  Q 179.56 113.32 174.70 113.02
  A 0.63 0.63 -4.2 0 1 174.12 112.52
  Z
  M 175.53 109.41
  Q 174.78 111.66 176.05 111.77
  A 0.80 0.76 -74.1 0 0 176.82 111.32
  Q 177.28 110.34 176.42 109.25
  Q 175.83 108.50 175.53 109.41
  Z"
/>
<path fill="#ffffff" d="
  M 180.69 111.85
  Q 181.67 111.66 182.41 112.14
  Q 182.89 112.44 182.37 112.67
  Q 180.91 113.31 179.36 112.95
  A 0.67 0.62 -84.0 0 1 178.88 112.31
  L 178.89 108.92
  A 0.78 0.70 79.9 0 1 179.33 108.22
  Q 180.90 107.60 182.34 108.26
  A 0.36 0.35 37.3 0 1 182.43 108.86
  C 181.74 109.41 180.29 108.68 180.31 109.34
  A 0.68 0.56 4.9 0 0 180.88 109.90
  C 184.99 110.57 180.41 111.11 180.28 111.55
  A 0.34 0.25 -0.1 0 0 180.69 111.85
  Z"
/>
<path fill="#ffffff" d="
  M 187.85 110.60
  A 2.48 2.48 0.0 0 1 185.37 113.08
  A 2.48 2.48 0.0 0 1 182.89 110.60
  A 2.48 2.48 0.0 0 1 185.37 108.12
  A 2.48 2.48 0.0 0 1 187.85 110.60
  Z
  M 186.26 109.50
  C 185.09 108.59 184.15 109.79 184.13 110.85
  A 0.90 0.90 -73.5 0 0 184.55 111.63
  C 186.21 112.69 187.55 110.50 186.26 109.50
  Z"
/>
<path fill="#ffffff" d="
  M 296.06 109.77
  Q 300.08 110.47 296.20 111.35
  Q 295.72 111.46 296.16 111.65
  Q 300.61 113.53 294.71 112.83
  A 0.55 0.47 -86.5 0 1 294.30 112.28
  L 294.37 109.30
  A 1.08 0.62 81.8 0 1 294.69 108.50
  C 295.42 108.00 298.96 107.70 297.90 108.75
  A 1.15 0.58 15.1 0 1 297.02 108.93
  Q 296.32 108.85 295.86 109.30
  Q 295.48 109.67 296.06 109.77
  Z"
/>
<path fill="#ffffff" d="
  M 304.23 109.10
  C 301.41 108.07 304.75 115.97 301.24 112.18
  A 0.88 0.77 -59.1 0 1 301.09 111.34
  L 302.00 108.67
  A 0.80 0.57 -77.2 0 1 302.62 108.12
  L 306.77 108.22
  Q 307.28 108.23 306.90 108.69
  C 306.02 109.76 306.08 113.50 305.18 112.97
  A 0.98 0.77 -79.9 0 1 304.77 112.20
  L 304.71 109.81
  A 0.79 0.72 -81.4 0 0 304.23 109.10
  Z"
/>
<path fill="#ffffff" d="
  M 313.30 111.75
  L 313.20 112.39
  A 0.66 0.59 3.0 0 1 312.57 112.90
  L 308.37 112.92
  A 0.55 0.53 88.9 0 1 307.84 112.39
  L 307.68 108.91
  A 0.68 0.65 80.1 0 1 308.14 108.23
  Q 309.69 107.72 311.28 108.20
  A 1.58 1.54 43.7 0 0 312.21 108.19
  Q 314.24 107.52 315.92 108.69
  A 0.60 0.54 -59.5 0 1 316.07 109.43
  Q 315.26 110.99 316.17 112.40
  A 0.36 0.32 67.5 0 1 315.98 112.94
  Q 315.00 113.12 314.71 112.16
  A 1.09 0.47 77.6 0 0 314.18 111.42
  L 313.75 111.31
  A 0.49 0.34 -79.4 0 0 313.30 111.75
  Z
  M 310.81 110.74
  L 309.44 111.36
  Q 309.00 111.56 309.41 111.75
  Q 313.08 113.47 311.82 109.26
  A 0.61 0.60 -12.1 0 0 311.17 108.84
  L 309.68 109.02
  A 0.84 0.56 4.3 0 0 309.07 109.36
  Q 308.96 109.58 309.09 109.76
  A 1.08 0.43 -10.9 0 0 309.99 109.93
  Q 310.52 109.87 310.90 110.14
  Q 311.39 110.48 310.81 110.74
  Z
  M 314.14 109.85
  C 317.43 108.54 312.21 108.88 313.39 109.81
  A 0.84 0.57 -31.3 0 0 314.14 109.85
  Z"
/>
<path fill="#f3f4f7" d="
  M 317.19 108.93
  Q 316.78 108.83 317.02 108.43
  A 0.94 0.75 8.4 0 1 317.69 108.04
  Q 318.93 107.92 319.98 108.26
  Q 320.45 108.41 320.07 108.75
  Q 318.54 110.08 319.00 112.26
  Q 319.16 113.03 318.66 112.82
  Q 317.98 112.55 317.84 109.73
  A 0.87 0.87 -84.1 0 0 317.19 108.93
  Z"
/>
<path fill="#f3f4f7" d="
  M 329.56 109.51
  L 330.40 108.51
  Q 330.84 107.99 330.86 108.67
  L 330.97 112.47
  A 0.39 0.39 -80.6 0 1 330.44 112.85
  C 329.45 112.48 328.90 110.42 328.55 110.78
  A 1.04 0.68 75.7 0 0 328.32 111.45
  Q 328.33 112.09 328.04 112.63
  A 0.72 0.58 18.6 0 1 327.29 112.91
  Q 326.15 112.65 325.03 112.87
  A 1.01 0.99 -30.6 0 1 324.18 112.66
  Q 322.64 111.38 321.03 112.71
  A 0.54 0.37 -40.5 0 1 320.38 112.78
  C 319.95 112.25 321.74 109.17 322.08 108.57
  A 0.63 0.62 41.5 0 1 323.12 108.51
  Q 323.93 109.59 324.22 110.97
  A 0.91 0.49 82.4 0 0 324.74 111.69
  Q 325.05 111.72 325.19 111.24
  A 1.67 0.60 64.8 0 0 325.10 110.27
  Q 324.83 109.39 325.10 108.52
  A 0.71 0.46 7.3 0 1 325.77 108.20
  L 327.51 108.30
  A 1.24 0.24 0.4 0 1 328.41 108.48
  Q 328.91 108.88 329.16 109.46
  A 0.24 0.23 -37.1 0 0 329.56 109.51
  Z
  M 326.41 111.99
  Q 326.47 112.32 326.64 112.03
  Q 327.40 110.72 326.83 109.23
  Q 326.61 108.64 326.42 109.22
  Q 326.10 110.19 326.41 111.99
  Z"
/>
<path fill="#ffffff" d="
  M 333.53 111.11
  Q 333.21 111.44 333.17 111.93
  A 1.30 0.48 87.9 0 1 332.88 112.81
  Q 332.34 113.27 331.80 112.43
  Q 331.06 111.28 331.99 108.76
  Q 332.20 108.18 332.65 108.09
  A 0.94 0.62 60.4 0 1 333.45 108.50
  Q 334.79 110.30 335.15 112.45
  A 0.41 0.38 89.2 0 1 334.72 112.92
  Q 333.43 112.72 333.79 111.29
  Q 333.93 110.69 333.53 111.11
  Z"
/>
<path fill="#ffffff" d="
  M 338.01 112.49
  L 337.86 108.93
  A 0.76 0.74 -12.4 0 1 338.34 108.21
  Q 339.57 107.71 340.84 108.17
  Q 341.91 108.57 340.80 108.81
  Q 337.30 109.56 340.45 110.04
  A 0.57 0.44 10.5 0 1 340.95 110.60
  Q 340.87 110.90 340.57 111.06
  A 1.27 0.31 16.8 0 1 339.62 111.01
  Q 339.17 110.91 339.12 111.34
  A 0.60 0.49 10.3 0 0 339.59 111.90
  Q 343.36 112.79 338.67 113.06
  A 0.62 0.59 -2.8 0 1 338.01 112.49
  Z"
/>
<path fill="#ffffff" d="
  M 346.50 108.50
  C 347.14 107.95 353.09 107.17 349.59 109.14
  A 1.04 0.99 -11.3 0 0 349.07 109.88
  C 349.00 110.35 349.38 113.46 348.31 112.96
  A 0.68 0.54 -71.6 0 1 348.04 112.22
  Q 348.68 109.71 346.50 108.50
  Z"
/>
<path fill="#f3f4f7" d="
  M 353.19 108.94
  Q 354.05 107.25 355.45 108.40
  A 1.66 0.99 -87.6 0 1 355.90 109.23
  L 356.45 111.53
  A 0.92 0.76 65.1 0 1 356.23 112.38
  Q 354.42 114.03 352.74 111.94
  Q 352.07 111.12 353.19 108.94
  Z
  M 354.60 109.13
  C 352.38 109.93 355.67 110.33 355.27 109.33
  A 0.57 0.44 -20.7 0 0 354.60 109.13
  Z
  M 354.91 111.85
  C 356.24 111.40 351.72 109.63 354.28 111.72
  A 0.71 0.63 53.3 0 0 354.91 111.85
  Z"
/>
<path fill="#f1ebea" d="
  M 359.69 108.86
  L 360.14 108.39
  A 0.66 0.52 -51.5 0 1 360.88 108.22
  Q 362.00 108.92 360.89 109.48
  A 1.69 0.92 -12.2 0 0 360.17 110.10
  Q 359.63 111.10 359.72 112.26
  A 0.78 0.50 81.9 0 1 359.37 113.02
  Q 359.17 113.07 358.97 113.00
  A 0.74 0.48 89.6 0 1 358.60 112.44
  C 358.47 111.65 356.75 108.30 357.16 108.06
  A 0.71 0.30 39.3 0 1 357.78 108.24
  L 358.86 109.00
  A 0.68 0.59 -50.2 0 0 359.69 108.86
  Z"
/>
<path fill="#f3f4f7" d="
  M 362.19 108.69
  Q 364.34 106.62 364.76 108.52
  L 365.41 111.47
  A 1.28 1.00 -38.0 0 1 365.18 112.39
  C 364.07 113.94 360.70 112.81 362.06 110.43
  A 0.79 0.60 46.3 0 0 361.97 109.67
  Q 361.65 109.20 362.19 108.69
  Z
  M 363.68 109.11
  C 360.82 110.17 364.86 110.26 364.24 109.26
  A 0.50 0.42 -25.0 0 0 363.68 109.11
  Z
  M 363.60 110.99
  Q 363.12 110.86 362.93 111.21
  A 0.51 0.43 21.6 0 0 363.28 111.86
  Q 364.00 112.08 364.10 111.68
  A 0.66 0.55 14.7 0 0 363.60 110.99
  Z"
/>
<path fill="#ffffff" d="
  M 371.66 111.78
  Q 372.85 112.10 374.47 112.07
  A 0.54 0.53 85.7 0 0 374.99 111.46
  Q 374.25 105.91 377.12 109.63
  Q 377.42 110.02 377.51 109.56
  Q 378.04 107.04 379.34 108.73
  A 1.40 0.59 -78.5 0 1 379.52 109.62
  L 379.40 112.17
  A 0.55 0.40 -87.7 0 1 378.98 112.71
  L 374.73 112.58
  Q 374.11 112.56 373.79 112.69
  Q 369.28 114.60 369.99 109.93
  A 0.57 0.51 -79.9 0 0 369.60 109.30
  Q 367.72 108.91 368.49 111.55
  A 1.44 0.94 58.2 0 1 368.47 112.47
  Q 368.04 113.38 367.31 112.85
  A 0.98 0.71 -72.5 0 1 367.03 112.02
  Q 367.28 110.13 366.25 108.59
  A 0.29 0.29 70.6 0 1 366.46 108.14
  C 367.20 108.08 374.41 107.59 374.20 108.52
  A 0.86 0.50 -0.5 0 1 373.48 108.95
  Q 369.00 109.39 373.44 110.00
  A 0.49 0.32 17.1 0 1 373.89 110.54
  Q 373.51 111.03 371.68 111.35
  Q 370.68 111.52 371.66 111.78
  Z"
/>
<path fill="#ffffff" d="
  M 148.06 111.77
  Q 148.81 111.81 149.39 111.34
  A 0.55 0.37 -35.7 0 1 150.11 111.32
  Q 150.27 111.62 150.14 112.09
  A 1.02 0.88 -4.9 0 1 149.51 112.73
  Q 146.12 113.90 145.97 110.01
  Q 145.85 106.86 149.48 108.47
  Q 150.38 108.87 150.23 109.58
  A 0.43 0.37 21.8 0 1 149.62 109.79
  Q 147.10 108.35 147.48 111.20
  A 0.66 0.62 87.6 0 0 148.06 111.77
  Z"
/>
<path fill="#ed260c" d="
  M 245.94 108.75
  A 0.86 0.86 41.1 0 1 246.04 110.21
  Q 245.02 110.94 243.35 110.67
  A 0.68 0.67 -88.9 0 1 242.79 110.08
  Q 242.46 106.97 245.94 108.75
  Z"
/>
<path fill="#ffffff" d="
  M 299.17 108.63
  Q 299.46 107.65 300.13 108.43
  Q 301.91 110.50 299.75 112.72
  A 0.37 0.37 -35.1 0 1 299.15 112.62
  Q 298.47 111.05 299.17 108.63
  Z"
/>
<path fill="#ffffff" d="
  M 336.16 112.75
  C 335.67 112.07 333.69 106.48 336.73 108.39
  A 1.04 0.57 -83.1 0 1 337.05 109.19
  L 337.10 111.94
  A 0.99 0.37 85.3 0 1 336.86 112.80
  L 336.61 112.92
  A 0.42 0.31 57.4 0 1 336.16 112.75
  Z"
/>
<path fill="#ffffff" d="
  M 341.89 110.94
  Q 341.49 106.52 343.80 109.21
  A 0.92 0.68 -59.0 0 1 343.88 110.04
  L 343.01 112.45
  A 0.72 0.52 -75.3 0 1 342.42 112.94
  Q 341.34 112.86 341.72 111.88
  Q 341.92 111.35 341.89 110.94
  Z"
/>
<path fill="#ffffff" d="
  M 346.50 108.50
  Q 345.79 110.39 345.95 112.47
  A 0.41 0.37 -87.5 0 1 345.51 112.91
  Q 344.27 112.69 344.03 111.48
  A 1.29 0.24 -65.2 0 1 344.26 110.58
  L 344.98 108.82
  A 0.90 0.45 -72.5 0 1 345.55 108.23
  Q 346.04 108.21 346.50 108.50
  Z"
/>
<path fill="#9fa0a5" d="
  M 310.90 110.14
  Q 310.52 109.87 309.99 109.93
  A 1.08 0.43 -10.9 0 1 309.09 109.76
  Q 308.96 109.58 309.07 109.36
  A 0.84 0.56 4.3 0 1 309.68 109.02
  L 311.17 108.84
  A 0.61 0.60 -12.1 0 1 311.82 109.26
  Q 313.08 113.47 309.41 111.75
  Q 309.00 111.56 309.44 111.36
  L 310.81 110.74
  Q 311.39 110.48 310.90 110.14
  Z"
/>
<path fill="#bfc0cf" d="
  M 326.41 111.99
  Q 326.10 110.19 326.42 109.22
  Q 326.61 108.64 326.83 109.23
  Q 327.40 110.72 326.64 112.03
  Q 326.47 112.32 326.41 111.99
  Z"
/>
<path fill="#9fa0a5" d="
  M 139.36 109.19
  C 140.51 110.09 136.13 110.27 138.62 109.16
  A 0.80 0.58 -33.6 0 1 139.36 109.19
  Z"
/>
<path fill="#9fa0a5" d="
  M 175.53 109.41
  Q 175.83 108.50 176.42 109.25
  Q 177.28 110.34 176.82 111.32
  A 0.80 0.76 -74.1 0 1 176.05 111.77
  Q 174.78 111.66 175.53 109.41
  Z"
/>
<path fill="#9fa0a5" d="
  M 186.26 109.50
  C 187.55 110.50 186.21 112.69 184.55 111.63
  A 0.90 0.90 -73.5 0 1 184.13 110.85
  C 184.15 109.79 185.09 108.59 186.26 109.50
  Z"
/>
<path fill="#9fa0a5" d="
  M 313.39 109.81
  C 312.21 108.88 317.43 108.54 314.14 109.85
  A 0.84 0.57 -31.3 0 1 313.39 109.81
  Z"
/>
<path fill="#a6a4ac" d="
  M 355.27 109.33
  C 355.67 110.33 352.38 109.93 354.60 109.13
  A 0.57 0.44 -20.7 0 1 355.27 109.33
  Z"
/>
<path fill="#a6a4ac" d="
  M 364.24 109.26
  C 364.86 110.26 360.82 110.17 363.68 109.11
  A 0.50 0.42 -25.0 0 1 364.24 109.26
  Z"
/>
<path fill="#9fa0a5" d="
  M 354.28 111.72
  C 351.72 109.63 356.24 111.40 354.91 111.85
  A 0.71 0.63 53.3 0 1 354.28 111.72
  Z"
/>
<path fill="#9fa0a5" d="
  M 364.10 111.68
  Q 364.00 112.08 363.28 111.86
  A 0.51 0.43 21.6 0 1 362.93 111.21
  Q 363.12 110.86 363.60 110.99
  A 0.66 0.55 14.7 0 1 364.10 111.68
  Z"
/>
<ellipse fill="#ed260c" cx="0.00" cy="0.00" transform="translate(231.41,113.59) rotate(81.1)" rx="1.65" ry="1.31"/>
<path fill="#ed260c" d="
  M 246.06 112.69
  Q 248.82 113.70 245.99 115.01
  Q 244.56 115.68 243.18 114.92
  A 0.85 0.84 -74.5 0 1 242.75 114.15
  Q 242.80 111.49 246.06 112.69
  Z"
/>
</svg>
