<?xml version="1.0" encoding="UTF-8" standalone="no"?>
<!DOCTYPE svg PUBLIC "-//W3C//DTD SVG 1.1//EN" "http://www.w3.org/Graphics/SVG/1.1/DTD/svg11.dtd">
<svg xmlns="http://www.w3.org/2000/svg" version="1.1" viewBox="0 0 1703 360">
<g fill="#5d5d5d">
<path d="
  M 0.00 0.00
  L 169.81 0.00
  L 169.94 169.62
  A 0.38 0.38 0.0 0 1 169.56 170.00
  L 0.00 169.83
  L 0.00 0.00
  Z"
/>
<path d="
  M 189.17 0.00
  L 360.06 0.00
  L 360.02 169.62
  A 0.38 0.37 -90.0 0 1 359.65 170.00
  L 189.71 170.00
  A 0.71 0.71 0.0 0 1 189.00 169.29
  L 189.17 0.00
  Z"
/>
<path d="
  M 1130.69 268.14
  A 0.15 0.15 0.0 0 0 1130.42 268.07
  Q 1118.88 284.49 1099.08 288.43
  C 1029.39 302.30 1006.19 240.78 1019.87 184.41
  C 1024.18 166.66 1034.19 149.27 1049.97 139.42
  C 1071.91 125.73 1113.64 124.30 1130.31 147.73
  A 0.38 0.37 -62.9 0 0 1130.99 147.51
  L 1131.01 61.40
  Q 1131.01 59.06 1133.35 59.06
  L 1167.49 58.97
  A 0.51 0.51 0.0 0 1 1168.00 59.48
  L 1168.00 286.54
  A 0.45 0.44 -90.0 0 1 1167.56 286.99
  Q 1150.82 287.03 1133.99 287.00
  Q 1130.90 287.00 1131.00 283.76
  Q 1131.24 275.89 1130.69 268.14
  Z
  M 1072.19 256.31
  C 1088.30 267.24 1110.73 263.00 1122.04 246.80
  C 1131.81 232.79 1133.27 215.10 1131.92 198.60
  Q 1130.94 186.71 1127.26 179.30
  C 1121.40 167.46 1109.59 159.60 1096.12 159.24
  C 1071.20 158.58 1060.05 174.59 1055.59 197.00
  C 1051.72 216.41 1054.28 244.17 1072.19 256.31
  Z"
/>
<ellipse cx="0.00" cy="0.00" transform="translate(798.69,88.25) rotate(-2.1)" rx="21.66" ry="20.60"/>
<path d="
  M 551.33 240.46
  A 0.75 0.75 0.0 0 0 552.78 240.48
  L 598.67 73.68
  A 0.92 0.91 7.3 0 1 599.56 73.00
  L 639.29 73.00
  A 0.52 0.51 -7.2 0 1 639.79 73.38
  Q 660.85 155.63 682.00 237.75
  Q 682.83 240.97 683.62 242.39
  Q 683.94 242.96 684.09 242.33
  L 724.20 73.66
  A 0.92 0.90 6.3 0 1 725.09 72.96
  L 762.06 73.02
  A 0.98 0.98 0.0 0 1 763.01 74.26
  C 743.63 144.65 724.94 215.50 705.48 285.85
  A 1.57 1.56 7.8 0 1 703.97 286.99
  L 661.73 287.00
  A 1.29 1.29 0.0 0 1 660.47 286.00
  Q 659.74 282.78 658.80 279.19
  Q 638.43 201.61 618.02 123.92
  A 0.52 0.52 0.0 0 0 617.01 123.92
  L 573.98 286.41
  A 0.80 0.78 -82.3 0 1 573.22 287.00
  L 528.80 287.00
  A 0.56 0.54 -7.4 0 1 528.26 286.60
  L 469.09 73.55
  A 0.44 0.43 82.2 0 1 469.50 73.00
  L 508.67 73.00
  A 0.68 0.68 0.0 0 1 509.33 73.51
  L 551.33 240.46
  Z"
/>
<path d="
  M 1247.45 289.21
  C 1215.69 281.98 1197.08 256.65 1194.02 224.98
  C 1188.47 167.59 1218.30 127.90 1278.48 129.32
  C 1315.77 130.20 1342.51 150.35 1350.28 187.47
  Q 1355.86 214.10 1347.81 240.76
  C 1334.48 284.94 1288.40 298.52 1247.45 289.21
  Z
  M 1235.88 237.79
  C 1244.55 257.94 1265.65 264.88 1286.06 259.87
  C 1312.91 253.28 1317.01 220.08 1314.05 197.74
  C 1312.71 187.61 1308.64 176.84 1301.19 169.59
  C 1290.67 159.35 1272.07 157.84 1258.92 162.41
  Q 1241.38 168.50 1235.28 186.26
  C 1229.72 202.43 1229.26 222.39 1235.88 237.79
  Z"
/>
<path d="
  M 1703.00 241.31
  L 1703.00 246.56
  Q 1700.73 274.56 1675.76 285.05
  C 1650.87 295.51 1625.29 293.09 1600.93 284.52
  A 1.37 1.36 9.6 0 1 1600.01 283.23
  L 1600.00 248.56
  A 0.38 0.38 0.0 0 1 1600.60 248.25
  C 1616.41 259.88 1635.93 266.03 1655.56 261.35
  Q 1664.02 259.33 1665.94 251.25
  C 1668.95 238.61 1659.78 232.81 1649.70 228.22
  C 1638.18 222.97 1624.50 218.32 1614.75 210.17
  C 1592.11 191.24 1594.84 156.02 1618.67 140.16
  C 1636.36 128.39 1659.62 127.65 1680.23 131.15
  Q 1687.28 132.34 1693.45 134.76
  A 2.44 2.44 0.0 0 1 1694.99 137.03
  L 1695.00 168.02
  A 1.15 1.15 0.0 0 1 1693.30 169.03
  C 1680.28 161.83 1663.48 154.85 1649.03 159.09
  C 1634.89 163.24 1631.28 176.54 1642.83 186.67
  Q 1648.98 192.06 1656.55 195.21
  C 1678.29 204.24 1702.23 213.11 1703.00 241.31
  Z"
/>
<path d="
  M 888.84 153.80
  C 903.95 132.38 928.25 126.48 953.02 130.96
  C 985.09 136.77 991.37 167.27 991.18 195.18
  Q 990.86 240.91 991.04 286.49
  A 0.51 0.51 0.0 0 1 990.53 287.00
  L 955.53 287.00
  A 0.51 0.51 0.0 0 1 955.02 286.49
  Q 954.98 246.48 955.00 206.50
  C 955.01 186.02 952.09 159.43 925.12 159.15
  C 901.79 158.91 887.87 179.62 887.96 201.57
  Q 888.11 243.93 887.97 286.48
  A 0.52 0.52 0.0 0 1 887.45 287.00
  L 853.50 287.00
  A 0.50 0.50 0.0 0 1 853.00 286.50
  L 853.00 133.50
  A 0.50 0.50 0.0 0 1 853.50 133.00
  L 887.25 133.00
  A 0.75 0.75 0.0 0 1 888.00 133.75
  L 888.00 153.53
  A 0.46 0.46 0.0 0 0 888.84 153.80
  Z"
/>
<path d="
  M 1474.82 177.02
  L 1443.14 285.94
  A 1.47 1.47 0.0 0 1 1441.73 287.00
  L 1404.96 287.00
  A 0.96 0.95 -8.1 0 1 1404.04 286.32
  L 1359.91 135.04
  Q 1359.31 133.00 1361.44 133.00
  L 1396.66 133.00
  A 0.48 0.48 0.0 0 1 1397.13 133.37
  L 1426.10 251.65
  Q 1426.37 252.77 1426.69 251.66
  L 1460.33 134.11
  A 1.54 1.53 -81.9 0 1 1461.80 133.00
  L 1495.26 133.00
  A 0.91 0.91 0.0 0 1 1496.14 133.68
  L 1526.08 250.46
  A 0.39 0.39 0.0 0 0 1526.83 250.47
  Q 1528.46 245.01 1529.82 239.27
  Q 1542.31 186.56 1555.07 133.87
  A 1.10 1.09 6.6 0 1 1556.14 133.03
  L 1589.37 132.94
  A 0.33 0.33 0.0 0 1 1589.69 133.36
  L 1545.62 286.53
  A 0.64 0.64 0.0 0 1 1545.00 287.00
  L 1506.46 287.00
  A 0.85 0.84 -8.3 0 1 1505.65 286.40
  Q 1504.28 281.88 1503.03 277.24
  Q 1489.71 227.44 1475.83 177.03
  Q 1475.34 175.24 1474.82 177.02
  Z"
/>
<rect x="780.00" y="133.00" width="36.00" height="154.00" rx="0.57"/>
<path d="
  M 169.83 360.00
  L 0.00 360.00
  L 0.00 189.19
  L 169.47 189.06
  A 0.50 0.50 0.0 0 1 169.97 189.56
  L 169.83 360.00
  Z"
/>
<path d="
  M 359.73 360.00
  L 188.94 360.00
  L 188.98 191.21
  A 1.86 1.85 -89.8 0 1 190.83 189.36
  C 247.04 189.14 303.25 188.98 359.47 189.04
  A 0.50 0.50 0.0 0 1 359.97 189.54
  L 359.73 360.00
  Z"
/>
<path d="
  M 1703.00 358.06
  L 1703.00 359.06
  L 1700.19 360.00
  L 1688.91 360.03
  Q 1681.15 353.15 1674.69 345.04
  C 1672.84 342.73 1671.71 343.06 1669.00 343.03
  Q 1656.80 342.91 1644.61 343.08
  A 0.52 0.52 0.0 0 0 1644.10 343.59
  Q 1644.04 353.29 1643.76 357.23
  C 1643.49 361.10 1633.53 359.77 1630.74 359.66
  A 1.63 1.63 0.0 0 1 1629.17 358.05
  Q 1628.84 333.53 1629.06 308.31
  C 1629.07 306.47 1630.98 305.44 1632.76 305.38
  Q 1651.50 304.72 1677.25 305.34
  C 1686.63 305.56 1696.28 305.19 1699.70 315.51
  C 1703.02 325.55 1700.80 339.17 1688.16 341.27
  A 0.57 0.57 0.0 0 0 1687.85 342.23
  C 1692.65 347.17 1699.20 352.41 1703.00 358.06
  Z
  M 1686.43 324.78
  C 1685.78 316.98 1683.51 316.14 1676.25 316.17
  Q 1660.37 316.23 1644.58 315.93
  A 0.57 0.56 -89.0 0 0 1644.00 316.50
  L 1644.00 332.39
  A 0.52 0.52 0.0 0 0 1644.52 332.91
  Q 1661.78 333.14 1679.08 332.83
  Q 1687.09 332.69 1686.43 324.78
  Z"
/>
<path d="
  M 1348.50 317.06
  C 1338.88 316.99 1328.41 317.78 1318.93 316.31
  A 0.70 0.70 0.0 0 1 1318.36 315.75
  Q 1317.59 311.46 1318.28 307.15
  A 1.37 1.37 0.0 0 1 1319.63 306.00
  Q 1354.61 306.13 1389.50 305.16
  C 1395.27 305.00 1394.41 311.35 1393.46 315.64
  A 1.02 1.01 -6.1 0 1 1392.89 316.34
  Q 1391.49 316.99 1389.50 316.99
  Q 1376.50 317.01 1363.50 317.00
  A 0.50 0.50 0.0 0 0 1363.00 317.50
  L 1362.99 357.43
  A 1.56 1.55 -90.0 0 1 1361.44 358.99
  L 1349.50 359.01
  A 0.51 0.50 90.0 0 1 1349.00 358.50
  L 1349.00 317.56
  A 0.50 0.50 0.0 0 0 1348.50 317.06
  Z"
/>
<path d="
  M 1468.19 360.00
  L 1458.69 360.00
  L 1456.34 359.31
  A 1.51 1.46 80.5 0 1 1455.54 358.72
  L 1449.85 350.29
  A 2.93 2.91 72.9 0 0 1447.43 349.00
  L 1406.82 349.00
  A 0.78 0.78 0.0 0 0 1406.13 349.42
  C 1403.67 354.13 1400.82 358.64 1397.69 360.00
  L 1387.44 360.00
  L 1385.90 359.54
  A 1.11 1.10 -4.2 0 1 1385.21 358.95
  C 1384.38 357.19 1412.07 315.71 1415.20 310.91
  Q 1418.34 306.09 1424.06 305.44
  C 1431.40 304.61 1436.46 305.58 1440.62 311.83
  Q 1455.90 334.76 1470.54 358.11
  A 0.78 0.78 0.0 0 1 1470.53 358.96
  Q 1469.78 360.08 1468.19 360.00
  Z
  M 1427.01 316.78
  C 1426.59 316.82 1414.57 336.38 1413.36 338.37
  A 0.41 0.41 0.0 0 0 1413.71 339.00
  L 1441.48 338.99
  A 0.79 0.78 -16.5 0 0 1442.14 337.78
  L 1429.08 317.93
  A 2.52 2.03 67.9 0 0 1427.01 316.78
  Z"
/>
<path d="
  M 1170.55 316.88
  A 1.03 1.03 0.0 0 0 1169.01 317.77
  L 1169.00 358.50
  A 0.50 0.50 0.0 0 1 1168.50 359.00
  L 1156.53 359.00
  A 0.52 0.52 0.0 0 1 1156.01 358.48
  Q 1155.99 336.18 1156.00 313.90
  C 1156.00 309.73 1157.14 305.81 1161.83 305.80
  C 1168.98 305.78 1177.85 305.01 1180.88 308.37
  Q 1198.00 327.38 1215.08 346.43
  Q 1216.23 347.70 1217.30 348.08
  A 1.27 1.26 -80.4 0 0 1218.98 346.88
  L 1219.01 306.91
  A 0.90 0.90 0.0 0 1 1219.90 306.01
  L 1231.25 305.99
  A 0.74 0.74 0.0 0 1 1231.99 306.72
  Q 1232.03 331.25 1231.98 355.68
  C 1231.97 360.07 1219.85 359.17 1215.75 359.20
  C 1211.45 359.23 1209.46 359.05 1206.44 355.67
  Q 1190.82 338.23 1175.28 320.73
  Q 1173.19 318.38 1170.55 316.88
  Z"
/>
<path d="
  M 1492.45 358.89
  C 1482.18 358.77 1474.38 353.22 1474.19 342.30
  Q 1473.88 324.54 1474.04 307.14
  A 1.47 1.47 0.0 0 1 1475.56 305.69
  L 1487.28 306.04
  A 0.73 0.73 0.0 0 1 1487.99 306.77
  Q 1488.01 321.95 1488.00 337.28
  C 1487.99 346.46 1491.63 348.68 1500.32 348.79
  Q 1519.35 349.02 1538.39 349.00
  A 0.68 0.68 0.0 0 1 1539.07 349.69
  L 1538.83 358.28
  A 0.66 0.66 0.0 0 1 1538.17 358.93
  Q 1515.24 359.14 1492.45 358.89
  Z"
/>
<path d="
  M 1604.40 349.00
  L 1563.25 349.00
  A 1.91 1.90 16.3 0 0 1561.65 349.87
  L 1556.15 358.45
  A 1.18 1.15 15.8 0 1 1555.16 358.99
  L 1541.52 359.00
  A 0.42 0.41 -84.0 0 1 1541.11 358.49
  Q 1541.39 357.34 1542.46 355.70
  Q 1557.30 332.78 1572.04 309.80
  C 1575.20 304.88 1581.31 305.59 1586.99 305.79
  C 1591.70 305.95 1593.59 307.33 1596.20 311.39
  Q 1614.99 340.52 1621.35 350.16
  Q 1624.29 354.62 1625.90 358.35
  A 0.35 0.35 0.0 0 1 1625.60 358.84
  C 1622.14 359.03 1612.64 359.91 1611.22 357.60
  Q 1608.53 353.23 1605.20 349.36
  A 1.07 1.07 0.0 0 0 1604.40 349.00
  Z
  M 1569.80 340.00
  L 1597.21 340.00
  Q 1599.60 340.00 1598.32 337.98
  L 1585.33 317.47
  A 1.72 1.72 0.0 0 0 1582.79 317.07
  Q 1582.03 317.69 1581.21 318.99
  Q 1575.24 328.41 1568.89 338.33
  A 1.08 1.08 0.0 0 0 1569.80 340.00
  Z"
/>
<rect x="1129.99" y="306.01" width="13.98" height="52.94" rx="1.28"/>
<path d="
  M 1254.01 336.81
  C 1240.44 336.07 1239.61 311.55 1250.41 307.13
  Q 1253.07 306.05 1259.88 306.03
  Q 1284.09 305.96 1308.42 306.01
  A 1.23 1.21 84.2 0 1 1309.61 306.99
  Q 1310.37 310.66 1309.72 314.41
  A 1.92 1.91 5.0 0 1 1307.83 315.99
  Q 1285.27 315.99 1262.99 315.83
  Q 1256.50 315.79 1256.85 322.21
  C 1257.12 326.96 1260.21 328.02 1264.59 328.01
  Q 1282.04 327.98 1299.50 327.97
  C 1314.49 327.97 1316.60 352.65 1305.04 357.87
  Q 1302.59 358.98 1297.67 358.98
  Q 1271.05 359.02 1244.37 358.99
  A 0.36 0.35 0.0 0 1 1244.01 358.64
  L 1243.99 349.72
  A 0.72 0.71 -89.6 0 1 1244.71 349.00
  Q 1268.79 349.03 1293.00 348.97
  C 1299.38 348.95 1298.99 342.36 1297.18 338.27
  A 1.17 1.16 88.1 0 0 1296.51 337.64
  Q 1294.51 336.91 1293.50 336.93
  Q 1265.83 337.45 1254.01 336.81
  Z"
/>
</g>
</svg>
