<?xml version="1.0" encoding="UTF-8" standalone="no"?>
<!DOCTYPE svg PUBLIC "-//W3C//DTD SVG 1.1//EN" "http://www.w3.org/Graphics/SVG/1.1/DTD/svg11.dtd">
<svg xmlns="http://www.w3.org/2000/svg" version="1.1" viewBox="0 0 1703 360">
<g fill="#f9f9f9">
<path d="
  M 0.00 0.00
  L 169.81 0.00
  L 169.94 169.28
  A 0.72 0.72 0.0 0 1 169.22 170.00
  L 0.00 169.70
  L 0.00 0.00
  Z"
/>
<path d="
  M 189.17 0.00
  L 360.06 0.00
  L 359.98 169.49
  A 0.51 0.51 0.0 0 1 359.47 170.00
  L 189.49 170.00
  A 0.49 0.48 0.0 0 1 189.00 169.52
  L 189.17 0.00
  Z"
/>
<path d="
  M 1130.39 268.46
  C 1117.16 286.25 1097.95 290.88 1076.71 290.04
  C 1026.22 288.06 1013.39 242.30 1016.96 200.32
  C 1019.82 166.64 1038.79 136.41 1074.22 130.70
  C 1091.83 127.86 1112.98 130.11 1126.50 142.83
  C 1127.86 144.11 1128.78 146.39 1130.56 147.67
  Q 1130.98 147.97 1130.98 147.45
  Q 1131.01 104.36 1131.01 61.31
  C 1131.01 59.03 1132.96 59.09 1134.78 59.07
  Q 1151.16 58.90 1167.52 59.05
  A 0.49 0.48 0.6 0 1 1168.00 59.53
  L 1168.00 286.54
  A 0.45 0.45 0.0 0 1 1167.55 286.99
  Q 1150.69 287.02 1133.74 286.99
  Q 1131.11 286.99 1131.14 284.51
  Q 1131.25 276.51 1130.72 268.56
  Q 1130.69 268.06 1130.39 268.46
  Z
  M 1072.19 256.31
  C 1087.71 266.64 1109.58 263.45 1121.03 248.29
  C 1132.17 233.54 1133.55 213.45 1131.64 195.68
  Q 1130.81 188.00 1128.93 183.03
  C 1121.51 163.35 1100.68 154.80 1081.37 161.17
  C 1047.99 172.19 1045.12 238.30 1072.19 256.31
  Z"
/>
<ellipse cx="0.00" cy="0.00" transform="translate(798.69,88.25) rotate(-2.5)" rx="21.66" ry="20.63"/>
<path d="
  M 617.31 123.29
  Q 586.52 238.37 574.76 283.50
  Q 574.24 285.50 573.51 286.60
  A 0.91 0.90 -72.9 0 1 572.76 287.00
  L 528.95 287.00
  A 0.75 0.75 0.0 0 1 528.23 286.45
  L 469.22 74.08
  A 0.85 0.84 -7.8 0 1 470.04 73.01
  L 508.45 73.00
  A 0.96 0.95 82.8 0 1 509.39 73.73
  L 551.38 240.70
  A 0.70 0.70 0.0 0 0 552.73 240.71
  L 598.64 73.79
  A 1.07 1.05 7.4 0 1 599.67 73.01
  L 638.99 73.00
  A 0.72 0.72 0.0 0 1 639.66 73.45
  Q 640.08 74.52 640.77 77.24
  Q 662.00 160.00 683.33 243.02
  A 0.20 0.20 0.0 0 0 683.72 243.00
  Q 683.79 242.51 683.94 241.88
  Q 703.48 161.08 722.64 80.20
  C 723.06 78.42 723.52 75.64 724.35 73.46
  A 0.72 0.72 0.0 0 1 725.02 73.00
  L 762.76 73.00
  A 0.38 0.38 0.0 0 1 763.13 73.48
  L 705.61 285.74
  A 1.69 1.68 7.4 0 1 703.98 286.99
  L 661.76 287.00
  A 1.14 1.13 -7.2 0 1 660.66 286.15
  Q 640.90 211.10 621.35 136.43
  Q 619.62 129.81 617.58 123.29
  Q 617.44 122.81 617.31 123.29
  Z"
/>
<path d="
  M 1240.31 287.05
  C 1216.05 279.02 1200.54 259.56 1195.61 234.78
  C 1188.77 200.37 1196.40 158.08 1229.80 139.82
  C 1254.68 126.21 1291.73 125.29 1316.95 139.04
  C 1349.56 156.81 1356.34 197.89 1350.27 230.77
  C 1345.21 258.19 1328.56 279.04 1301.55 287.38
  C 1282.15 293.36 1259.66 293.46 1240.31 287.05
  Z
  M 1251.94 256.06
  Q 1267.38 264.54 1285.80 260.06
  C 1314.07 253.19 1317.35 217.45 1313.49 194.50
  C 1309.68 171.87 1293.72 158.16 1270.36 160.24
  Q 1241.41 162.81 1233.84 190.58
  C 1228.04 211.82 1230.13 244.08 1251.94 256.06
  Z"
/>
<path d="
  M 1703.00 240.81
  L 1703.00 246.31
  C 1701.36 281.77 1665.45 293.27 1636.00 291.97
  Q 1620.59 291.29 1601.22 284.61
  A 1.33 1.30 -3.9 0 1 1600.49 283.99
  Q 1600.00 283.08 1600.00 281.75
  Q 1600.01 265.11 1599.98 248.47
  Q 1599.98 247.98 1600.39 248.26
  C 1615.74 258.88 1632.00 264.87 1650.97 262.35
  C 1658.22 261.38 1664.67 258.65 1666.21 251.06
  C 1668.62 239.18 1660.50 233.20 1650.96 228.83
  C 1631.48 219.89 1608.21 213.36 1601.28 190.00
  C 1595.05 168.98 1603.53 148.35 1622.63 137.92
  C 1643.25 126.65 1668.73 127.61 1690.74 133.77
  C 1693.92 134.66 1695.00 135.51 1695.00 139.07
  Q 1695.02 153.42 1694.97 168.14
  A 1.02 1.02 0.0 0 1 1693.48 169.04
  C 1684.02 164.10 1675.26 160.07 1664.49 158.32
  C 1655.80 156.90 1641.73 158.29 1637.38 167.76
  C 1632.10 179.24 1643.59 189.43 1652.99 193.57
  C 1674.87 203.21 1701.61 210.88 1703.00 240.81
  Z"
/>
<path d="
  M 888.00 153.49
  A 0.55 0.55 0.0 0 0 889.01 153.80
  Q 902.03 134.57 924.75 131.00
  C 947.99 127.35 972.83 130.96 983.95 154.02
  C 992.19 171.10 991.07 190.75 991.04 210.06
  Q 990.97 248.27 990.99 286.47
  A 0.53 0.52 90.0 0 1 990.47 287.00
  L 955.49 287.00
  A 0.49 0.48 0.0 0 1 955.00 286.52
  Q 955.00 247.13 955.00 207.60
  C 955.00 185.43 951.73 156.33 921.07 159.37
  C 904.49 161.00 892.81 173.97 889.16 189.86
  Q 888.03 194.77 888.02 204.87
  Q 887.98 245.72 888.01 286.62
  A 0.38 0.38 0.0 0 1 887.63 287.00
  L 853.63 287.00
  A 0.63 0.63 0.0 0 1 853.00 286.37
  L 853.00 133.50
  A 0.50 0.50 0.0 0 1 853.50 133.00
  L 887.25 133.00
  A 0.75 0.75 0.0 0 1 888.00 133.75
  L 888.00 153.49
  Z"
/>
<path d="
  M 1526.23 250.99
  A 0.24 0.24 0.0 0 0 1526.70 250.99
  Q 1528.50 244.39 1530.07 237.82
  Q 1542.52 185.61 1555.23 133.42
  A 0.51 0.51 0.0 0 1 1555.73 133.02
  L 1589.10 132.95
  A 0.53 0.53 0.0 0 1 1589.61 133.63
  L 1545.61 286.53
  A 0.66 0.64 -81.5 0 1 1544.99 287.00
  L 1507.03 287.00
  A 1.75 1.75 0.0 0 1 1505.34 285.71
  L 1475.90 177.01
  Q 1475.36 175.03 1474.79 177.00
  Q 1459.44 230.20 1443.55 284.31
  Q 1443.13 285.74 1442.69 286.57
  A 0.81 0.80 -75.7 0 1 1441.98 287.00
  L 1404.98 287.00
  A 0.91 0.89 -8.1 0 1 1404.11 286.36
  Q 1382.28 211.95 1360.57 137.35
  Q 1360.03 135.48 1360.13 133.59
  A 0.62 0.61 -88.5 0 1 1360.74 133.00
  L 1396.53 133.00
  A 0.66 0.65 -6.7 0 1 1397.17 133.50
  L 1426.11 251.74
  A 0.29 0.28 45.9 0 0 1426.66 251.75
  L 1460.30 134.29
  A 1.78 1.78 0.0 0 1 1462.01 133.00
  L 1494.97 133.00
  A 1.29 1.29 0.0 0 1 1496.22 133.97
  L 1526.23 250.99
  Z"
/>
<rect x="780.00" y="133.00" width="36.00" height="154.00" rx="0.57"/>
<path d="
  M 169.83 360.00
  L 0.00 360.00
  L 0.00 189.19
  L 169.47 189.06
  A 0.50 0.50 0.0 0 1 169.97 189.56
  L 169.83 360.00
  Z"
/>
<path d="
  M 359.94 360.00
  L 188.94 360.00
  Q 189.11 243.59 188.98 192.25
  C 188.97 188.74 191.23 189.03 194.17 189.02
  Q 276.82 188.95 359.46 189.04
  A 0.50 0.50 0.0 0 1 359.96 189.54
  L 359.94 360.00
  Z"
/>
<path d="
  M 1703.00 358.06
  L 1703.00 359.06
  L 1700.44 360.00
  L 1688.94 360.00
  C 1683.89 356.94 1678.40 349.35 1674.50 344.75
  C 1673.46 343.52 1672.30 343.05 1670.59 343.03
  Q 1657.60 342.92 1644.61 343.08
  A 0.50 0.50 0.0 0 0 1644.11 343.58
  Q 1644.04 353.85 1643.77 357.23
  C 1643.46 361.13 1633.55 359.75 1630.62 359.68
  A 1.56 1.56 0.0 0 1 1629.10 358.13
  Q 1628.90 333.87 1629.03 309.00
  C 1629.05 305.05 1633.12 305.15 1636.68 305.08
  Q 1660.35 304.63 1684.00 305.49
  C 1691.16 305.75 1697.83 308.48 1699.77 315.76
  C 1702.39 325.64 1701.12 339.29 1688.42 341.31
  A 0.74 0.74 0.0 0 0 1688.04 342.59
  Q 1696.07 349.86 1703.00 358.06
  Z
  M 1685.26 319.31
  C 1684.35 316.72 1680.70 316.41 1678.43 316.37
  Q 1662.08 316.07 1644.82 315.96
  A 0.81 0.81 0.0 0 0 1644.00 316.77
  L 1644.00 332.54
  A 0.45 0.45 0.0 0 0 1644.44 332.99
  Q 1661.04 333.04 1677.53 332.97
  C 1686.78 332.93 1687.96 326.91 1685.26 319.31
  Z"
/>
<path d="
  M 1319.31 316.62
  A 0.96 0.95 84.8 0 1 1318.42 315.87
  Q 1317.74 312.69 1318.04 308.96
  C 1318.32 305.52 1320.02 306.05 1323.08 306.05
  Q 1356.55 306.03 1390.00 305.21
  C 1395.39 305.07 1394.22 312.45 1393.44 315.60
  A 1.84 1.83 -82.9 0 1 1391.66 316.99
  L 1363.75 317.01
  A 0.75 0.74 0.0 0 0 1363.00 317.75
  L 1362.99 357.18
  A 1.80 1.80 0.0 0 1 1361.19 358.98
  L 1349.76 359.01
  A 0.76 0.76 0.0 0 1 1349.00 358.25
  L 1349.00 317.45
  A 0.54 0.53 -0.5 0 0 1348.45 316.92
  Q 1333.87 317.29 1319.31 316.62
  Z"
/>
<path d="
  M 1468.44 360.00
  L 1458.44 360.00
  C 1453.34 358.75 1450.97 349.00 1447.75 349.00
  Q 1427.38 349.00 1407.00 349.00
  A 0.82 0.80 12.8 0 0 1406.27 349.45
  Q 1403.18 355.59 1398.00 360.06
  L 1387.19 360.00
  Q 1386.24 359.82 1385.39 359.24
  A 0.74 0.72 -66.6 0 1 1385.09 358.46
  Q 1385.40 357.10 1386.16 355.92
  Q 1400.60 333.36 1415.01 310.78
  C 1418.81 304.83 1427.50 304.22 1433.53 305.96
  C 1436.85 306.91 1438.85 309.14 1440.92 312.25
  Q 1456.03 334.99 1470.56 358.10
  A 0.83 0.82 45.5 0 1 1470.56 358.97
  Q 1469.90 360.01 1468.44 360.00
  Z
  M 1427.53 316.76
  A 0.74 0.73 -64.3 0 0 1426.68 317.06
  L 1413.38 338.35
  Q 1412.97 339.00 1413.74 339.00
  L 1440.92 339.00
  A 1.11 1.11 0.0 0 0 1441.84 337.26
  C 1439.48 333.79 1429.79 317.50 1427.53 316.76
  Z"
/>
<path d="
  M 1169.42 317.05
  A 0.49 0.48 -4.1 0 0 1169.00 317.53
  L 1169.00 358.34
  A 0.65 0.65 0.0 0 1 1168.35 358.99
  L 1156.61 359.00
  A 0.56 0.55 89.5 0 1 1156.05 358.44
  Q 1155.96 335.95 1156.00 313.52
  C 1156.01 308.68 1157.57 305.70 1162.77 305.90
  C 1169.38 306.15 1177.15 304.35 1181.28 308.93
  Q 1198.75 328.36 1216.24 347.82
  A 1.58 1.58 0.0 0 0 1219.00 346.76
  L 1219.00 306.79
  A 0.78 0.78 0.0 0 1 1219.77 306.01
  L 1231.39 305.99
  A 0.57 0.56 89.5 0 1 1231.95 306.55
  Q 1232.08 330.90 1231.96 355.18
  Q 1231.95 358.00 1229.24 358.35
  Q 1222.46 359.20 1213.67 359.14
  C 1208.74 359.10 1207.74 357.11 1204.91 353.94
  Q 1188.96 336.17 1172.98 318.44
  C 1172.04 317.39 1170.73 316.85 1169.42 317.05
  Z"
/>
<path d="
  M 1492.70 358.90
  C 1482.17 358.80 1474.32 353.26 1474.15 342.05
  Q 1473.88 324.90 1474.04 307.01
  A 1.28 1.28 0.0 0 1 1475.35 305.75
  L 1487.42 306.05
  A 0.54 0.53 90.0 0 1 1487.94 306.58
  Q 1488.06 321.54 1487.99 336.44
  C 1487.95 346.59 1491.34 348.66 1501.07 348.79
  Q 1519.80 349.04 1538.62 348.99
  A 0.37 0.37 0.0 0 1 1538.99 349.36
  L 1538.99 357.78
  A 1.18 1.18 0.0 0 1 1537.81 358.96
  Q 1515.43 359.11 1492.70 358.90
  Z"
/>
<path d="
  M 1604.66 349.00
  L 1563.18 349.00
  A 1.76 1.75 -73.4 0 0 1561.71 349.80
  L 1556.28 358.29
  A 1.52 1.52 0.0 0 1 1555.00 358.99
  L 1541.48 359.00
  A 0.61 0.61 0.0 0 1 1540.96 358.06
  Q 1556.56 333.92 1572.10 309.83
  C 1574.67 305.85 1577.76 305.82 1582.64 305.68
  C 1588.14 305.53 1592.43 305.57 1595.61 310.48
  Q 1610.10 332.83 1624.60 355.19
  Q 1625.57 356.69 1626.01 358.40
  A 0.41 0.41 0.0 0 1 1625.63 358.91
  Q 1616.79 359.21 1613.08 358.94
  C 1611.06 358.79 1606.76 351.21 1605.43 349.39
  A 0.97 0.95 71.4 0 0 1604.66 349.00
  Z
  M 1570.68 339.91
  Q 1584.56 340.19 1598.50 339.93
  A 0.61 0.61 0.0 0 0 1599.00 339.00
  L 1585.34 317.50
  A 1.81 1.81 0.0 0 0 1582.28 317.50
  L 1568.97 338.26
  A 1.11 1.04 28.3 0 0 1569.49 339.80
  Q 1569.70 339.89 1570.68 339.91
  Z"
/>
<rect x="1129.99" y="306.05" width="13.98" height="52.90" rx="1.30"/>
<path d="
  M 1246.97 333.27
  C 1242.79 329.64 1242.35 319.22 1243.95 314.21
  C 1246.26 307.00 1252.65 306.06 1259.99 306.03
  Q 1284.32 305.95 1308.74 306.03
  A 1.18 1.17 -89.8 0 1 1309.91 307.22
  L 1309.83 314.23
  A 1.77 1.77 0.0 0 1 1308.06 315.98
  Q 1285.86 316.02 1264.00 316.01
  Q 1261.42 316.01 1259.01 316.85
  A 1.53 1.51 -81.6 0 0 1258.24 317.43
  C 1256.02 320.62 1256.22 325.96 1260.22 327.53
  Q 1261.39 328.00 1264.34 328.00
  Q 1281.80 328.01 1299.25 328.05
  C 1311.71 328.08 1314.38 342.20 1311.03 351.27
  C 1308.66 357.71 1303.55 359.00 1296.77 359.00
  Q 1270.61 359.00 1244.37 359.00
  A 0.36 0.36 0.0 0 1 1244.01 358.64
  L 1243.99 349.72
  A 0.72 0.71 -89.6 0 1 1244.71 349.00
  Q 1269.39 349.03 1294.18 348.95
  C 1299.54 348.93 1299.92 337.26 1294.19 337.20
  Q 1275.72 337.01 1257.26 337.06
  Q 1251.34 337.07 1246.97 333.27
  Z"
/>
</g>
</svg>
